<svg xmlns="http://www.w3.org/2000/svg" width="800" height="800" fill="none" viewBox="0 0 800 800"><path fill="#50c255" d="M400 465.282c-13.739 0-24.915 11.176-24.915 24.915 0 18.686 24.915 46.27 24.915 46.27s24.915-27.584 24.915-46.27c0-13.739-11.176-24.915-24.915-24.915m0 7.119a7.121 7.121 0 1 1-5.032 12.156A7.12 7.12 0 0 1 400 472.401m0 35.592c-5.944 0-11.176-3.025-14.237-7.652 0-4.698 9.503-7.297 14.237-7.297s14.237 2.599 14.237 7.297A17 17 0 0 1 400 507.993"/><path fill="#656565" d="M621.866 506.532a5.556 5.556 0 1 1 .001-11.113 5.556 5.556 0 0 1-.001 11.113m0-21.113a15.553 15.553 0 0 0-15.556 15.557c0 11.667 15.556 28.89 15.556 28.89s15.556-17.223 15.556-28.89a15.557 15.557 0 0 0-15.556-15.557M539.811 441.948a5.555 5.555 0 1 1 0-11.11 5.555 5.555 0 0 1 0 11.11m0-21.112a15.56 15.56 0 0 0-15.556 15.556c0 11.667 15.556 28.89 15.556 28.89s15.557-17.223 15.557-28.89a15.553 15.553 0 0 0-15.557-15.556M231.353 427.76a5.556 5.556 0 1 1-.002-11.111 5.556 5.556 0 0 1 .002 11.111m0-21.112a15.557 15.557 0 0 0-15.556 15.556c0 11.668 15.556 28.891 15.556 28.891s15.556-17.223 15.556-28.891a15.557 15.557 0 0 0-15.556-15.556M160.666 486.395a5.556 5.556 0 1 1 .001-11.113 5.556 5.556 0 0 1-.001 11.113m0-21.113a15.55 15.55 0 0 0-11 4.557 15.55 15.55 0 0 0-4.557 11c0 11.667 15.557 28.89 15.557 28.89s15.556-17.223 15.556-28.89a15.557 15.557 0 0 0-15.556-15.557M322.595 535.356a5.555 5.555 0 1 1 0-11.11 5.555 5.555 0 0 1 0 11.11m0-21.112a15.56 15.56 0 0 0-15.556 15.556c0 11.667 15.556 28.89 15.556 28.89s15.557-17.223 15.557-28.89a15.553 15.553 0 0 0-15.557-15.556"/><path fill="#f1cd00" d="M187.684 555.855a277.42 277.42 0 0 0 404.647-65.807 277.43 277.43 0 0 0 45.012-144.979l-29.786-.713a247.63 247.63 0 0 1-142.452 218.296 247.62 247.62 0 0 1-258.914-30.147z"/><path fill="#000" d="M219.328 550.555q2.42 1.64 2.954 3.703.547 2.046-.89 4.165-1.52 2.242-3.695 2.599-2.162.338-4.581-1.302l-3.497-2.37 2.992-.574-3.387 4.997-4.097-2.777 8.391-12.379zm-4.318 5.914q.672.455 1.288.305.647-.154 1.125-.861.467-.688.347-1.311-.09-.627-.761-1.083l-3.284-2.226 2.992-.575-4.417 6.517-.574-2.993zM231.486 557.826q1.54.915 2.531 2.172a7.9 7.9 0 0 1 1.41 2.723q.42 1.466.204 3-.187 1.526-1.048 2.976a7.9 7.9 0 0 1-2.133 2.38 7.4 7.4 0 0 1-2.742 1.275 8.2 8.2 0 0 1-3.077.084q-1.578-.268-3.119-1.183-1.54-.915-2.531-2.172a8.2 8.2 0 0 1-1.399-2.742 7.6 7.6 0 0 1-.211-3.028q.216-1.535 1.087-3.002.872-1.467 2.104-2.373a7.2 7.2 0 0 1 2.739-1.227 7.9 7.9 0 0 1 3.066-.066q1.578.268 3.119 1.183m-2.048 3.573a2.9 2.9 0 0 0-1.205-.394 2.95 2.95 0 0 0-1.273.138q-.617.204-1.175.642t-.972 1.135a4.2 4.2 0 0 0-.531 1.396 3.9 3.9 0 0 0-.005 1.387q.135.65.488 1.183.355.533.904.86.55.327 1.169.371a3.2 3.2 0 0 0 1.236-.159 3.7 3.7 0 0 0 1.179-.69q.55-.466.953-1.146.415-.696.55-1.385a3.5 3.5 0 0 0 .02-1.328 2.8 2.8 0 0 0-.452-1.162 2.6 2.6 0 0 0-.886-.848M238.891 562.553l4.386 2.293-5.02 9.605 5.521 2.886-1.908 3.649-9.907-5.179zM249.457 568.044l4.468 2.13-6.437 13.5-4.468-2.131zM262.962 580.439a5.16 5.16 0 0 0-.883-2.003q-.625-.872-1.429-1.215a2.8 2.8 0 0 0-1.246-.233 2.9 2.9 0 0 0-1.197.3 3.3 3.3 0 0 0-1.053.779 4.4 4.4 0 0 0-.751 1.21 4.7 4.7 0 0 0-.375 1.418q-.044.7.154 1.319.208.6.608 1.073.43.462 1.037.723.745.32 1.773.249a6 6 0 0 0 2.034-.521l1.426 3.93a9.1 9.1 0 0 1-2.395.714 9.6 9.6 0 0 1-2.499.09 7.9 7.9 0 0 1-2.28-.582q-1.588-.681-2.695-1.782a7.8 7.8 0 0 1-1.647-2.493 7.7 7.7 0 0 1-.547-2.949q.042-1.561.714-3.13.665-1.549 1.767-2.608a7.35 7.35 0 0 1 2.516-1.591 7.9 7.9 0 0 1 3.011-.474q1.6.058 3.208.748a8 8 0 0 1 1.983 1.221 9.2 9.2 0 0 1 1.642 1.748 7.7 7.7 0 0 1 1.087 2.067zM268.091 576.239l11.881 4.347-1.29 3.527-7.233-2.647-.631 1.723 6.572 2.405-1.29 3.526-6.572-2.405-.638 1.743 7.413 2.713-1.29 3.526-12.061-4.414zM303.613 587.215q2.844.672 4.078 2.41 1.239 1.717.651 4.209-.623 2.637-2.528 3.743-1.9 1.086-4.745.415l-4.112-.971 2.593-1.602-1.388 5.876-4.817-1.137 3.436-14.555zm-1.931 7.063q.79.187 1.312-.172.549-.375.745-1.205.191-.81-.142-1.349-.307-.555-1.096-.741l-3.862-.912 2.592-1.602-1.809 7.662-1.602-2.592zM317.571 589.691q1.765.309 3.138 1.132a7.9 7.9 0 0 1 2.285 2.045 7.15 7.15 0 0 1 1.257 2.731q.366 1.494.077 3.154a7.9 7.9 0 0 1-1.148 2.983 7.4 7.4 0 0 1-2.111 2.166 8.2 8.2 0 0 1-2.846 1.171q-1.57.31-3.336.003-1.765-.309-3.137-1.132a8.2 8.2 0 0 1-2.282-2.066 7.6 7.6 0 0 1-1.273-2.756q-.343-1.51-.05-3.192t1.124-2.966a7.2 7.2 0 0 1 2.124-2.12 7.9 7.9 0 0 1 2.843-1.15q1.57-.31 3.335-.003m-.644 4.067a2.9 2.9 0 0 0-1.267.061 2.95 2.95 0 0 0-1.141.581 3.9 3.9 0 0 0-.87 1.017 4 4 0 0 0-.505 1.406 4.2 4.2 0 0 0-.001 1.495q.134.716.488 1.298.357.56.877.932t1.15.482 1.225-.067a3.2 3.2 0 0 0 1.099-.588q.508-.432.856-1.064a4.5 4.5 0 0 0 .485-1.41 4.4 4.4 0 0 0 .021-1.49 3.5 3.5 0 0 0-.453-1.249 2.8 2.8 0 0 0-.835-.925 2.64 2.64 0 0 0-1.129-.479M326.17 591.48l4.915.584-1.28 10.762 6.187.735-.486 4.089-11.102-1.319zM337.991 592.855l4.933.401-1.212 14.907-4.933-.401zM355.021 599.631a5.2 5.2 0 0 0-1.538-1.557q-.894-.593-1.768-.627a2.8 2.8 0 0 0-1.248.226 2.9 2.9 0 0 0-1.011.706 3.3 3.3 0 0 0-.707 1.103q-.24.631-.27 1.398a4.7 4.7 0 0 0 .154 1.459q.207.67.613 1.178.408.486.951.786a3 3 0 0 0 1.225.306q.81.033 1.746-.399a6 6 0 0 0 1.715-1.211l2.732 3.165a9.1 9.1 0 0 1-1.984 1.521 9.7 9.7 0 0 1-2.303.973q-1.186.315-2.338.268-1.726-.07-3.153-.705a7.9 7.9 0 0 1-2.427-1.743 7.7 7.7 0 0 1-1.561-2.562q-.516-1.473-.447-3.179.069-1.684.723-3.066a7.3 7.3 0 0 1 1.785-2.383 8 8 0 0 1 2.645-1.515q1.515-.515 3.264-.443 1.15.047 2.288.435a9.2 9.2 0 0 1 2.156 1.049q1.02.66 1.752 1.544zM358.317 593.879l12.65-.168.05 3.754-7.701.103.024 1.835 6.998-.094.05 3.755-6.997.093.024 1.856 7.893-.105.05 3.754-12.842.171zM395.419 591.509q2.897-.385 4.669.799 1.769 1.164 2.107 3.701.358 2.686-1.029 4.399-1.388 1.692-4.286 2.077l-4.187.558 1.851-2.421.797 5.985-4.906.653-1.974-14.824zm.712 7.288q.804-.107 1.164-.629.38-.545.267-1.391-.11-.825-.613-1.21-.485-.408-1.288-.302l-3.934.524 1.852-2.42 1.039 7.803-2.421-1.851zM409.371 588.86q1.76-.339 3.335-.055t2.862 1.102a7.1 7.1 0 0 1 2.143 2.108q.873 1.266 1.192 2.921a7.9 7.9 0 0 1-.016 3.197 7.4 7.4 0 0 1-1.205 2.773 8.2 8.2 0 0 1-2.246 2.104q-1.358.848-3.118 1.186-1.76.339-3.335.054a8.2 8.2 0 0 1-2.866-1.122 7.6 7.6 0 0 1-2.168-2.125q-.857-1.29-1.179-2.967-.322-1.676-.001-3.172a7.2 7.2 0 0 1 1.234-2.735 7.9 7.9 0 0 1 2.25-2.083q1.358-.848 3.118-1.186m.84 4.031a2.9 2.9 0 0 0-1.163.506q-.518.36-.861.948a3.9 3.9 0 0 0-.453 1.26q-.126.697.027 1.494.148.775.529 1.397.38.622.917 1.041a3.4 3.4 0 0 0 1.15.561q.618.164 1.247.042a2.6 2.6 0 0 0 1.121-.497q.492-.378.819-.94a3.8 3.8 0 0 0 .424-1.298 4.5 4.5 0 0 0-.048-1.49 4.4 4.4 0 0 0-.508-1.401 3.5 3.5 0 0 0-.867-1.007 2.8 2.8 0 0 0-1.109-.569 2.64 2.64 0 0 0-1.225-.047M418.02 587.487l4.801-1.205 2.639 10.511 6.042-1.517 1.002 3.994-10.843 2.722zM429.584 584.554l4.755-1.373 4.151 14.368-4.755 1.373zM447.888 584.838a5.15 5.15 0 0 0-1.992-.907q-1.047-.235-1.876.043-.626.21-1.085.656a2.9 2.9 0 0 0-.693 1.02 3.3 3.3 0 0 0-.268 1.283q.002.674.245 1.403.252.748.664 1.307.432.553.993.882.553.31 1.168.397.627.059 1.254-.151.769-.258 1.49-.994.734-.764 1.171-1.743l3.68 1.984a9.1 9.1 0 0 1-1.312 2.128 9.7 9.7 0 0 1-1.805 1.73 7.8 7.8 0 0 1-2.09 1.083q-1.638.55-3.197.464a7.9 7.9 0 0 1-2.889-.764 7.7 7.7 0 0 1-2.371-1.838q-1.007-1.192-1.55-2.811-.536-1.598-.416-3.123a7.3 7.3 0 0 1 .818-2.862 8 8 0 0 1 1.932-2.358q1.233-1.02 2.892-1.576a8 8 0 0 1 2.293-.409 9.2 9.2 0 0 1 2.389.212 7.7 7.7 0 0 1 2.187.819zM448.921 578.289l11.761-4.662 1.383 3.49-7.159 2.838.676 1.706 6.505-2.579 1.384 3.491-6.506 2.579.685 1.725 7.338-2.909 1.383 3.491-11.939 4.733zM482.757 562.877q2.57-1.392 4.647-.916 2.068.457 3.287 2.709 1.29 2.383.604 4.477-.696 2.075-3.266 3.467l-3.715 2.011.869-2.921 2.875 5.31-4.352 2.356-7.122-13.151zm3.259 6.557q.712-.387.865-1.002.16-.645-.247-1.395-.396-.732-1.003-.913-.598-.21-1.312.177l-3.489 1.889.869-2.921 3.748 6.923-2.921-.869zM494.852 555.434q1.525-.942 3.098-1.237a7.9 7.9 0 0 1 3.066.01 7.15 7.15 0 0 1 2.754 1.207q1.266.872 2.153 2.306.885 1.434 1.123 2.993a7.4 7.4 0 0 1-.139 3.021 8.2 8.2 0 0 1-1.35 2.766q-.968 1.275-2.492 2.217t-3.097 1.238a8.2 8.2 0 0 1-3.078-.028 7.65 7.65 0 0 1-2.783-1.214q-1.26-.902-2.157-2.354t-1.13-2.963a7.2 7.2 0 0 1 .18-2.996 7.9 7.9 0 0 1 1.361-2.748q.967-1.275 2.491-2.218m2.22 3.469q-.544.336-.906.887a2.95 2.95 0 0 0-.468 1.191q-.104.642.026 1.339t.556 1.387q.415.672.992 1.118.576.446 1.227.645.639.183 1.275.115a2.76 2.76 0 0 0 2.05-1.268q.327-.527.431-1.169.094-.66-.065-1.364a4.5 4.5 0 0 0-.575-1.375 4.4 4.4 0 0 0-.974-1.129 3.5 3.5 0 0 0-1.168-.632 2.8 2.8 0 0 0-1.239-.137 2.64 2.64 0 0 0-1.162.392M502.447 551.073l4.057-2.835 6.207 8.884 5.107-3.568 2.358 3.376-9.164 6.402zM512.211 544.216l3.955-2.976 8.992 11.951-3.955 2.976zM529.436 537.973a5.16 5.16 0 0 0-2.184-.142q-1.061.151-1.738.706a2.8 2.8 0 0 0-.782.998 2.9 2.9 0 0 0-.286 1.2q-.033.633.204 1.293.24.631.727 1.225a4.7 4.7 0 0 0 1.084.988q.6.363 1.241.472.627.093 1.233-.043a3 3 0 0 0 1.119-.586q.627-.513 1.04-1.458a6 6 0 0 0 .477-2.044l4.145.55a9.1 9.1 0 0 1-.473 2.454 9.7 9.7 0 0 1-1.074 2.258 7.8 7.8 0 0 1-1.57 1.754q-1.337 1.094-2.825 1.567a7.8 7.8 0 0 1-2.972.31q-1.5-.15-2.868-.878-1.365-.758-2.446-2.078-1.068-1.305-1.497-2.772a7.3 7.3 0 0 1-.25-2.967 7.95 7.95 0 0 1 .971-2.889q.79-1.392 2.145-2.5a8 8 0 0 1 1.999-1.195 9.2 9.2 0 0 1 2.308-.649 7.7 7.7 0 0 1 2.336-.01zM528.062 531.497l9.331-8.544 2.536 2.77-5.681 5.201 1.239 1.353 5.161-4.726 2.536 2.77-5.161 4.725 1.254 1.369 5.821-5.331 2.536 2.77-9.472 8.673zM554.203 505.057q1.906-2.216 4.018-2.51 2.094-.309 4.035 1.361 2.054 1.767 2.159 3.968.088 2.187-1.818 4.403l-2.755 3.202-.228-3.039 4.576 3.938-3.228 3.752-11.337-9.754zm5.38 4.967q.529-.615.452-1.244-.08-.66-.727-1.217-.63-.542-1.263-.495-.634.017-1.162.632l-2.588 3.008-.229-3.039 5.968 5.135-3.039.228zM562.863 493.793q1.089-1.422 2.455-2.258a7.9 7.9 0 0 1 2.869-1.081 7.1 7.1 0 0 1 3.003.149q1.494.365 2.832 1.389a7.9 7.9 0 0 1 2.114 2.398q.773 1.343.945 2.872a8.2 8.2 0 0 1-.278 3.066q-.45 1.536-1.54 2.959-1.089 1.422-2.455 2.258a8.2 8.2 0 0 1-2.886 1.068 7.6 7.6 0 0 1-3.033-.145q-1.498-.394-2.853-1.432t-2.11-2.368a7.2 7.2 0 0 1-.898-2.864 7.9 7.9 0 0 1 .295-3.052q.45-1.536 1.54-2.959m3.308 2.452a2.9 2.9 0 0 0-.532 1.152 2.9 2.9 0 0 0-.012 1.28q.13.636.499 1.242.37.605 1.014 1.098.626.48 1.324.692a3.8 3.8 0 0 0 1.377.167 3.3 3.3 0 0 0 1.232-.346q.57-.289.96-.797.389-.509.506-1.118a3.2 3.2 0 0 0-.014-1.246 3.8 3.8 0 0 0-.546-1.251 4.5 4.5 0 0 0-1.027-1.081 4.4 4.4 0 0 0-1.311-.709 3.5 3.5 0 0 0-1.317-.175 2.8 2.8 0 0 0-1.206.312 2.65 2.65 0 0 0-.947.78M568.414 487.009l2.786-4.091 8.958 6.1 3.507-5.149 3.403 2.318-6.292 9.24zM575.088 477.157l2.632-4.192 12.666 7.951-2.631 4.192zM588.965 465.172a5.15 5.15 0 0 0-2.092.645q-.937.519-1.373 1.278a2.8 2.8 0 0 0-.375 1.212q-.054.608.16 1.222.194.605.651 1.137.45.503 1.115.885a4.7 4.7 0 0 0 1.365.537q.69.126 1.328 0a3.3 3.3 0 0 0 1.136-.48 3 3 0 0 0 .838-.946q.404-.703.453-1.732a6 6 0 0 0-.282-2.081l4.069-.961q.381 1.178.432 2.461a9.7 9.7 0 0 1-.2 2.493 7.8 7.8 0 0 1-.842 2.197q-.861 1.5-2.082 2.471a7.9 7.9 0 0 1-2.667 1.348 7.7 7.7 0 0 1-2.993.201q-1.545-.222-3.026-1.071-1.462-.839-2.386-2.058a7.3 7.3 0 0 1-1.289-2.683 7.9 7.9 0 0 1-.122-3.046q.244-1.581 1.114-3.099a8 8 0 0 1 1.443-1.829 9.2 9.2 0 0 1 1.926-1.428 7.7 7.7 0 0 1 2.179-.841zM585.392 459.581l5.702-11.294 3.352 1.693-3.471 6.875 1.638.827 3.154-6.247 3.351 1.693-3.154 6.246 1.657.837 3.558-7.046 3.352 1.692-5.789 11.465zM600.422 425.58q.998-2.748 2.867-3.771 1.85-1.03 4.256-.157 2.547.925 3.425 2.946.858 2.014-.14 4.761l-1.442 3.971-1.29-2.761 5.675 2.06-1.689 4.653-14.057-5.104zm6.791 2.738q.277-.762-.019-1.323-.308-.59-1.11-.88-.783-.284-1.356-.016-.587.241-.864 1.003l-1.354 3.73-1.29-2.761 7.4 2.687-2.761 1.29zM604.504 412.003q.511-1.717 1.489-2.985a7.9 7.9 0 0 1 2.296-2.032 7.15 7.15 0 0 1 2.859-.93q1.527-.192 3.142.289 1.615.48 2.829 1.488a7.4 7.4 0 0 1 1.906 2.347q.685 1.362.832 2.964.126 1.595-.385 3.313-.511 1.717-1.489 2.985a8.2 8.2 0 0 1-2.317 2.026 7.6 7.6 0 0 1-2.885.944q-1.54.165-3.177-.322-1.635-.486-2.815-1.46a7.2 7.2 0 0 1-1.858-2.356 7.9 7.9 0 0 1-.812-2.958q-.126-1.595.385-3.313m3.965 1.113a2.9 2.9 0 0 0-.087 1.265q.081.625.444 1.201.348.548.909.983t1.338.665q.756.225 1.484.174a3.8 3.8 0 0 0 1.346-.334 3.3 3.3 0 0 0 1.028-.762q.43-.474.613-1.087.181-.613.075-1.224a3.2 3.2 0 0 0-.457-1.16 3.7 3.7 0 0 0-.956-.974 4.5 4.5 0 0 0-1.344-.645 4.4 4.4 0 0 0-1.478-.195 3.6 3.6 0 0 0-1.293.305 2.8 2.8 0 0 0-1.016.722 2.6 2.6 0 0 0-.606 1.066M607.278 403.676l1.149-4.814 10.542 2.517 1.447-6.059 4.005.956-2.597 10.873zM610.019 392.074l.976-4.853 14.662 2.951-.977 4.852zM618.722 375.967a5.2 5.2 0 0 0-1.725 1.347q-.69.82-.827 1.684a2.8 2.8 0 0 0 .081 1.266q.167.588.584 1.086.397.494 1.014.829.6.311 1.358.43.78.124 1.466.016.69-.129 1.241-.474.53-.348.891-.853.342-.528.446-1.182.126-.8-.194-1.78a6 6 0 0 0-1.005-1.843l3.459-2.349a9 9 0 0 1 1.281 2.147q.508 1.16.701 2.4a7.9 7.9 0 0 1-.004 2.353q-.27 1.707-1.065 3.05a7.9 7.9 0 0 1-2.012 2.21 7.7 7.7 0 0 1-2.725 1.254q-1.523.343-3.209.077-1.665-.263-2.962-1.073a7.3 7.3 0 0 1-2.161-2.047 7.9 7.9 0 0 1-1.199-2.803q-.336-1.565-.063-3.293.18-1.137.696-2.222a9.2 9.2 0 0 1 1.291-2.021 7.7 7.7 0 0 1 1.737-1.562zM613.391 372.017l1.304-12.584 3.735.387-.794 7.661 1.825.189.721-6.961 3.735.387-.721 6.96 1.846.192.813-7.852 3.735.387-1.323 12.775zM102.084 238.648v-33.3h20.25v6.3h-13.1v6.65h10.85v6.1h-10.85v7.95h13.1v6.3zM133.715 238.648l-9.1-25.65 7.7-.7 5.7 18.55 5.45-17.95h7.55l-9.05 25.75zM166.377 239.398q-6.2 0-9.8-3.6t-3.6-10q0-4.2 1.55-7.25t4.35-4.7q2.85-1.65 6.65-1.65 5.6 0 8.6 3.6t3 10.4v.9q0 .4-.05.8h-17q1 5.4 7.15 5.4 1.9 0 3.85-.45 2-.5 3.5-1.3l1.15 5.65q-4.15 2.2-9.35 2.2m-6.35-16.8h10.35q-.15-2.15-1.5-3.4-1.35-1.3-3.6-1.3-2.15 0-3.55 1.25-1.35 1.251-1.7 3.45M182.4 238.648v-25.75h6.9v4.45q1.6-2.7 3.7-3.9 2.15-1.25 4.9-1.25 4.15 0 6.5 2.5 2.35 2.45 2.35 6.85v17.1h-7.05v-16q0-2.049-1-3.15-.999-1.1-2.7-1.1-2.05 0-3.85 1.55-1.749 1.5-2.7 3.75v14.95zM226.025 208.648v-6.5h8.05v6.5zm-3.9 30v-6.05h4.8v-13.65h-4.8v-6.05h11.85v19.7h4.3v6.05zM241.997 238.648v-6.05h4.55v-13.65h-4.55v-6.05h4.55v-3.15q0-3.75 2.4-6 2.45-2.3 6.4-2.3 2.8 0 6.2 1.4l-2.45 5.55q-1.7-.85-3.05-.85-2.45 0-2.45 2.55v2.8h6v6.05h-6v13.65h6v6.05zM279.214 249.848q-1.25 0-2.45-.3-1.15-.3-2.35-.8l1.05-5.8q1.9.95 3.2.95 1.65 0 2.4-1.15.8-1.15 1.6-3.35l-10.05-26.4 7.3-.6 6.15 18.45 5.7-17.95h6.95a448 448 0 0 1-5.1 14.65q-1.35 3.75-2.65 7.15a164 164 0 0 1-2.45 6q-1.15 2.65-2 4.2-1.35 2.4-3.05 3.65-1.7 1.3-4.25 1.3M313.832 239.398q-3.951 0-6.9-1.7t-4.6-4.75q-1.65-3.05-1.65-7.15t1.65-7.15 4.6-4.75 6.85-1.7q3.95 0 6.85 1.7 2.95 1.65 4.6 4.7 1.65 3 1.65 7.05 0 4.101-1.65 7.2-1.6 3.1-4.55 4.85-2.95 1.7-6.85 1.7m-.05-6.1q2.7 0 4.3-2.05 1.65-2.1 1.65-5.5t-1.65-5.4q-1.6-2.05-4.3-2.05t-4.35 2.05q-1.6 2.001-1.6 5.4t1.6 5.5q1.65 2.05 4.35 2.05M340.902 239.348q-4.101 0-6.45-2.5-2.35-2.55-2.35-6.85v-17.1h7.05v15.95q0 2.05 1 3.2.999 1.1 2.7 1.1 1.749 0 3.3-1.1t2.6-2.95v-16.2h7.05v25.75h-7.05v-3.4a12.1 12.1 0 0 1-3.15 2.95q-1.85 1.15-4.7 1.15M370.614 238.648l12.2-33.3h8.7l12.35 33.3h-7.5l-2.7-7.6h-13.1l-2.55 7.6zm12.05-13.8h8.85l-4.5-12.75zM407.499 238.648v-33.3q1.15-.05 2.6-.05h6.05q1.5 0 2.6.05 5.9.2 8.6 2.9 2.7 2.65 2.7 6.8 0 3.65-1.9 6.25-1.85 2.55-5.2 3.4 1.15.9 2.25 2.45 1.1 1.5 2.95 4.45.95 1.45 1.55 2.55.65 1.1 1.25 2.15.6 1 1.35 2.35h-8.4l-5.65-10.5q-.95-1.749-1.7-2.1-.75-.4-2.1-.4v13zm6.95-18.55h3.1q2.601 0 4.05-1.3 1.45-1.3 1.45-3.5 0-4.1-5.1-4.1h-3.5zM435.678 238.648v-33.3h20.25v6.3h-13.1v6.65h10.85v6.1h-10.85v7.95h13.1v6.3zM474.951 208.648v-6.5h8.05v6.5zm-3.9 30v-6.05h4.8v-13.65h-4.8v-6.05h11.85v19.7h4.3v6.05zM491.873 238.648v-25.75h6.9v4.45q1.6-2.7 3.7-3.9 2.15-1.25 4.9-1.25 4.15 0 6.5 2.5 2.35 2.45 2.35 6.85v17.1h-7.05v-16q0-2.049-1-3.15t-2.7-1.1q-2.05 0-3.85 1.55-1.75 1.5-2.7 3.75v14.95zM522.488 238.648v-25.75h6.9v4.45q1.6-2.7 3.7-3.9 2.15-1.25 4.9-1.25 4.15 0 6.5 2.5 2.35 2.45 2.35 6.85v17.1h-7.05v-16q0-2.049-1-3.15-.999-1.1-2.7-1.1-2.05 0-3.85 1.55-1.749 1.5-2.7 3.75v14.95zM565.248 239.398q-3.951 0-6.9-1.7t-4.6-4.75-1.65-7.15 1.65-7.15 4.6-4.75 6.85-1.7q3.95 0 6.85 1.7 2.95 1.65 4.6 4.7 1.65 3 1.65 7.05 0 4.101-1.65 7.2-1.6 3.1-4.55 4.85-2.95 1.7-6.85 1.7m-.05-6.1q2.7 0 4.3-2.05 1.65-2.1 1.65-5.5t-1.65-5.4q-1.6-2.05-4.3-2.05t-4.35 2.05q-1.6 2.001-1.6 5.4t1.6 5.5q1.65 2.05 4.35 2.05M595.768 239.398q-6.4 0-9.95-3.4-3.5-3.399-3.5-9.6 0-4.25 1.65-7.45t4.65-4.95q3-1.8 6.95-1.8 1.899 0 3.9.45 2 .4 3.1.95l-1.35 5.95a11.5 11.5 0 0 0-2.55-.85q-1.401-.35-2.55-.35-3.051 0-4.95 2.1t-1.9 5.55q0 3.501 1.95 5.4t5.45 1.9q2.35 0 5.05-.9l1.05 5.7q-1.701.65-3.45.95-1.7.35-3.55.35M619.697 239.398q-6.2 0-9.8-3.6t-3.6-10q0-4.2 1.55-7.25t4.35-4.7q2.85-1.65 6.65-1.65 5.6 0 8.6 3.6t3 10.4v.9q0 .4-.05.8h-17q1 5.4 7.15 5.4 1.9 0 3.85-.45 2-.5 3.5-1.3l1.15 5.65q-4.15 2.2-9.35 2.2m-6.35-16.8h10.35q-.15-2.15-1.5-3.4-1.35-1.3-3.6-1.3-2.15 0-3.55 1.25-1.35 1.251-1.7 3.45M635.721 238.648v-25.75h6.9v4.45q1.6-2.7 3.7-3.9 2.15-1.25 4.9-1.25 4.15 0 6.5 2.5 2.35 2.45 2.35 6.85v17.1h-7.05v-16q0-2.049-1-3.15t-2.7-1.1q-2.05 0-3.85 1.55-1.75 1.5-2.7 3.75v14.95zM675.298 239.398q-3.6 0-5.6-1.8-1.95-1.85-1.95-5.2v-13.45h-4v-6.05h4v-5.5q3.6-.6 7-.9v6.4h6.5v6.05h-6.5v12.15q0 2.15 2.4 2.15 1.4 0 3.2-.65l1.55 5.3q-3.201 1.5-6.6 1.5M688.331 248.448l-1.2-4.35a25 25 0 0 0 1.8-2.55 14 14 0 0 0 1.25-2.4l-2.9-4.35q0-1.149.6-2.25a5.3 5.3 0 0 1 1.75-1.8q1.15-.75 2.65-.75 2.1 0 3.6 1.5 1.55 1.5 1.55 3.9 0 1.6-.85 3.7-.85 2.15-2.85 4.55t-5.4 4.8M131.143 322.848q-1.25 0-2.45-.3-1.15-.3-2.35-.8l1.05-5.8q1.9.95 3.2.95 1.65 0 2.4-1.15.8-1.15 1.6-3.35l-10.05-26.4 7.3-.6 6.15 18.45 5.7-17.95h6.95a448 448 0 0 1-5.1 14.65q-1.35 3.75-2.65 7.15a166 166 0 0 1-2.45 6q-1.15 2.65-2 4.2-1.35 2.4-3.05 3.65-1.7 1.3-4.25 1.3M165.76 312.398q-3.95 0-6.9-1.7t-4.6-4.75-1.65-7.15 1.65-7.15 4.6-4.75 6.85-1.7q3.95 0 6.85 1.7 2.95 1.65 4.6 4.7 1.65 3 1.65 7.05 0 4.101-1.65 7.2-1.6 3.1-4.55 4.85-2.95 1.7-6.85 1.7m-.05-6.1q2.7 0 4.3-2.05 1.65-2.1 1.65-5.5t-1.65-5.4q-1.6-2.05-4.3-2.05t-4.35 2.05q-1.6 2.001-1.6 5.4t1.6 5.5q1.65 2.05 4.35 2.05M192.83 312.348q-4.1 0-6.45-2.5-2.35-2.55-2.35-6.85v-17.1h7.05v15.95q0 2.05 1 3.2 1 1.1 2.7 1.1 1.75 0 3.3-1.1t2.6-2.95v-16.2h7.05v25.75h-7.05v-3.4a12 12 0 0 1-3.15 2.95q-1.85 1.15-4.7 1.15M214.362 311.648v-25.75h7.05v4.2h.4q1.3-2.3 2.7-3.6 1.45-1.35 3.75-1.35.9 0 1.5.2l-.75 7.6a16 16 0 0 0-1.05-.25 5.4 5.4 0 0 0-1.05-.1q-1.85 0-2.95 1.1-1.1 1.05-2.55 2.85v15.1zM252.242 312.398q-4.3 0-6.8-3.3-2.5-3.35-2.5-9.3 0-7.1 3.65-10.85 3.7-3.75 10.5-3.75.7 0 1.3.05.6 0 1.25.05v-10.15h6.95v36.5h-6.85l.15-3.35h-.2q-2.65 4.1-7.45 4.1m1.6-6.15q1.6 0 3.1-1.35 1.5-1.4 2.7-3.95v-9.15q-1.7-.45-3.25-.45-3.15 0-4.8 2.05-1.6 2.05-1.6 6 0 3.2 1 5.05 1.05 1.8 2.85 1.8M280.5 312.398q-3.95 0-6.35-3.35-2.35-3.399-2.35-9.3 0-7.1 3.6-10.8 3.6-3.75 10.35-3.75 3.8 0 8.9 1.2v25.25h-6.7l.15-4.1h-.2q-2.6 4.85-7.4 4.85m1.5-6.15q1.65 0 3.15-1.75t2.7-4.3v-8.4a9 9 0 0 0-1.65-.35q-.85-.1-1.55-.1-6.05 0-6.05 8.1 0 3.15.9 5 .9 1.8 2.5 1.8M310.82 312.398q-3.6 0-5.6-1.8-1.95-1.85-1.95-5.2v-13.45h-4v-6.05h4v-5.5q3.6-.6 7-.9v6.4h6.5v6.05h-6.5v12.15q0 2.15 2.4 2.15 1.4 0 3.2-.65l1.55 5.3q-3.2 1.5-6.6 1.5M328.644 312.398q-3.95 0-6.35-3.35-2.35-3.399-2.35-9.3 0-7.1 3.6-10.8 3.6-3.75 10.35-3.75 3.8 0 8.9 1.2v25.25h-6.7l.15-4.1h-.2q-2.6 4.85-7.4 4.85m1.5-6.15q1.65 0 3.15-1.75t2.7-4.3v-8.4a9 9 0 0 0-1.65-.35q-.85-.1-1.55-.1-6.05 0-6.05 8.1 0 3.15.9 5 .9 1.8 2.5 1.8M371.036 312.398q-6.4 0-9.95-3.4-3.5-3.399-3.5-9.6 0-4.25 1.65-7.45t4.65-4.95q3-1.8 6.95-1.8 1.9 0 3.9.45 2 .4 3.1.95l-1.35 5.95a11.5 11.5 0 0 0-2.55-.85q-1.4-.35-2.55-.35-3.05 0-4.95 2.1t-1.9 5.55q0 3.501 1.95 5.4t5.45 1.9q2.35 0 5.05-.9l1.05 5.7q-1.7.65-3.45.95a17.5 17.5 0 0 1-3.55.35M390.265 312.398q-3.95 0-6.35-3.35-2.35-3.399-2.35-9.3 0-7.1 3.6-10.8 3.6-3.75 10.35-3.75 3.8 0 8.9 1.2v25.25h-6.7l.15-4.1h-.2q-2.6 4.85-7.4 4.85m1.5-6.15q1.65 0 3.15-1.75t2.7-4.3v-8.4a9 9 0 0 0-1.65-.35q-.85-.1-1.55-.1-6.05 0-6.05 8.1 0 3.15.9 5 .9 1.8 2.5 1.8M411.233 311.648v-25.75h6.9v4.45q1.6-2.7 3.7-3.9 2.15-1.25 4.9-1.25 4.15 0 6.5 2.5 2.35 2.45 2.35 6.85v17.1h-7.05v-16q0-2.049-1-3.15-.999-1.1-2.7-1.1-2.05 0-3.85 1.55-1.749 1.5-2.7 3.75v14.95zM451.858 311.648v-25.75h6.9v4q3.051-4.7 8.25-4.7 2.95 0 5 1.4 2.1 1.401 3.05 3.9 1.75-2.75 3.9-4 2.2-1.3 5-1.3 4.15 0 6.45 2.5 2.35 2.45 2.35 6.85v17.1h-7.05v-16q0-2.049-1-3.15-.95-1.1-2.6-1.1-2.1 0-3.85 1.7-1.7 1.701-2.55 4.35v14.2h-7.05v-16q0-2-1-3.1-1-1.15-2.65-1.15-1.8 0-3.45 1.4-1.65 1.35-2.65 3.85v15zM506.721 312.398q-3.95 0-6.35-3.35-2.35-3.399-2.35-9.3 0-7.1 3.6-10.8 3.6-3.75 10.35-3.75 3.8 0 8.9 1.2v25.25h-6.7l.149-4.1h-.199q-2.6 4.85-7.4 4.85m1.5-6.15q1.65 0 3.15-1.75t2.699-4.3v-8.4a9 9 0 0 0-1.649-.35q-.85-.1-1.55-.1-6.051 0-6.051 8.1 0 3.15.901 5 .9 1.8 2.5 1.8M544.185 312.398l-9.3-11.95v11.2h-7.05v-36.55h7.05v20.2l8.05-9.4h8.35l-10.3 11.55 10.85 13.9zM566.254 312.398q-6.2 0-9.8-3.6t-3.6-10q0-4.2 1.55-7.25t4.35-4.7q2.85-1.65 6.65-1.65 5.6 0 8.6 3.6t3 10.4v.9q0 .4-.05.8h-17q1 5.4 7.15 5.4 1.9 0 3.85-.45 2-.5 3.5-1.3l1.15 5.65q-4.15 2.2-9.35 2.2m-6.35-16.8h10.35q-.15-2.15-1.5-3.4-1.35-1.3-3.6-1.3-2.15 0-3.55 1.25-1.35 1.251-1.7 3.45M595.938 322.848q-1.25 0-2.45-.3-1.15-.3-2.35-.8l1.05-5.8q1.9.95 3.2.95 1.65 0 2.4-1.15.8-1.15 1.6-3.35l-10.05-26.4 7.3-.6 6.15 18.45 5.7-17.95h6.95a448 448 0 0 1-5.1 14.65q-1.35 3.75-2.65 7.15a166 166 0 0 1-2.45 6q-1.15 2.65-2 4.2-1.35 2.4-3.05 3.65-1.7 1.3-4.25 1.3M630.555 312.398q-3.95 0-6.9-1.7t-4.6-4.75-1.65-7.15 1.65-7.15 4.6-4.75 6.85-1.7q3.95 0 6.85 1.7 2.95 1.65 4.6 4.7 1.65 3 1.65 7.05 0 4.101-1.65 7.2-1.6 3.1-4.55 4.85-2.95 1.7-6.85 1.7m-.05-6.1q2.7 0 4.3-2.05 1.65-2.1 1.65-5.5t-1.65-5.4q-1.6-2.05-4.3-2.05t-4.35 2.05q-1.6 2.001-1.6 5.4t1.6 5.5q1.65 2.05 4.35 2.05M657.625 312.348q-4.1 0-6.45-2.5-2.35-2.55-2.35-6.85v-17.1h7.05v15.95q0 2.05 1 3.2 1 1.1 2.7 1.1 1.75 0 3.3-1.1t2.6-2.95v-16.2h7.05v25.75h-7.05v-3.4a12 12 0 0 1-3.15 2.95q-1.85 1.15-4.7 1.15M263.672 384.648v-6.05h4.55v-24.45h-4.3v-6h11.35v30.45h4.55v6.05zM360.86 385.398l-9.3-11.95v11.2h-7.05v-36.55h7.05v20.2l8.05-9.4h8.35l-10.3 11.55 10.85 13.9zM390.116 395.998q-1.8 0-4.1-.25a29 29 0 0 1-4.6-.9l1.35-6.2a47 47 0 0 0 4.05 1q2 .4 3.95.4 2.6 0 3.95-.85 1.4-.8 1.95-2.55t.65-4.55h-.15q-2.85 3.3-7.3 3.3-4.401 0-6.9-3.3-2.45-3.35-2.45-9.25 0-7.15 3.7-10.9 3.699-3.75 10.5-3.75 2.05 0 4.45.35 2.4.3 4.95.85.05 3.85.05 7.75.05 3.9.05 7.75v3.5q0 1.75-.05 3.5-.1 7.1-3.55 10.6t-10.5 3.5m1.6-16.75q1.6 0 2.95-1.15 1.4-1.2 2.5-3.25v-10.05q-1.65-.45-3.2-.45-3.201 0-4.8 2.05-1.6 2.05-1.6 5.95 0 3.25 1.05 5.1 1.1 1.8 3.1 1.8M419.417 385.348q-4.1 0-6.45-2.5-2.35-2.55-2.35-6.85v-17.1h7.05v15.95q0 2.05 1 3.2 1 1.1 2.7 1.1 1.75 0 3.3-1.1t2.6-2.95v-16.2h7.05v25.75h-7.05v-3.4a12 12 0 0 1-3.15 2.95q-1.85 1.15-4.7 1.15M443.799 354.648v-6.5h8.05v6.5zm-3.9 30v-6.05h4.8v-13.65h-4.8v-6.05h11.85v19.7h4.3v6.05zM459.571 384.648v-6.05h4.55v-24.45h-4.3v-6h11.35v30.45h4.55v6.05zM489.067 385.398q-3.6 0-5.6-1.8-1.95-1.85-1.95-5.2v-13.45h-4v-6.05h4v-5.5q3.6-.6 7-.9v6.4h6.5v6.05h-6.5v12.15q0 2.15 2.4 2.15 1.4 0 3.2-.65l1.55 5.3q-3.2 1.5-6.6 1.5M504.947 395.848q-1.25 0-2.45-.3-1.15-.3-2.35-.8l1.05-5.8q1.9.95 3.2.95 1.65 0 2.4-1.15.8-1.15 1.6-3.35l-10.05-26.4 7.3-.6 6.15 18.45 5.7-17.95h6.95a448 448 0 0 1-5.1 14.65q-1.35 3.75-2.65 7.15a166 166 0 0 1-2.45 6q-1.15 2.65-2 4.2-1.35 2.4-3.05 3.65-1.7 1.3-4.25 1.3M530.031 386.348q-2.1 0-3.65-1.55-1.5-1.5-1.5-3.6 0-2.15 1.5-3.65 1.55-1.55 3.65-1.55 2.15 0 3.65 1.55 1.5 1.5 1.5 3.65 0 2.1-1.5 3.6-1.5 1.55-3.65 1.55"/><path fill="#ff5353" d="M308.447 374.59c0 .789-3.417 1.84-6.046 1.84s-5.52-1.84-5.52-2.365c0-.789 1.84-3.155 6.046-3.418 2.366-.263 4.994 1.315 5.52 3.943m12.355-3.943c-2.629-.263-4.995 1.315-5.52 3.943 0 .789 3.154 1.84 6.046 1.84 2.891 0 5.52-1.84 5.52-2.365s-1.84-3.155-6.046-3.418m17.35 2.629c0 14.458-11.83 26.287-26.288 26.287s-26.287-11.829-26.287-26.287 11.829-26.287 26.287-26.287 26.288 11.829 26.288 26.287m-5.258-2.103c0-5.257-1.84-7.098-8.675-7.098-6.834 0-8.937 2.892-12.355 2.892-3.417 0-5.257-2.892-12.355-2.892-7.097 0-8.674 1.578-8.674 7.098 0 8.938 3.943 13.932 9.463 13.932 4.206 0 7.36-5.257 11.566-5.257s7.098 5.257 11.567 5.257c5.52 0 9.463-4.994 9.463-13.932"/></svg>