<svg xmlns="http://www.w3.org/2000/svg" xmlns:xlink="http://www.w3.org/1999/xlink" width="800" height="800" fill="none" viewBox="0 0 800 800"><path fill="#fff" d="M0 0h800v800H0z"/><path fill="url(#a)" d="M26.867 380.36c0-24.981 20.251-45.233 45.233-45.233h655.8c24.982 0 45.233 20.252 45.233 45.233 0 24.982-20.251 45.234-45.233 45.234H72.1c-24.982 0-45.233-20.252-45.233-45.234" opacity=".1"/><path fill="#000" d="M199.346 394h-10.2v-3.6h3v-31.8h-3V355h10.2v3.6h-3v31.8h3zM209.521 394v-39h9.66q4.8 0 7.14 2.28 2.4 2.22 2.4 6.12v22.2q0 3.9-2.34 6.18-2.34 2.22-7.2 2.22zm15-30.6q0-1.74-1.38-3.24-1.32-1.56-3.96-1.56h-5.46v31.8h5.46q2.7 0 4.02-1.5t1.32-3.3zM239.814 394v-39h17.1v3.6h-12.9v13.8h10.5v3.6h-10.5v14.4h13.5v3.6zM266.532 394v-39h4.02l13.2 30v-30h4.2v39h-4.02l-13.2-30v30zM315.531 358.6h-7.8V394h-4.2v-35.4h-7.8V355h19.8zM331.71 394h-10.2v-3.6h3v-31.8h-3V355h10.2v3.6h-3v31.8h3zM357.484 358.6h-7.8V394h-4.2v-35.4h-7.8V355h19.8zM370.663 394v-13.98l-9.9-25.02h4.44l7.56 20.1 7.56-20.1h4.44l-9.9 25.08V394zM420.803 383.2h4.2v3.3q0 3.9-2.4 6.18-2.4 2.22-7.44 2.22t-7.5-2.22q-2.46-2.28-2.46-6.18v-24q0-3.9 2.4-6.12 2.4-2.28 7.44-2.28t7.5 2.28q2.46 2.22 2.46 6.12v5.7h-4.2v-5.7q0-2.28-1.44-3.54-1.38-1.26-4.32-1.26-2.88 0-4.26 1.26t-1.38 3.54v24q0 2.22 1.38 3.54 1.44 1.26 4.38 1.26 2.88 0 4.26-1.26 1.38-1.32 1.38-3.54zM455.017 386.5q0 3.9-2.52 6.18-2.46 2.22-7.62 2.22t-7.74-2.22q-2.52-2.28-2.52-6.18v-24q0-3.9 2.46-6.12 2.52-2.28 7.68-2.28t7.68 2.28q2.58 2.22 2.58 6.12zm-4.2-24q0-2.28-1.5-3.54t-4.56-1.26q-3 0-4.5 1.26-1.44 1.26-1.44 3.54v24q0 2.22 1.5 3.54 1.5 1.26 4.56 1.26 3 0 4.44-1.26 1.5-1.26 1.5-3.54zM466.103 355h4.2v35.4h10.98v3.6h-15.18zM488.486 355h4.2v35.4h10.98v3.6h-15.18zM510.868 394v-39h17.1v3.6h-12.9v13.8h10.5v3.6h-10.5v14.4h13.5v3.6zM552.287 383.2h4.2v3.3q0 3.9-2.4 6.18-2.4 2.22-7.44 2.22t-7.5-2.22q-2.46-2.28-2.46-6.18v-24q0-3.9 2.4-6.12 2.4-2.28 7.44-2.28t7.5 2.28q2.46 2.22 2.46 6.12v5.7h-4.2v-5.7q0-2.28-1.44-3.54-1.38-1.26-4.32-1.26-2.88 0-4.26 1.26t-1.38 3.54v24q0 2.22 1.38 3.54 1.44 1.26 4.38 1.26 2.88 0 4.26-1.26 1.38-1.32 1.38-3.54zM582.601 358.6h-7.8V394h-4.2v-35.4h-7.8V355h19.8zM598.78 394h-10.2v-3.6h3v-31.8h-3V355h10.2v3.6h-3v31.8h3zM628.454 386.5q0 3.9-2.52 6.18-2.46 2.22-7.62 2.22t-7.74-2.22q-2.52-2.28-2.52-6.18v-24q0-3.9 2.46-6.12 2.52-2.28 7.68-2.28t7.68 2.28q2.58 2.22 2.58 6.12zm-4.2-24q0-2.28-1.5-3.54t-4.56-1.26q-3 0-4.5 1.26-1.44 1.26-1.44 3.54v24q0 2.22 1.5 3.54 1.5 1.26 4.56 1.26 3 0 4.44-1.26 1.5-1.26 1.5-3.54zM639.54 394v-39h4.02l13.2 30v-30h4.2v39h-4.02l-13.2-30v30zM133.053 387.262a1 1 0 0 1 2 0v5.159h5.16a1 1 0 0 1 0 2h-6.16a1 1 0 0 1-1-1zm36.956 0a1 1 0 1 1 2 0v6.159a1 1 0 0 1-1 1h-6.16a1 1 0 1 1 0-2h5.16zm-22.584-2.053v-4.469a1 1 0 1 1 2 0v4.469a1 1 0 0 1-2 0m8.212 0v-10.567c0-1.478-1.317-2.805-3.106-2.805s-3.106 1.327-3.106 2.805v1.63a1 1 0 0 1-2 0v-1.63c0-2.723 2.358-4.805 5.106-4.805s5.106 2.082 5.106 4.805v10.567a1 1 0 0 1-2 0m-14.372-2.053v-9.524c0-1.179.232-2.311.66-3.36a1 1 0 0 1 1.852.754 6.9 6.9 0 0 0-.512 2.606v9.524a1 1 0 1 1-2 0m20.532 0v-6.539a1 1 0 1 1 2 0v6.539a1 1 0 0 1-2 0m-9.266-19.478c5.048 0 9.424 2.949 10.814 7.154a1 1 0 1 1-1.898.627c-1.081-3.268-4.602-5.781-8.916-5.781h-.006a10.3 10.3 0 0 0-5.198 1.376 1 1 0 0 1-.999-1.733 12.3 12.3 0 0 1 6.203-1.643m-19.478-1.053v-6.159a1 1 0 0 1 1-1h6.16a1 1 0 0 1 0 2h-5.16v5.159a1 1 0 1 1-2 0m36.956 0v-5.159h-5.16a1 1 0 1 1 0-2h6.16a1 1 0 0 1 1 1v6.159a1 1 0 1 1-2 0"/><g filter="url(#b)"><path fill="#cecece" d="m693.453 374.488-563.37 35.879.05 15.899 566.452 8.633z"/></g><path fill="#bbb" d="M120.877 421.988c-1.016-6.211 3.87-11.809 10.161-11.624 73.168 2.155 455.542 12.826 540.308 3.039 4.076-.47 7.146-3.635 8.099-7.627 16.508-69.144 27.53-5.96 30.989 19.279.721 5.253-2.927 10.005-8.16 10.862L148.14 526.628c-5.45.892-10.592-2.803-11.484-8.253z"/><mask id="c" width="591" height="153" x="120" y="374" maskUnits="userSpaceOnUse" style="mask-type:alpha"><path fill="#383838" d="M120.877 421.988c-1.016-6.211 3.87-11.809 10.161-11.624 73.168 2.155 455.542 12.826 540.308 3.039 4.076-.47 7.146-3.635 8.099-7.627 16.508-69.144 27.53-5.96 30.989 19.279.721 5.253-2.927 10.005-8.16 10.862L148.14 526.628c-5.45.892-10.592-2.803-11.484-8.253z"/></mask><g mask="url(#c)"><path fill="#cecece" d="m136.645 518.31-15.778-96.387c-1.017-6.211 3.87-11.809 10.161-11.624 73.168 2.155 453.925 2.958 538.691-6.829 3.949-.456 6.949-3.456 8.031-7.264l.1-.37c17.286-69.673 28.051-2.67 32.485 29.027l.056.495c.44 4.944-2.912 9.382-7.771 10.423l-.49.093-.97-5.921c2.157-.354 3.511-2.268 3.233-4.26-2.229-15.931-2.332-17.838-8.737-36.618-1.6-4.691-3.164-8.195-4.592-10.385a15 15 0 0 0-.446-.644c-.308.446-.67 1.034-1.075 1.803-1.753 3.325-6.712 9.185-8.833 17.731-1.477 5.954-3.302 11.042-10.302 11.85-42.87 4.95-160.145 4.708-275.28 2.997-115.379-1.714-228.873 2.395-265.467 1.317-2.509-.074-3.282 4.711-2.873 7.21l15.779 96.387a4 4 0 0 0 4.593 3.301l.97 5.921-.51.071a10 10 0 0 1-10.879-7.818zm564.515-88.357.97 5.921-554 90.689-.97-5.921z"/></g><mask id="d" width="591" height="153" x="120" y="374" maskUnits="userSpaceOnUse" style="mask-type:alpha"><path fill="#383838" d="M120.904 422.152c-1.016-6.211 3.87-11.809 10.161-11.624 73.168 2.155 455.542 12.826 540.307 3.039 4.077-.47 7.147-3.635 8.1-7.627 16.507-69.144 27.529-5.96 30.989 19.279.72 5.253-2.927 10.005-8.16 10.862l-554.134 90.711c-5.45.892-10.592-2.803-11.484-8.253z"/></mask><g fill="#000" mask="url(#d)"><path d="M240.332 471.925q-1.751.238-3.325-.911-1.515-1.106-1.881-3.785-.147-1.081-.021-2.463a5.1 5.1 0 0 1-1.565-1.466q-.597-.916-.688-1.586-.004-.419.63-.768.685-.356 2.358-.794a402 402 0 0 1 2.241-10.12 299 299 0 0 1 3.231-12.091q.436-1.425 1.518-1.572.463-.063 1.014.124-.307-1.48-.607-2.909-.22-1.228.218-1.866.489-.645 1.314-.757 1.03-.14 2.321.471 1.29.61 2.356 1.883 1.066 1.272 1.384 3.222.318 1.951.998 5.007a471 471 0 0 0 1.621 6.497q.89 3.447 1.817 6.785 1.104.006 2.321.47 1.263.405 2.214 1.22.944.764 1.098 1.897.112.825-.426 1.108-.539.283-1.415.403l-1.236.169-.515.07-.464.063a92 92 0 0 0 1.328 3.965q.585 1.599.965 2.073.38.473-.272 1.086-.651.614-1.578.74-1.752.24-3.26-.815-1.509-1.053-2.546-4.428a8 8 0 0 1-.288-.958l-9.431 2.808q-.328 1.83-.663 3.607-.23 1.396-.175 2.176.105.773.089 1.037-.01.316-.68.408m5.95-25.636a347 347 0 0 0-1.597 5.991q-.753 2.937-1.47 5.764l6.166-1.733q-.815-2.514-1.623-4.975a210 210 0 0 1-1.476-5.047M273.751 465.844a8.8 8.8 0 0 1-4.262-.468q-2.106-.815-3.331-2.484-1.518-.738-2.52-2.701-1.01-2.013-1.396-4.847-.45-3.298-.227-7.054a42.5 42.5 0 0 1 1.091-7.392q.913-3.693 2.491-6.742 1.623-3.108 3.871-5.094 2.293-2.045 5.281-2.452 1.701-.232 2.993.011 1.338.185 2.572 1.539 2.05.402 3.091 1.887 1.036 1.433 1.268 3.134a8.1 8.1 0 0 1-.34 3.667 52 52 0 0 0-1.049 4.237q-.135.543-.351.887-.164.337-.731.415-.824.112-2.063-.506t-2.284-1.735q-.993-1.124-1.168-2.412-.12-.876.147-2.382.26-1.557.991-3.127-1.921.158-3.417 1.883-1.503 1.675-2.595 4.448-1.04 2.766-1.672 6.211a49 49 0 0 0-.655 7.122q-.083 3.632.375 6.981.315.01.625-.033l.618-.084a17 17 0 0 0 3.853-.998 23.4 23.4 0 0 0 3.726-1.925l-.328-3.944q-1.148.052-2.387-.566a9.3 9.3 0 0 1-2.138-1.441q-.906-.873-.991-1.492-.084-.618.08-.955.209-.396.864-.59a57 57 0 0 1 3.286-.921 72 72 0 0 1 3.756-.932 80 80 0 0 1 3.513-.794 48 48 0 0 1 2.665-.469q1.03-.14 2.279.162a10.3 10.3 0 0 1 2.363.78q1.173.522 1.949 1.203.768.63.852 1.249.126.927-.302 1.248-.429.32-1.407.454-1.134.155-3.064.628-1.937.421-4.028.864.012 5.09.464 10.328.445 5.188 1.141 10.289.063.463-.276.667-.288.197-.752.26-2.524.345-4.506-1.485-1.923-1.784-2.258-5.779l-.122-1.663q-.946.759-2.067 1.384t-2.118 1.024q-.936.442-1.4.505"/><path d="M302.082 461.98q-1.443.197-3.073-.211-1.623-.356-2.52-1.545-1.585-.466-2.452-1.818-.822-1.409-.965-3.227-.437-6.29-1.031-12.56-.592-6.269-.721-12.602a14.7 14.7 0 0 1-2.129-1.756q-.928-1.028-1.033-1.801-.112-.825.866-.958a45 45 0 0 0 2.356-.426q1.627-.38 3.565-.801a79 79 0 0 1 3.719-.823q1.782-.4 2.812-.541 2.989-.407 4.956.164 2.019.564 3.07 1.733 1.097 1.11 1.286 2.501.07.516-.445.586l-.876.119a7 7 0 0 0-.831.061 48 48 0 0 0-4.808.918q-2.49.603-4.611 1.207.092 4.133.365 8.452 2.38-.64 4.183-.886.772-.105 1.867.218a10 10 0 0 1 2.208.801 8.6 8.6 0 0 1 1.846 1.218q.768.63.852 1.248.126.927-.302 1.248-.429.321-1.407.455-.929.126-2.445.543-1.467.41-3.183.907-1.673.438-3.152.744.182 2.495.424 5.033.234 2.487.52 4.968 1.923-1.68 3.768-2.771 1.839-1.143 3.384-1.354 1.03-.14 2.403.302a8.9 8.9 0 0 1 2.478 1.237q1.098.741 1.204 1.515.09.669-.492 1.011zM343.982 456.317q-1.494.204-2.698-.157-1.145-.315-2.309-1.154-4.092-.754-5.16-5.122l-6.837-29.349q.328-.675 1.616-.85 1.443-.197 2.895.445 1.503.634 2.634 2.002 1.176 1.31 1.605 3.297l4.792 21.284.155-.021q1.067-2.56 2.03-5.893.955-3.384 1.78-6.96a175 175 0 0 0 1.419-6.911q.646-3.342 1.044-5.811.45-2.475.618-3.548.054-.374.483-.695.473-.38 1.142-.471.98-.133 2.029.248a4.1 4.1 0 0 1 1.897 1.211q.795.836.986 2.227.048.36.054.78.005.419-.087.904a78 78 0 0 1-.522 2.328 415 415 0 0 1-1.141 4.721q-.665 2.82-1.561 6.249a1935 1935 0 0 1-1.883 6.974 245 245 0 0 1-2.03 7.047 124 124 0 0 1-1.981 6.253q-.12.279-.342.572-.165.336-.628.4M369.907 452.728q-1.443.197-3.072-.21-1.623-.357-2.521-1.546-1.585-.466-2.452-1.817-.822-1.41-.965-3.227a505 505 0 0 0-1.031-12.56q-.592-6.27-.721-12.602a14.7 14.7 0 0 1-2.129-1.757q-.928-1.027-1.033-1.801-.112-.824.866-.957a44 44 0 0 0 2.356-.427q1.628-.38 3.565-.801a81 81 0 0 1 3.719-.822q1.782-.4 2.812-.541 2.99-.408 4.956.164 2.019.564 3.07 1.732 1.097 1.11 1.286 2.502.07.514-.445.585l-.876.12a7 7 0 0 0-.831.061 48 48 0 0 0-4.808.918q-2.49.601-4.611 1.206.092 4.134.365 8.452 2.38-.639 4.183-.885.773-.106 1.867.218a10 10 0 0 1 2.208.8 8.7 8.7 0 0 1 1.846 1.218q.768.63.852 1.248.127.928-.302 1.249-.429.32-1.407.454-.929.127-2.445.543-1.467.41-3.183.907a64 64 0 0 1-3.152.745q.183 2.494.424 5.033.234 2.487.52 4.967 1.923-1.68 3.768-2.771 1.839-1.143 3.384-1.354 1.03-.14 2.403.302a9 9 0 0 1 2.478 1.237q1.098.743 1.204 1.515.091.67-.492 1.012zM392.987 449.528q-.773.105-1.829-.328-1.049-.382-2.204-1.536-1.103-1.162-2.023-3.293t-1.378-5.48a181 181 0 0 1-.634-5.424q-.354-3.363-.631-7.314a336 336 0 0 1-.368-8.084 9.8 9.8 0 0 1-2.496-1.759q-1.104-1.162-1.279-2.45-.063-.464.225-.66.28-.249.641-.298a44 44 0 0 0 3.38-.618 1650 1650 0 0 1 4.028-.864 50 50 0 0 1 3.637-.654q2.937-.4 5.543.241 2.6.59 4.673 1.934 2.117 1.286 3.4 3 1.276 1.663 1.516 3.415.217 1.597-.651 4.077-.818 2.474-2.778 5.417-1.909 2.937-4.978 5.822l18.574 16.518q.294.222.555.606t.312.745q.098.721-.829.848-.772.105-2.155-.021a14.4 14.4 0 0 1-2.915-.6 9.3 9.3 0 0 1-2.691-1.26l-16.795-11.931.326 3.157q.151 1.5.328 2.789l.224 1.649q.157.765.3 1.428l.007.052q.057.412-.283.616a2 2 0 0 1-.752.26m3.285-33.249q-1.03.14-2.195.457-1.112.308-2.173.611.014 3.567.164 7.745.144 4.126.331 8.194 2.536-2.182 4.089-4.651 1.545-2.52 2.119-4.855.625-2.342.379-4.145-.19-1.392-.89-2.293-.649-.909-1.824-1.063"/><path d="M421.607 445.624q-1.03.14-2.602-.222-1.514-.32-2.829-1.504-1.265-1.192-1.581-3.51-.323-2.37-.558-6.012-.242-3.693-.522-8.064a345 345 0 0 0-.584-8.894 151 151 0 0 0-.909-8.588q-.056-.412.541-.651.591-.29 1.569-.424 1.03-.14 2.403.302 1.417.384 2.593 1.693 1.169 1.257 1.52 3.834.147 1.081.351 3.73.256 2.642.527 6.174.273 3.531.483 7.386.263 3.847.445 7.497.177 3.598.181 6.325.003.787-1.028.928M437.697 443.482q-.824.113-1.845-.064-1.021-.175-2.068-.925-1.054-.8-1.897-2.365-.8-1.623-1.171-4.354l-.106-.772a7 7 0 0 1-.061-.832l-.611-9.101q-1.075-.955-1.167-1.625-.162-1.185.944-1.546l-.736-10.396a14 14 0 0 1-2.15-1.91q-.993-1.125-1.105-1.949t.866-.958q.721-.098 2.356-.426 1.627-.38 3.565-.801a178 178 0 0 1 3.726-.771q1.782-.4 2.812-.541 4.122-.562 6.577.887 2.447 1.399 2.735 3.511.07.515-.445.585l-.876.12a7 7 0 0 0-.831.061 47 47 0 0 0-4.705.904q-2.438.595-4.567 1.148l.448 8.283a33 33 0 0 1 2.459-.44q.772-.106 1.866.217 1.138.266 2.209.801a8.7 8.7 0 0 1 1.845 1.218q.77.63.853 1.248.126.928-.302 1.249-.429.32-1.408.454-1.185.162-3.152.745-1.974.531-4 1.07l.97 16.347q.012.47-.276.668-.288.196-.752.26M460.702 440.291q-1.03.141-2.602-.222-1.514-.318-2.829-1.504-1.264-1.191-1.581-3.51-.323-2.37-.558-6.012-.242-3.693-.522-8.063a346 346 0 0 0-.584-8.895 151 151 0 0 0-.909-8.588q-.056-.413.541-.651.591-.29 1.569-.424 1.03-.14 2.403.302 1.417.384 2.593 1.693 1.169 1.258 1.52 3.834.147 1.082.351 3.731.256 2.642.528 6.173t.482 7.387q.263 3.848.445 7.496.177 3.597.181 6.326.003.787-1.028.927M479.413 437.739q-1.443.196-3.178.171a9.6 9.6 0 0 1-3.291-.653q-1.606-.621-2.707-2.15-1.518-.738-2.52-2.7-1.01-2.014-1.396-4.848-.45-3.297-.279-7.047a46 46 0 0 1 1.039-7.384q.863-3.687 2.337-6.722 1.52-3.093 3.665-5.066 2.19-2.03 5.024-2.417 1.7-.231 2.993.012 1.337.185 2.571 1.539 2.153.389 3.216 2.028t1.206 3.456q.181 1.707-.445 4.049a76 76 0 0 0-1.109 4.56 3.1 3.1 0 0 1-.352.888q-.164.337-.73.415-1.186.161-2.431-.509a7 7 0 0 1-2.085-1.815q-.838-1.145-1-2.33-.183-1.34.066-3.367.292-2.087 1.081-3.612-1.613.483-2.889 2.284-1.226 1.794-2.103 4.59-.834 2.737-1.274 6.052a57 57 0 0 0-.478 6.887q.015 3.568.471 6.916 2.577-.351 4.48-1.398 1.956-1.055 3.333-2.501a18 18 0 0 0 2.321-2.994 83 83 0 0 0 1.761-2.864q2.162.072 2.555 2.958.429 3.143-.738 6.136a12.7 12.7 0 0 1-3.568 5q-2.352 2.001-5.546 2.436M499.406 436.586q-1.752.24-3.326-.911-1.515-1.105-1.88-3.784-.149-1.082-.021-2.464a5.1 5.1 0 0 1-1.565-1.466q-.597-.916-.689-1.585-.005-.42.63-.769.687-.356 2.359-.794.948-4.59 2.241-10.119a299 299 0 0 1 3.231-12.092q.435-1.424 1.518-1.571.464-.064 1.014.124-.307-1.48-.607-2.909-.22-1.23.218-1.867a1.9 1.9 0 0 1 1.313-.756q1.03-.141 2.321.471 1.291.611 2.356 1.882 1.066 1.272 1.385 3.223t.998 5.007a388.493 388.493 0 0 0 3.438 13.281q1.103.007 2.321.471 1.263.404 2.213 1.22.944.763 1.099 1.897.113.824-.427 1.107-.538.284-1.414.403l-1.237.169-.515.07-.464.064a93 93 0 0 0 1.328 3.964q.586 1.6.965 2.073.38.473-.271 1.087-.65.614-1.579.74-1.75.239-3.26-.815-1.508-1.054-2.546-4.429a9 9 0 0 1-.288-.957l-9.431 2.808a406 406 0 0 1-.662 3.607q-.23 1.395-.176 2.175.105.773.089 1.038-.009.316-.679.407m5.95-25.635a347 347 0 0 0-1.597 5.991q-.754 2.937-1.471 5.763l6.167-1.733q-.816-2.513-1.623-4.974a203 203 0 0 1-1.476-5.047M533.247 430.448q-1.237.17-2.799-.51t-2.778-2.665q-1.215-1.986-1.508-5.672l-1.736-20.809q-.81.216-1.628.38l-1.494.204a7.2 7.2 0 0 1-3.74-.487q-1.782-.754-3.003-2.005-1.169-1.258-1.337-2.494-.12-.876.911-1.016.618-.086 2.297-.471 1.68-.387 3.867-.895l4.478-1.031q2.29-.522 4.124-.93 1.885-.414 2.761-.534 1.494-.204 3.176.197a11.5 11.5 0 0 1 3.147 1.145q1.518.738 2.556 1.803 1.03 1.014 1.178 2.096.077.567-.49.644l-.927.127q-.42.005-.883.068a62 62 0 0 0-3.541.588q-1.79.349-3.52.742l2.31 30.019q.048.729-.278 1.036-.267.351-1.143.47M554.238 427.533q-1.03.14-2.602-.223-1.512-.318-2.829-1.503-1.264-1.192-1.581-3.511-.323-2.37-.557-6.012a6691 6691 0 0 1-.523-8.063 346 346 0 0 0-.584-8.895 149 149 0 0 0-.909-8.588q-.056-.411.541-.651.591-.29 1.569-.424 1.03-.14 2.403.302 1.417.385 2.593 1.693 1.169 1.259 1.52 3.834.148 1.083.351 3.731.256 2.642.528 6.173t.482 7.387q.263 3.848.446 7.496.176 3.598.18 6.326.003.787-1.028.928M574.457 424.88a10 10 0 0 1-3.213-.087q-1.615-.304-2.733-1.569-4.176-1.372-6.368-4.747-2.148-3.433-2.921-9.101a31.2 31.2 0 0 1-.098-7.648q.473-3.844 1.913-7.136 1.44-3.294 3.925-5.469 2.529-2.235 6.084-2.719a12.2 12.2 0 0 1 4.007.135q2.049.403 3.18 1.771 2.541.545 4.024 2.18 1.482 1.635 2.253 4.206.822 2.565 1.286 5.965a32 32 0 0 1 .218 6.215 32.4 32.4 0 0 1-.981 6.275q-.792 3.047-2.234 5.553t-3.527 4.154-4.815 2.022m-2.707-5.614q1.591-.637 2.775-2.74 1.227-2.162 1.974-5.15a35.3 35.3 0 0 0 1.032-6.281q.235-3.286-.152-6.12-.373-2.73-1.396-4.848-.972-2.124-2.515-2.281-1.857.621-3.143 2.738-1.234 2.11-1.885 5.033a38.6 38.6 0 0 0-.738 6.136 36.5 36.5 0 0 0 .293 5.995q.429 3.144 1.321 5.068.937 1.867 2.434 2.45M616.293 419.121q-1.133.154-2.11-.08-.918-.19-2.068-.925a5.6 5.6 0 0 1-2.14-1.073 13 13 0 0 1-1.673-1.871l-11.122-14.594-.103.014q-.078 2.897.04 6.449.168 3.546.382 7.033.258 3.429.506 6.019.105.773-.874.907-2.215.301-3.808-1.37-1.548-1.731-1.991-4.977-.26-1.906-.613-6.424-.354-4.518-.65-11.3-.177-3.23.052-4.625.23-1.397 1.208-1.53l-3.925-4.922a1.56 1.56 0 0 1-.312-.745q-.133-.979 1.103-1.148 1.7-.231 4.078.651 2.429.876 4.229 3.307l13.123 18.101.103-.015q-.185-3.28-.398-6.768t-.399-6.768q-.192-3.333-.351-6.04a279 279 0 0 1-.23-4.377q.047-.426.541-.651a3.2 3.2 0 0 1 1.157-.368 4.27 4.27 0 0 1 2.3.316q1.115.478 1.988 1.881.867 1.351 1.218 3.927.246 1.803.38 5.092.178 3.23.328 7.407.195 4.12.511 8.747.361 4.57.979 9.104.091.67-.323 1.093-.414.424-1.136.523M191.031 488.549a6 6 0 0 1-.892-.088q-10.148-1.803-17.162-9.669-7.013-7.865-8.488-17.895l-1.991-13.545a5.4 5.4 0 0 1 .566-3.378 6 6 0 0 1 2.381-2.473l16.251-8.978a6 6 0 0 1 1.954-.653 6 6 0 0 1 2.059.063l18.147 3.921a6 6 0 0 1 2.995 1.683 5.4 5.4 0 0 1 1.512 3.073l1.991 13.544q1.474 10.033-2.978 19.584-4.453 9.552-13.654 14.196a5.6 5.6 0 0 1-.828.341q-.42.135-.921.209a6 6 0 0 1-.942.065"/></g><path fill="#fff" d="m142.55 502.733 2.726.308-2.146.408-1.93.875-2.34 1.556-2.238 1.092-2.002 3.842-1.567-8.246 2.139.388 4.682.571zM209.597 510.646l-1.086-2.465.394 2.148-.005 2.095-.356 2.698-.061 2.454-2.082 3.111 6.336-1.164-.955-1.886-1.896-4.221zM617.046 443.229l.967-3.25.455 2.476 1.36 2.164 2.577 2.562 1.722 2.499 6.903 1.877-15.656 2.876 1.032-2.566 1.742-5.586z"/><path fill="#383838" d="m267.6 412.016 1.435-.548-.013.489.862.485 1.896.631 1.132.569 5.938.762-14.693-.396 1.378-.418 2.539-.938z"/><path fill="#fff" d="m373.85 487.221-.775-.772.136.737-.25.764-.664 1.026-.345.902-2.401 1.377 6.336-1.164-.715-.576-1.362-1.318zM443.407 475.78l-.775-.772.136.737-.25.765-.663 1.025-.346.902-2.401 1.378 6.336-1.164-.714-.577-1.363-1.317zM125.147 425.995l2.68.588-2.176.183-2.01.671-2.489 1.306-2.34.854-2.388 3.615-.705-8.364 2.087.607 4.598 1.053zM133.544 488.721l2.68.588-2.177.183-2.01.671-2.489 1.306-2.339.854-2.388 3.615-.705-8.364 2.086.607 4.598 1.053z"/><path fill="url(#e)" d="M120.108 421.223c-1.004-6.213 3.894-11.801 10.184-11.603 73.164 2.307 455.515 13.765 540.3 4.153 4.078-.463 7.154-3.621 8.115-7.611 16.65-69.11 27.542-5.903 30.95 19.342.709 5.255-2.948 10-8.183 10.846l-554.319 89.569c-5.452.881-10.587-2.824-11.467-8.276z"/><path fill="#fff" d="m703.571 394.766-1.294-.217.929-.293.766-.626.86-1.112.877-.782.39-2.743 1.855 5.881-1.035-.275-2.229-.402zM697.305 403.936l-3.061.341 2.401-.757 2.154-1.064 2.605-1.664 2.497-1.292 2.198-3.313 1.855 5.881-2.402.156-5.256.553z"/><defs><linearGradient id="e" x1="443.562" x2="439.608" y1="309.448" y2="434.564" gradientUnits="userSpaceOnUse"><stop/><stop offset=".944" stop-opacity="0"/></linearGradient><pattern id="a" width="1" height="1" patternTransform="matrix(259.2 0 0 14 328 335.127)" patternUnits="userSpaceOnUse" preserveAspectRatio="none" viewBox="0 0 648 35"><use xlink:href="#f" transform="translate(-648)"/><g id="f" fill="#000"><path d="M100 0h50v5h-50zM310 0h50v5h-50zM0 0h50v5H0zM200 0h5v5h-5zM255 0h5v5h-5z"/></g><use xlink:href="#f" transform="translate(-324 17.5)"/><use xlink:href="#f" transform="translate(324 17.5)"/></pattern><filter id="b" width="576.502" height="64.411" x="130.083" y="374.488" color-interpolation-filters="sRGB" filterUnits="userSpaceOnUse"><feFlood flood-opacity="0" result="BackgroundImageFix"/><feBlend in="SourceGraphic" in2="BackgroundImageFix" result="shape"/><feColorMatrix in="SourceAlpha" result="hardAlpha" values="0 0 0 0 0 0 0 0 0 0 0 0 0 0 0 0 0 0 127 0"/><feOffset dx="10" dy="4"/><feGaussianBlur stdDeviation="7"/><feComposite in2="hardAlpha" k2="-1" k3="1" operator="arithmetic"/><feColorMatrix values="0 0 0 0 1 0 0 0 0 1 0 0 0 0 1 0 0 0 0.15 0"/><feBlend in2="shape" result="effect1_innerShadow_314_917"/></filter></defs></svg>