<svg xmlns="http://www.w3.org/2000/svg" width="724" height="724" fill="none" viewBox="0 0 724 724"><path fill="#202020" d="M82.77 595v-55.859h18.725v7.331h-10.22v16.25h9.713v7.173h-9.712v17.773h10.6V595zM108.16 595v-55.859h10.569l7.935 40.815 7.458-40.815h10.633V595h-7.586v-20.82l.318-19.107-7.522 39.673h-6.761l-7.839-39.673.317 19.107V595zM164.908 595.635q-4.347 0-7.109-1.841-2.73-1.84-4.031-5.459t-1.301-8.95v-25.55q0-4.824 1.27-8.252t4.03-5.268 7.237-1.841q3.364 0 5.681 1.047 2.316 1.048 3.745 3.047 1.428 1.968 2.063 4.825.666 2.824.666 6.442v25.55q0 5.332-1.269 8.95-1.237 3.618-3.936 5.459-2.697 1.84-7.046 1.841m0-7.364q1.587 0 2.381-.952.793-.951 1.047-2.888.286-1.968.286-4.951v-26.025q0-3.65-.698-5.618-.667-2-2.92-2-2.317 0-3.142 1.936-.826 1.905-.826 5.65v26.057q0 3.047.254 5.015.286 1.935 1.111 2.856.857.92 2.507.92M187.823 595v-48.496h-6.538v-7.363h21.297v7.363h-6.284V595zM207.565 595v-55.859h8.506V595zM236.383 595.635q-4.348 0-7.109-1.841-2.73-1.84-4.031-5.459t-1.301-8.95v-25.55q0-4.824 1.269-8.252 1.27-3.428 4.031-5.268 2.762-1.84 7.236-1.841 3.365 0 5.681 1.047 2.317 1.048 3.746 3.047 1.428 1.968 2.063 4.825.666 2.824.666 6.442v25.55q0 5.332-1.269 8.95-1.239 3.618-3.936 5.459t-7.046 1.841m0-7.364q1.587 0 2.38-.952.794-.951 1.048-2.888.285-1.968.285-4.951v-26.025q0-3.65-.698-5.618-.666-2-2.92-2-2.317 0-3.142 1.936-.825 1.905-.825 5.65v26.057q0 3.047.254 5.015.286 1.935 1.111 2.856.857.92 2.507.92M256.378 595v-55.859h6.665l11.839 33.515-.603-15.234v-18.281h7.648V595h-6.03l-12.156-34.69.477 14.663V595zM287.037 595l7.967-55.859h11.235L314.713 595h-7.934l-1.333-9.966h-9.014L295.226 595zm10.22-16.79h7.3l-3.745-28.056h-.127zM319.791 595v-55.859h8.506v48.623h10.759V595zM352.037 595l7.967-55.859h11.235L379.713 595h-7.934l-1.333-9.966h-9.014L360.226 595zm10.22-16.79h7.3l-3.745-28.056h-.127zM386.124 595v-48.496h-6.538v-7.363h21.297v7.363h-6.285V595zM408.595 595v-48.496h-6.538v-7.363h21.296v7.363h-6.284V595zM423.258 595l7.966-55.859h11.236L450.934 595h-7.935l-1.333-9.966h-9.013L431.447 595zm10.22-16.79h7.3l-3.746-28.056h-.126zM467.469 595.635q-4.062 0-6.76-1.873t-4.062-5.459q-1.333-3.618-1.333-8.728v-24.343q0-3.84.634-6.919.635-3.078 2.063-5.269a9.46 9.46 0 0 1 3.809-3.364q2.38-1.174 5.872-1.174 3.174 0 5.395 1.047 2.253 1.015 3.65 2.952 1.428 1.936 2.063 4.697.666 2.73.667 6.157v7.681h-8.221v-7.141q0-4.126-.698-6.062-.697-1.968-2.793-1.968-2.316 0-3.11 2.127-.762 2.094-.762 5.871v26.089q0 2.92.317 4.793.35 1.84 1.143 2.729.794.857 2.222.857 2.157 0 2.92-2.031.76-2.031.761-6.443v-7.998h8.348v7.903q0 5.3-1.238 8.855-1.238 3.522-3.936 5.268-2.666 1.746-6.951 1.746M486.798 595v-55.859h8.506v22.597h7.617v-22.597h8.506V595h-8.506v-25.962h-7.617V595zM519.197 595v-55.859h10.568l7.935 40.815 7.458-40.815h10.633V595h-7.586v-20.82l.318-19.107-7.522 39.673h-6.761l-7.839-39.673.318 19.107V595zM564.201 595v-55.859h18.726v7.331h-10.22v16.25h9.712v7.173h-9.712v17.773h10.601V595zM589.592 595v-55.859h6.665l11.838 33.515-.603-15.234v-18.281h7.649V595h-6.03l-12.156-34.69.476 14.663V595zM626.472 595v-48.496h-6.538v-7.363h21.296v7.363h-6.284V595z"/><path fill="#9f9f9f" d="M211.744 484.646q-.31 2.5-1.04 4.419-1.238 3.301-3.968 4.952-2.697 1.618-7.046 1.618-4.347 0-7.077-1.618-2.728-1.651-3.999-4.952-.605-1.59-.922-3.579l8.441-.295q.263 1.371.924 2.192.793.984 2.602.984 1.81 0 2.603-.952.755-.902.976-2.472zm324.182-5.261q0 5.332-1.27 8.95-1.238 3.618-3.935 5.459t-7.046 1.841-7.11-1.841q-2.728-1.84-4.03-5.459-1.301-3.618-1.302-8.95v-5.197l8.57-.299v5.591q0 3.047.254 5.015.286 1.936 1.111 2.857.857.92 2.507.919 1.587 0 2.381-.952.792-.951 1.047-2.887.285-1.968.286-4.952v-5.856l8.537-.298zM163.255 495h-8.506v-8.363l8.506-.297zm16.123 0h-8.506v-8.926l8.506-.297zm48.084 0h-7.523v-10.64l7.523-.262zm29.072 0h-7.586v-11.652l7.586-.266zm32.785 0h-7.934l-1.333-9.966h-9.014L269.832 495h-8.188l1.733-12.156 23.971-.837zm12.918 0h-7.84v-13.239l7.84-.275zm17.71 0h-6.03l-4.819-13.753 10.849-.379zm44.465 0h-7.934l-1.333-9.966h-9.014L344.925 495h-8.189l2.11-14.792 23.199-.811zm14.886 0h-8.475v-15.908l8.475-.296zm22.471 0h-8.475v-16.693l8.475-.296zm19.582-7.331h10.6V495h-19.106v-17.376l8.506-.297zM446.075 495h-7.84v-18.263l7.84-.273zm17.71 0h-6.03l-6.559-18.716 12.589-.439zm19.805 0h-8.475v-19.551l8.475-.296zm19.772 0h-8.506v-20.24l8.506-.297zm48.148-20.026V495h-7.84v-21.944l7.768-.272zM569.22 495h-6.031l-7.833-22.353 6.731-.235.087.244-.01-.247 7.056-.246zm-327.476-.254h-6.761l-2.141-10.836 11.029-.386zm-78.489-33.008h7.617v-22.597h8.506v29.626l-8.506.296v-.025h-7.617v.292l-8.506.297v-30.486h8.506zm32.596 6.453-8.506.297v-29.347h8.506zm16.123-.562-8.506.297v-28.785h8.506zm23.91-.835-6.38.223-2.359-11.944.199 12.019-7.405.259v-28.21h10.57zm20.65-.722-7.456.261.188-11.26-2.149 11.328-6.237.218 5.021-27.478h10.633zm28.247-.986-7.336.257-2.027-15.189h-.127l-1.873 15.329-7.604.265 3.796-26.607h11.236zm25.136-.878-6.709.234-1.447-4.131.135 4.177-7.499.262v-25.609h6.665zm10.03-.35-7.385.258-.264-6.694v-18.281h7.649zm39.532-1.38-7.29.254-1.678-12.578h-.127l-1.552 12.696-7.549.263 3.42-23.972h11.235zm26.103-15.974h-6.284v15.281l-8.475.296v-15.577h-6.538v-7.363h21.297zm22.471 0h-6.284v14.497l-8.475.296v-14.793h-6.538v-7.363h21.297zm23.517-.031h-10.219v13.844l-8.506.297v-21.473h18.725zm20.432 12.773-13.767.482v-20.587h6.665zm11.783-.411-7.583.265-.066-1.678v-18.281h7.649zm26.089-12.331h-6.284v11.64l-8.475.295v-11.935h-6.538v-7.363h21.297zm13.488 10.949-8.506.297v-18.609h8.506zm20.409-18.978q3.363 0 5.68 1.046 2.317 1.048 3.745 3.047 1.429 1.968 2.064 4.825.666 2.825.666 6.443v2.479l-8.537.299v-3.159q0-3.65-.699-5.618-.666-2-2.919-1.999-2.318 0-3.143 1.935-.825 1.905-.825 5.65v3.456l-8.57.299v-3.342q0-4.824 1.27-8.252 1.27-3.427 4.031-5.269 2.761-1.84 7.237-1.84m32.381 17.134-12.482.437v-16.905h6.665zm13.068-.456-7.65.267v-16.279h7.65zm-215.475-75.465q-.034 5.133-1.266 8.647-1.239 3.618-3.936 5.459t-7.046 1.841-7.109-1.841q-2.73-1.84-4.031-5.459-1.156-3.216-1.285-7.785l8.557-.299q.029 2.53.25 4.244.285 1.936 1.111 2.857.857.92 2.507.919 1.587 0 2.381-.952.794-.951 1.047-2.887.26-1.798.282-4.446zM370.188 395h-8.505v-15.589l8.505-.297zm17.076-7.236h10.759V395h-19.265v-16.186l8.506-.296zm-45.671-49.289q3.363 0 5.68 1.046 2.317 1.048 3.746 3.047 1.428 1.968 2.063 4.825.666 2.825.666 6.443v8.842l-8.537.298v-9.521q0-3.65-.698-5.618-.667-2-2.92-1.999-2.318 0-3.143 1.935-.825 1.905-.825 5.65v9.817l-8.569.3v-9.704q0-4.824 1.269-8.252 1.27-3.427 4.031-5.269 2.761-1.84 7.237-1.84m28.595 23.629-8.505.296v-23.259h8.505zm17.076-.596-8.506.297v-22.664h8.506zm-25.011-82.117q0 5.328-1.269 8.944-1.238 3.618-3.935 5.459t-7.046 1.841-7.109-1.841q-2.73-1.84-4.031-5.459-1.194-3.32-1.292-8.082l8.562-.3q.018 2.73.252 4.542.285 1.936 1.111 2.857.857.92 2.507.919 1.587 0 2.381-.952.793-.951 1.047-2.887.274-1.899.284-4.744zM330.262 295h-3.809l-1.301-5.49q-.698 2.888-2.983 4.474-2.253 1.587-5.142 1.587-5.046 0-8.125-3.967-2.591-3.367-3-10.246l8.542-.297q.147 3.329.71 5.021.794 2.253 3.27 2.253 2.41 0 3.395-2.316.759-1.757.951-5.249l7.492-.262zm48.242-7.236h10.76V295h-19.266v-15.88l8.506-.297zm39.642-9.077q0 5.49-1.207 9.14-1.174 3.618-3.808 5.396-2.635 1.777-7.015 1.777h-12.251v-16.713l8.506-.297v10.408h2.793q1.492 0 2.476-.602 1.015-.603 1.492-2.127.507-1.556.508-4.38l-.005-3.553 8.509-.297zm-99.659-40.181q3.682 0 5.998 1.111 2.317 1.08 3.555 3.174 1.27 2.063 1.746 5.078t.476 6.823v3.968h-7.935v-5.84q0-3.776-.793-5.364-.762-1.587-2.92-1.587-2.38 0-3.301 1.873-.92 1.84-.92 6.57v9.74l-8.57.3v-9.977q0-3.745.698-6.696.73-2.952 2.222-4.984 1.524-2.063 3.936-3.11 2.412-1.079 5.808-1.079m31.612-.031q3.364 0 5.68 1.046 2.317 1.048 3.745 3.047 1.43 1.968 2.064 4.825.666 2.825.666 6.443v8.545l-8.537.298v-9.224q0-3.65-.698-5.618-.667-2-2.92-1.999-2.318 0-3.143 1.935-.825 1.905-.825 5.65v9.52l-8.569.3v-9.407q0-4.824 1.269-8.252 1.27-3.427 4.031-5.269 2.761-1.84 7.237-1.84m28.405 23.338-8.506.297v-22.969h8.506zm27.898-22.672q4.253 0 6.824 1.713 2.57 1.683 3.713 4.888 1.174 3.206 1.174 7.744l.009 6.944-8.507.297-.008-7.018q0-4.284-1.046-6.157-1.048-1.872-3.682-1.873h-2.508v15.3l-8.506.297v-22.135zm-103.248-57.686q-.169 4.193-1.203 7.166-1.238 3.523-3.935 5.269-2.666 1.745-6.951 1.745-4.063 0-6.76-1.872-2.698-1.874-4.063-5.459-.963-2.614-1.229-6.006l8.51-.297q.075 1.578.273 2.748.35 1.84 1.142 2.73.794.856 2.222.856 2.158 0 2.92-2.031.587-1.569.72-4.558zm31.221-1.091q-.106 4.69-1.257 7.971-1.238 3.618-3.935 5.459-2.699 1.84-7.046 1.841-4.349 0-7.11-1.841-2.728-1.84-4.03-5.459-1.07-2.976-1.261-7.11l8.543-.298q.048 2.088.24 3.568.285 1.936 1.111 2.857.857.92 2.507.919 1.587 0 2.381-.952.792-.951 1.046-2.887.227-1.564.272-3.769zm76.692-.979q0 5.332-1.269 8.95-1.238 3.618-3.936 5.459t-7.046 1.841q-4.347 0-7.109-1.841-2.73-1.84-4.03-5.459-1.302-3.619-1.302-8.95v-.836l8.569-.299v1.23q0 3.047.254 5.015.287 1.936 1.112 2.857.856.92 2.506.919 1.587 0 2.381-.952.793-.951 1.047-2.887.286-1.968.286-4.952v-1.496l8.537-.297zM353.526 195h-8.474v-15.008l8.474-.296zm22.471 0h-8.475v-15.793l8.475-.296zm50.654 0h-7.839v-17.584l7.839-.273zm17.71 0h-6.03l-6.323-18.045 12.353-.431zm-153.074-56.494q3.173 0 5.396 1.048 2.253 1.015 3.65 2.951 1.428 1.936 2.063 4.697.666 2.73.666 6.157v7.681h-8.22v-7.141q0-4.125-.698-6.062-.699-1.968-2.793-1.968-2.317 0-3.111 2.127-.76 2.095-.761 5.871v11.125l-8.57.299v-10.059q0-3.84.635-6.919t2.063-5.268a9.46 9.46 0 0 1 3.809-3.364q2.38-1.175 5.871-1.175m30.945-.032q3.365 0 5.681 1.047 2.317 1.048 3.745 3.047 1.429 1.968 2.064 4.825.666 2.825.666 6.443v9.518l-8.537.298v-10.197q0-3.65-.699-5.618-.666-2-2.92-1.999-2.316 0-3.142 1.935-.825 1.905-.825 5.65v10.494l-8.57.299v-10.38q0-4.824 1.27-8.252 1.27-3.427 4.031-5.269 2.761-1.84 7.236-1.841m37.579 8.03h-6.285v16.182l-8.474.295v-16.477h-6.538v-7.363h21.297zm22.47 0h-6.284V161.9l-8.475.296v-15.692h-6.538v-7.363h21.297zm16.631-8.03q3.364 0 5.681 1.047 2.317 1.048 3.745 3.047 1.428 1.968 2.063 4.825.667 2.825.666 6.443v6.84l-8.537.298v-7.519q0-3.65-.698-5.618-.667-2-2.92-1.999-2.316 0-3.142 1.935-.826 1.905-.826 5.65v7.816l-8.569.299v-7.702q0-4.824 1.27-8.252 1.27-3.427 4.031-5.269 2.761-1.84 7.236-1.841m33.903 21.442-14.003.489v-21.264h6.665zm11.546-.402-7.556.263-.093-2.355v-18.281h7.649zM259.44 170.974l204.875-7.154.245 6.996-204.876 7.154zM283.426 270.137l156.904-5.479.244 6.995-156.904 5.48zM310.409 369.195l102.937-3.595.245 6.996-102.938 3.594zM138.514 475.197l446.728-15.6.244 6.996-446.728 15.6z"/></svg>