<svg xmlns="http://www.w3.org/2000/svg" width="724" height="724" fill="none" viewBox="0 0 724 724"><path fill="#9f9f9f" d="M291.065 155.635q-4.063 0-6.76-1.873t-4.063-5.459q-1.332-3.618-1.333-8.728v-24.343q0-3.84.635-6.919t2.063-5.269a9.45 9.45 0 0 1 3.809-3.364q2.38-1.174 5.871-1.174 3.173 0 5.396 1.047 2.253 1.016 3.65 2.952 1.428 1.936 2.063 4.697.666 2.73.666 6.157v7.681h-8.22v-7.141q0-4.126-.698-6.062-.699-1.968-2.793-1.968-2.317 0-3.111 2.127-.762 2.094-.761 5.871v26.089q0 2.92.317 4.793.35 1.84 1.142 2.729.794.857 2.222.857 2.158 0 2.92-2.031t.762-6.443v-7.998h8.347v7.903q0 5.3-1.238 8.855-1.238 3.522-3.935 5.268-2.667 1.746-6.951 1.746M322.137 155.635q-4.349 0-7.11-1.841-2.729-1.84-4.03-5.459t-1.302-8.95v-25.55q0-4.824 1.27-8.252t4.031-5.268q2.76-1.84 7.236-1.84 3.364 0 5.681 1.047t3.745 3.046q1.428 1.968 2.063 4.825.667 2.824.667 6.442v25.55q0 5.332-1.27 8.95-1.238 3.618-3.935 5.459-2.699 1.84-7.046 1.841m0-7.364q1.587 0 2.38-.952.793-.951 1.047-2.888.286-1.968.286-4.951v-26.025q0-3.65-.698-5.618-.666-2-2.92-2-2.317 0-3.142 1.936-.825 1.905-.825 5.65v26.057q0 3.047.254 5.015.285 1.935 1.11 2.856.857.92 2.508.92M345.052 155v-48.496h-6.538v-7.363h21.296v7.363h-6.284V155zM367.522 155v-48.496h-6.538v-7.363h21.297v7.363h-6.284V155zM398.816 155.635q-4.347 0-7.109-1.841-2.73-1.84-4.031-5.459t-1.301-8.95v-25.55q0-4.824 1.27-8.252 1.269-3.428 4.03-5.268t7.237-1.84q3.363 0 5.681 1.047t3.745 3.046q1.428 1.968 2.063 4.825.666 2.824.666 6.442v25.55q0 5.332-1.269 8.95-1.238 3.618-3.936 5.459t-7.046 1.841m0-7.364q1.587 0 2.381-.952.793-.951 1.047-2.888.286-1.968.286-4.951v-26.025q0-3.65-.698-5.618-.667-2-2.92-2-2.317 0-3.142 1.936-.826 1.905-.826 5.65v26.057q0 3.047.254 5.015.286 1.935 1.111 2.856.857.92 2.507.92M418.812 155V99.14h6.665l11.838 33.516-.603-15.234V99.141h7.649V155h-6.03l-12.156-34.69.476 14.663V155zM317.027 255.571q-5.046 0-8.125-3.967-3.08-3.999-3.079-12.949v-24.28q0-3.745.698-6.697.73-2.952 2.222-4.983 1.524-2.063 3.936-3.11 2.412-1.079 5.808-1.079 3.681 0 5.998 1.111 2.317 1.078 3.555 3.174 1.269 2.063 1.746 5.078.476 3.015.476 6.823v3.968h-7.935v-5.84q0-3.777-.793-5.364-.762-1.587-2.92-1.587-2.38 0-3.301 1.873-.92 1.84-.92 6.57v24.216q0 5.268.761 7.554.794 2.253 3.269 2.253 2.412 0 3.396-2.317 1.016-2.349 1.016-7.808v-7.522h-4.285V224.5h11.712V255h-3.809l-1.301-5.491q-.699 2.888-2.984 4.475-2.253 1.587-5.141 1.587M350.003 255.635q-4.349 0-7.109-1.841-2.73-1.84-4.031-5.459t-1.301-8.95v-25.55q0-4.824 1.269-8.252 1.27-3.427 4.031-5.268 2.762-1.84 7.236-1.841 3.365 0 5.681 1.047 2.317 1.048 3.745 3.047 1.429 1.968 2.063 4.825.667 2.824.667 6.442v25.55q0 5.332-1.27 8.95-1.238 3.618-3.935 5.459t-7.046 1.841m0-7.364q1.587 0 2.38-.952.793-.951 1.048-2.888.285-1.968.285-4.951v-26.025q0-3.65-.698-5.618-.667-2-2.92-2-2.316 0-3.142 1.936-.825 1.905-.825 5.65v26.057q0 3.047.254 5.015.285 1.935 1.111 2.856.857.92 2.507.92M369.998 255v-55.859h8.506v48.623h10.759V255zM393.865 255v-55.859h12.537q4.253 0 6.824 1.713 2.57 1.683 3.713 4.888 1.174 3.206 1.174 7.744l.032 25.201q0 5.49-1.206 9.14-1.174 3.618-3.809 5.396-2.634 1.777-7.014 1.777zm8.506-6.602h2.793q1.492 0 2.476-.603 1.016-.602 1.491-2.126.508-1.555.508-4.38l-.032-27.581q0-4.284-1.047-6.157-1.047-1.872-3.682-1.872h-2.507zM341.497 355.635q-4.348 0-7.109-1.841-2.73-1.84-4.031-5.459t-1.301-8.95v-25.55q0-4.824 1.269-8.252 1.27-3.428 4.031-5.268 2.762-1.84 7.236-1.841 3.365 0 5.681 1.047 2.317 1.048 3.746 3.047 1.428 1.968 2.063 4.825.666 2.824.666 6.442v25.55q0 5.332-1.269 8.95-1.239 3.618-3.936 5.459t-7.046 1.841m0-7.364q1.587 0 2.38-.952.794-.951 1.048-2.888.285-1.968.285-4.951v-26.025q0-3.65-.698-5.618-.666-2-2.92-2-2.317 0-3.142 1.936-.825 1.905-.825 5.65v26.057q0 3.047.254 5.015.285 1.935 1.111 2.856.857.92 2.507.92M361.683 355v-55.859h8.505V355zM378.758 355v-55.859h8.506v48.623h10.759V355zM154.749 455v-55.859h8.506v22.597h7.617v-22.597h8.506V455h-8.506v-25.962h-7.617V455zM199.69 455.635q-4.348 0-7.077-1.619-2.73-1.65-3.999-4.951-1.27-3.332-1.27-8.411v-41.513h8.506v41.355q0 2.348.191 4.126.222 1.776 1.015 2.761.794.984 2.603.984t2.602-.952q.825-.984 1.016-2.762.19-1.777.19-4.157v-41.355h8.506v41.513q0 5.079-1.269 8.411-1.238 3.3-3.968 4.951-2.697 1.619-7.046 1.619M219.939 455v-55.859h10.569l7.935 40.815 7.458-40.815h10.633V455h-7.586v-20.82l.318-19.107-7.522 39.673h-6.761l-7.839-39.673.317 19.107V455zM261.644 455l7.966-55.859h11.235L289.319 455h-7.934l-1.333-9.966h-9.014L269.832 455zm10.219-16.79h7.3l-3.745-28.056h-.127zM294.397 455v-55.859h6.665l11.839 33.515-.603-15.234v-18.281h7.649V455h-6.03l-12.156-34.69.476 14.663V455zM336.736 455l7.967-55.859h11.235L364.412 455h-7.934l-1.333-9.966h-9.014L344.925 455zm10.22-16.79h7.3l-3.745-28.056h-.127zM370.823 455v-48.496h-6.538v-7.363h21.297v7.363h-6.285V455zM393.294 455v-48.496h-6.538v-7.363h21.296v7.363h-6.284V455zM412.845 455v-55.859h18.725v7.331h-10.219v16.25h9.711v7.173h-9.711v17.773h10.6V455zM438.235 455v-55.859h6.665l11.839 33.515-.603-15.234v-18.281h7.649V455h-6.031l-12.155-34.69.476 14.663V455zM475.115 455v-48.496h-6.538v-7.363h21.297v7.363h-6.285V455zM494.856 455v-55.859h8.506V455zM523.675 455.635q-4.349 0-7.11-1.841-2.729-1.84-4.03-5.459t-1.302-8.95v-25.55q0-4.824 1.27-8.252t4.031-5.268 7.236-1.841q3.365 0 5.681 1.047 2.317 1.048 3.745 3.047 1.428 1.968 2.063 4.825.667 2.824.667 6.442v25.55q0 5.332-1.27 8.95-1.238 3.618-3.935 5.459t-7.046 1.841m0-7.364q1.587 0 2.38-.952.793-.951 1.048-2.888.285-1.968.285-4.951v-26.025q0-3.65-.698-5.618-.666-2-2.92-2-2.317 0-3.142 1.936-.825 1.905-.825 5.65v26.057q0 3.047.254 5.015.285 1.935 1.11 2.856.858.92 2.508.92M543.67 455v-55.859h6.665l11.838 33.515-.603-15.234v-18.281h7.649V455h-6.03l-12.156-34.69.476 14.663V455z"/><path fill="#fff" d="M84.258 555v-55.859h18.726v7.331h-10.22v16.25h9.712v7.173h-9.712v17.773h10.601V555zM109.649 555v-55.859h10.569l7.934 40.815 7.459-40.815h10.632V555h-7.585v-20.82l.317-19.107-7.522 39.673h-6.76l-7.839-39.673.317 19.107V555zM166.397 555.635q-4.349 0-7.109-1.841-2.73-1.84-4.031-5.459t-1.301-8.95v-25.55q0-4.824 1.269-8.252 1.27-3.428 4.031-5.268 2.762-1.84 7.236-1.841 3.365 0 5.681 1.047 2.317 1.048 3.745 3.047 1.429 1.968 2.063 4.825.667 2.824.667 6.442v25.55q0 5.332-1.27 8.95-1.238 3.618-3.935 5.459t-7.046 1.841m0-7.364q1.587 0 2.38-.952.793-.951 1.048-2.888.285-1.968.285-4.951v-26.025q0-3.65-.698-5.618-.667-2-2.92-2-2.317 0-3.142 1.936-.825 1.905-.825 5.65v26.057q0 3.047.254 5.015.286 1.935 1.111 2.856.857.92 2.507.92M189.312 555v-48.496h-6.538v-7.363h21.296v7.363h-6.284V555zM209.053 555v-55.859h8.506V555zM237.872 555.635q-4.349 0-7.11-1.841-2.729-1.84-4.031-5.459-1.3-3.619-1.301-8.95v-25.55q0-4.824 1.27-8.252t4.03-5.268 7.237-1.841q3.364 0 5.681 1.047 2.317 1.048 3.745 3.047 1.428 1.968 2.063 4.825.666 2.824.667 6.442v25.55q0 5.332-1.27 8.95-1.238 3.618-3.936 5.459t-7.045 1.841m0-7.364q1.587 0 2.38-.952.793-.951 1.047-2.888.286-1.968.286-4.951v-26.025q0-3.65-.698-5.618-.667-2-2.92-2-2.317 0-3.142 1.936-.825 1.905-.825 5.65v26.057q0 3.047.253 5.015.286 1.935 1.111 2.856.857.92 2.508.92M257.867 555v-55.859h6.665l11.838 33.515-.603-15.234v-18.281h7.649V555h-6.03l-12.156-34.69.476 14.663V555zM288.526 555l7.966-55.859h11.236L316.202 555h-7.935l-1.333-9.966h-9.014L296.714 555zm10.22-16.79h7.299l-3.745-28.056h-.127zM321.28 555v-55.859h8.506v48.623h10.759V555zM353.526 555l7.966-55.859h11.236L381.202 555h-7.935l-1.333-9.966h-9.014L361.714 555zm10.22-16.79h7.299l-3.745-28.056h-.127zM387.613 555v-48.496h-6.538v-7.363h21.296v7.363h-6.284V555zM410.083 555v-48.496h-6.538v-7.363h21.297v7.363h-6.284V555zM424.747 555l7.966-55.859h11.235L452.422 555h-7.934l-1.333-9.966h-9.014L432.935 555zm10.219-16.79h7.3l-3.745-28.056h-.127zM468.958 555.635q-4.063 0-6.76-1.873t-4.063-5.459q-1.332-3.618-1.333-8.728v-24.343q0-3.84.635-6.919t2.063-5.269a9.45 9.45 0 0 1 3.809-3.364q2.38-1.174 5.871-1.174 3.174 0 5.396 1.047 2.253 1.016 3.65 2.952 1.428 1.936 2.063 4.697.666 2.73.666 6.157v7.681h-8.22v-7.141q0-4.126-.698-6.062-.699-1.968-2.793-1.968-2.317 0-3.111 2.127-.762 2.094-.761 5.871v26.089q0 2.92.317 4.793.35 1.84 1.143 2.729.793.857 2.221.857 2.158 0 2.92-2.031t.762-6.443v-7.998h8.347v7.903q0 5.3-1.238 8.855-1.238 3.522-3.935 5.268-2.667 1.746-6.951 1.746M488.287 555v-55.859h8.505v22.597h7.618v-22.597h8.506V555h-8.506v-25.962h-7.618V555zM521.294 555v-55.859h10.569l7.935 40.815 7.458-40.815h10.633V555h-7.586v-20.82l.318-19.107-7.522 39.673h-6.761l-7.839-39.673.317 19.107V555zM566.299 555v-55.859h18.726v7.331h-10.22v16.25h9.712v7.173h-9.712v17.773h10.601V555zM591.69 555v-55.859h6.665l11.838 33.515-.603-15.234v-18.281h7.649V555h-6.03l-12.156-34.69.476 14.663V555zM628.57 555v-48.496h-6.538v-7.363h21.296v7.363h-6.284V555z"/><path fill="#9f9f9f" d="M195.63 620v-30.078h3.589l6.375 18.047-.325-8.203v-9.844h4.119V620h-3.247l-6.546-18.679.257 7.895V620zM220.24 620.342q-2.341 0-3.828-.991-1.47-.991-2.171-2.94t-.7-4.819v-13.758q0-2.596.683-4.443.683-1.845 2.171-2.837 1.487-.991 3.896-.991 1.811 0 3.059.564a4.9 4.9 0 0 1 2.017 1.641q.769 1.06 1.111 2.597.358 1.522.358 3.469v13.758q0 2.87-.683 4.819-.667 1.948-2.119 2.94-1.453.99-3.794.991m0-3.965q.854 0 1.281-.513t.564-1.555q.154-1.06.154-2.666v-14.014q0-1.965-.376-3.025-.359-1.076-1.572-1.076-1.248 0-1.692 1.042-.444 1.026-.444 3.042v14.031q0 1.641.137 2.7.153 1.043.598 1.538.46.496 1.35.496M231.297 620v-4.204h3.845V620zM244.61 620l4.289-30.078h6.05L259.512 620h-4.272l-.718-5.366h-4.854l-.649 5.366zm5.503-9.041h3.93l-2.016-15.107h-.069zM262.349 620v-30.078h4.58V620zM277.935 620v-30.078h4.58V620zM292.615 620.342q-1.88 0-3.144-.581a4.8 4.8 0 0 1-1.983-1.726q-.717-1.146-1.025-2.769-.308-1.64-.308-3.725v-2.684h4.341v3.025q0 2.427.41 3.487.41 1.059 1.624 1.059.82 0 1.23-.376.428-.393.564-1.23.154-.855.154-2.222 0-1.692-.718-3.093-.7-1.401-2.136-2.905l-2.222-2.29a17 17 0 0 1-1.674-2.034 9.8 9.8 0 0 1-1.18-2.393q-.427-1.333-.427-2.973 0-2.376.581-4.016.582-1.64 1.965-2.479 1.385-.854 3.794-.854 1.812 0 2.974.564a4.1 4.1 0 0 1 1.829 1.623q.666 1.06.94 2.598.273 1.521.273 3.486v1.863h-4.221v-2.153q0-1.367-.154-2.273-.137-.906-.53-1.35-.392-.462-1.145-.462-.717 0-1.162.325-.444.308-.649.974-.188.65-.188 1.692 0 .94.239 1.624.238.683.735 1.316.495.632 1.23 1.418l2.478 2.683q1.777 1.915 2.769 3.982.991 2.069.991 4.614 0 2.701-.581 4.546-.581 1.829-1.948 2.769t-3.726.94M308.389 620v-30.078h3.589l6.375 18.047-.325-8.203v-9.844h4.118V620h-3.247l-6.545-18.679.256 7.895V620zM332.999 620.342q-2.341 0-3.829-.991-1.469-.991-2.17-2.94t-.701-4.819v-13.758q0-2.596.684-4.443.684-1.845 2.17-2.837 1.487-.991 3.897-.991 1.81 0 3.059.564a4.9 4.9 0 0 1 2.016 1.641q.77 1.06 1.111 2.597.36 1.522.359 3.469v13.758q0 2.87-.683 4.819-.667 1.948-2.12 2.94-1.453.99-3.793.991m0-3.965q.853 0 1.281-.513t.564-1.555q.154-1.06.154-2.666v-14.014q0-1.965-.376-3.025-.358-1.076-1.572-1.076-1.248 0-1.692 1.042-.444 1.026-.444 3.042v14.031q0 1.641.136 2.7.154 1.043.598 1.538.462.496 1.351.496M345.337 620v-26.113h-3.52v-3.965h11.467v3.965H349.9V620zM365.23 620v-12.014l-5.042-18.064h4.375l2.974 11.245h.068l2.649-11.245h4.358l-4.802 18.064V620zM383.482 620.342q-2.341 0-3.828-.991-1.47-.991-2.171-2.94t-.7-4.819v-13.758q0-2.596.683-4.443.684-1.845 2.171-2.837 1.487-.991 3.896-.991 1.812 0 3.059.564a4.9 4.9 0 0 1 2.017 1.641q.77 1.06 1.111 2.597.359 1.522.359 3.469v13.758q0 2.87-.684 4.819-.667 1.948-2.119 2.94-1.453.99-3.794.991m0-3.965q.855 0 1.282-.513t.564-1.555q.153-1.06.153-2.666v-14.014q0-1.965-.376-3.025-.358-1.076-1.572-1.076-1.247 0-1.692 1.042-.444 1.026-.444 3.042v14.031q0 1.641.137 2.7.154 1.043.598 1.538.46.496 1.35.496M400.674 620.342q-2.341 0-3.811-.872-1.47-.888-2.153-2.666-.684-1.794-.684-4.529v-22.353h4.58v22.268q0 1.265.103 2.222.12.957.547 1.486.428.53 1.401.53.975 0 1.402-.512.444-.53.546-1.487t.103-2.239v-22.268h4.58v22.353q0 2.735-.684 4.529-.666 1.778-2.136 2.666-1.452.872-3.794.872M411.578 620v-30.078h7.57q2.359 0 3.521.923 1.162.922 1.521 2.7.376 1.777.376 4.341 0 2.649-.547 4.17-.53 1.503-2.187 2.016a2.44 2.44 0 0 1 1.315.65q.53.495.855 1.469.324.957.461 2.478.154 1.505.154 3.692v2.82l.034 2.119q.018 1.06.052 1.811.034.753.085.889h-4.58q-.051-.085-.085-.872-.018-.803-.052-2.033l-.034-2.649v-5.23q0-1.35-.205-2.033-.188-.701-.718-.975-.512-.273-1.487-.324l-1.469-.086V620zm4.597-17.756h1.828q.838 0 1.265-.376.445-.376.598-1.385.171-1.008.171-2.905v-.188q0-1.589-.154-2.444-.153-.853-.649-1.179-.478-.324-1.504-.325h-1.555zM434.82 620v-30.078h10.322v3.982H439.4v7.998h5.332v3.999H439.4V620zM448.355 620v-30.078h7.571q2.358 0 3.52.923 1.162.922 1.521 2.7.376 1.777.376 4.341 0 2.649-.547 4.17-.53 1.503-2.187 2.016.786.137 1.316.65.53.495.854 1.469.325.957.462 2.478.154 1.505.154 3.692v2.82l.034 2.119q.017 1.06.051 1.811.034.753.085.889h-4.58q-.05-.085-.085-.872-.017-.803-.051-2.033-.017-1.231-.035-2.649v-5.23q0-1.35-.205-2.033-.187-.701-.717-.975-.513-.273-1.487-.324l-1.47-.086V620zm4.597-17.756h1.829q.838 0 1.264-.376.445-.376.599-1.385.17-1.008.17-2.905v-.188q0-1.589-.153-2.444-.154-.853-.65-1.179-.478-.324-1.504-.325h-1.555zM465.411 620v-30.078h4.58V620zM474.605 620v-30.078h10.083v3.948h-5.503v8.75h5.23v3.862h-5.23v9.57h5.708V620zM488.277 620v-30.078h3.589l6.374 18.047-.324-8.203v-9.844h4.118V620h-3.247l-6.545-18.679.256 7.895V620zM506.563 620v-30.078h6.75q2.29 0 3.675.923 1.384.906 1.999 2.632.633 1.725.633 4.169l.017 13.57q0 2.956-.65 4.922-.632 1.948-2.05 2.905-1.419.957-3.777.957zm4.58-3.555h1.504q.803 0 1.333-.324.547-.326.803-1.145.274-.838.274-2.359l-.017-14.851q0-2.307-.564-3.315-.564-1.01-1.983-1.009h-1.35zM524.08 620v-4.204h3.845V620zM235.65 140.157c1.7-.271 3.116 2.158 1.368 2.202-.315.011.498-.959.049-1.108-.4-.138-.657.231-.88.539-.127.158-.24.3-.363.359a.28.28 0 0 1-.203.022c-.028-.012-.068-.027-.089-.058-.016-.038-.064-.043.053-.198.135-.176-.217-.039-.261-.229-.069-.155-.042-.393.008-.623.1-.459.272-.9.32-.91zm205.578-26.965c.657-.124 1.489-.117 2.153.073.328.09-.089.673.242.753a5.9 5.9 0 0 0 2.355.079c.327-.057-.189-.718.238-.739 2.941-.155 5.825-.345 8.806.468.206.056.413 1.427.839 1.154.025-.382.015-.83.021-1.238 4.263-.305 8.501.115 12.776.153.18.002-.137-.723.212-.724 2.021-.006 3.983-.219 6.049.496.205.07.106 1.352.709 1.156.108-.036 1.012-.211 1.246-.489.031-.045-.135-.639.157-.657a19.7 19.7 0 0 1 5.18.401c.274.06-.017.696.178.745 1.382.337 2.886-.147 4.206.431.882.389.556 1.49 1.025 2.573.066.153.613.177.642.808.072 1.585-.193 3.321-.084 5.01.023.364.756-.027.322.852-.031.059-.562.35-.692.648-.091.207.073.849-.113 1.113-.185.263-.39-.274-.698.036-.307.314-.172 1.043-.786 1.13-1.427.195-3.294-.013-4.715-.298-.444-.089-.22-.487-.526-.566-.601-.153-1.16.043-1.754-.14-.197-.063.046-.692-.159-.744-1.128-.276-2.201-.113-3.342-.242-5.638-.641-11.172-.831-16.871-1.02-1.886-.062-4.177-.587-6.109-.291-.226.035-.078.584-.12.631-.661.713-.467-.407-.907-.545-1.759-.543-3.71-.54-5.396-.275-.709.114.04 1.189-.698.595-.051-.04.111-.632-.087-.688-.448-.127-1.294.005-1.645-.03-.667-.07-.774-.06-1.404-.045-.862.015-1.902-.24-2.816-.073-.196.038.087.629-.223.743-.309.114-1.151.096-1.438-.035-.283-.13-.184-.607-.237-.714-.442-.898-1.354.407-1.477.444-2.244.627-4.209-.008-6.328.095-1.62.081-3.325.405-4.855.453-1.825.054-3.385-.186-5.164-.028-.188.017.074.709-.156.731-2.414.221-4.819.291-7.288-.03-.243-.033.026-.672-.219-.742-1.492-.416-3.959-1.481-4.637 1.277-1.002-.038-2.262-.06-3.178-.541-.601-.31-.089-1.024-.777-.686-.156.076.094.652-.143.721-.995.288-2.138.177-3.102.555-.197.079-.103.605-.154.705-.425.806-1.329-.409-1.515-.489a4.1 4.1 0 0 0-1.093-.301c-.861-.117-1.608.08-2.512.137-.292.019.108.703-.171.746-1.463.216-2.931.27-4.389.07-.322-.047-.08-.675-.236-.729-.694-.227-.746.928-1.399.733-.138-.04-.105-.565-.134-.62-.454-.862-.684.431-.78.467-1.211.484-2.142-.77-3.318-.484-.141.036.237.664-.164.724-2.686.407-5.557.47-8.278.179-.422-.044-.169-.563-.2-.621-.508-.911-.673.381-.804.443-1.037.438-2.142-.538-2.73 1.039-4.576-.123-8.999 1.139-13.619.204-.058-.011-.015-.646-.132-.664-1.403-.223-1.049.724-1.844 1.999-.201.32-1.033-1.049-1.105-1.149-.261-.366-.116-1.32-.198-1.388-.678-.53-.285 2.538-1.122 2.619-.026-.005.029-.581-.046-.63-.235-.156-.431.089-.663-.085-.532-.405-.849-1.883-1.514-.942-.083.125.227 1.854-.528 1.843-.302-.006-1.619.151-2 .073-.378-.077-.182-.659-.209-.685-1.067-.648-.72-.993-1.325-2.046-.605-1.049-.214 1.554-.389 1.866-.175.311-.964-.232-1.165-.428-.2-.196-.011-.575-.183-.68-1.134-.686-.338 1.344-.646 1.793-.725 1.063-1.554-.814-2.324-.931-.209-.031 0 .394-.177.453-.701.228-1.191-.334-1.954.301-.125.104-.67 1.335-1.182.521-.072-.117.052-.618-.264-.696-.473-.117-1.307-.141-1.781.069-.35.156.144.911-.336.709-.214-.09.116-.593-.283-.724-.397-.131-1.364-.014-1.731.039s-.105.638-.13.682c-.157.25-.831.611-.896.618-3.138.389-6.147-.334-9.174.317-.237.05-.014.668-.048.685-.793.351-.321-1.409-.952-1.917.217 1.284-.149 1.085-.716 1.287-.273.098-.069.583-.089.636-.337.803-.727-.149-.822-.342-.351-.71-.56.193-.797-.282-.237-.47.117-1.241-.438-1.174-.107.479.429 1.645.029 1.884-1.505.905-4.592.267-5.875.302-1.296.036-1.699.165-2.459.076-1.374-.161-.782.684-1.578 1.183-.799.499-.622-1.75-.794-2.212-.169-.461-.246.04-.421-.205s.109-.601-.248-.662-1.209.883-1.278 1.391c-.145 1.078.394 2.136-.554 1.845-.054-.017.053-.616-.153-.653-1.648-.276-3.309-.127-4.941-.351-.227-.031-.099-.697-.232-.723-1.381-.269-.786.768-1.384 2.055-.01-1.626-.522-2.567-1.524-2.468-.601.059-.42.75-.763 1.288-.102.162-.587-.273-.63.066-.139 1.108.396 2.273-.698 1.904-.047-.02.033-.624-.128-.643-1.045-.124-1.033 1.018-2.121 1.275-.862.203-2.472-.318-3.452-.323-.174-1.81-1.072-1.292-1.31-.004-.647.02-1.325.166-1.954.062-.216-.036-.137-.574-.17-.628-.5-.843-.651.402-.784.464-1.468.631-2.727-.159-4.086.903-.047.038.011 1.303-.473.43-.032-.061.374-.685-.301-.654-.676.031-1.994-.502-2.876.187-.211.166-.664 1.249-1.206.505-.073-.102-.048-.469-.157-.66-.354-.606-.361.68-.812-.361-.463-1.039-1.265-1.765-2.112-.915-.028.03-.134 1.056-.426 1.073-.458.026-1.167-.104-1.661-.041-.236.031-.013.637-.053.654-1.527.53-2.749.108-4.443.061-.078-.002-.186.057-.313.136-.392.245-.966.677-1.481.235-.754-.647-.502-3.795-1.892-2.865-.589.378-.848 4.362-2.192 2.499-2.096.794-4.163.031-6.218 1.044-.092.045-.242 1.169-.466 1.186-.336.023-.569-.46-.828-.458-1.058-.005-1.858.551-2.864.626-.369.028-.318-.513-.751-.48-.416.031-.645.767-1.279.52-.484-.189-1.115-1.533-1.753-1.607.181 1.391-.234 1.423-.888 1.895-.133.092.092.551.033.62-.239.29-.55-.073-.761.236-.052.075.016.548-.022.636-.304.758-1.196-.196-1.342-.363-.576-.633-.671.011-1.092-.208-.405-.221.083-.651-.366-.753-.897-.218-2.012.037-2.895.158-.34.049-.007.641-.053.664-.712.28-1.551-.269-1.73 1.053-1.056-3.159-.376.386-1.524-.08-.087-.041-.468-1.551-.197-1.832.293-.284.822.117 1.221-.312.078-.098.428-1.635.504-1.738.515-.786.985 1.494 1.039 1.615.631 1.292 1.054-.367 1.249-.508.779-.628 1.581-.423 2.251-.886.459-.303.261-1.813.639-1.824 1.293-.041 2.01 2.001 2.924.002.191-.426-.31-2.035.79-.874.073.073.922 1.158 1.187.355.034-.102-.038-.583.02-.632.387-.323.742.016 1.189-.236.425-.248.944-.601 1.514-.516.355.049.871.887 1.057 1.085.516.57.84-.531 1.223.194.386.729.011 1.973.805 2.367-.151-1.252-.272-2.542-.408-3.803 1.546-.174 3.133.017 4.717-.257.187-.035-.099-.679.1-.734.838-.224 1.707.145 2.581-.169.668-.244 1.345-1.061 2.078-1.342.649 1.368 1.642.74 2.471.761.289.008.322.391.54.489.14.06.242.076.315.059l.065-.009c.338-.076.026-.953.173-1.138.766-.951 1.173 1.906 2.214 1.714.055-.013.565-1.617.637-1.722.505-.688.156.521.532.592.687.129 1.195.44 1.945-.1.226-.16.655-1.174 1.182-.488.069.09.094.598.144.623.906.396.75-1.194 1.181-1.788.436-.594 1.318.414 1.502.714.489.772-.264.384-.275.466-.143.983.378.757.804.79.237 1.55.812 1.39.443.029-.042-.149-.351.033-.443-.029.192-1.568.815-1.837 1.699-.492.41.631.197 1.445 1.168 1.047.441-.18.144-1.233.515-1.57.838-.769 2.207.089 3.117-.172.338-.096-.063-.645.166-.731.609-.228 1.214.149 1.828-.147.056-.028-.154-.626.044-.656 1.495-.239 2.814.014 4.397-.15.742-.077 2.048-.563 2.844-.581 1.381-.035 3.111.681 4.261.336.748-.221.508-.817.784-1.27.53-.879 1.789.455 1.963.665.005.007-.627.222-.248.5.272.635.241-.497.248-.5.112.135 1.432.134 1.679-.011.131-.08-.009-.652.061-.684 1.653-.704 3.414-1.042 5.177-.954.032.014.055.664.129.677 1.046.182 1.616-.684 2.411-1.247.789-.562 1.466-.472 2.08.594.618-.207 1.581.191 2.138.436.557.244.494-1.023.537-1.06 1.344-.952 2.25-.313 3.758-.355.712-.017 2.091-.346 2.846-.564.595-.174.992.085 1.533-.162.072-.033-.061-.587-.041-.615.551-.739.395.672.549.906.556.849.892 1.297 1.645.794.174-.116.508-2.158.832-2.309.422-.192.33.537.77.317.038-.018-.015-.456.269-.465 1.315-.049 2.765.062 4.124-.12.186-.023-.122-.696.145-.741 1.25-.209 2.631-.321 3.893-.117.311.053.17.56.25.698.491.836.934-.493 1.026-.528 2.183-.836 4.021.148 6.256-.625.121-.044.948-1.506 1.491-.375.037.075.577 1.234.872.377.018-.055-.305-.645.161-.627.467.018 1.168-.466 1.867.151.222.195.812 1.346 1.318.334.032-.07.748-2.316 1.22-.859.077.241.173 1.82.81.944.121-.169-.16-.497.179-.751.518-.39 1.288-.038 1.898-.804.107-.137.507-1.252.986-.479.075.122.006.657.224.696 1.041.187 2.069-.264 3.13.003.376.094.27.962.67 1.155.399.192 1.186.339 1.548-.086.361-.426-.199-1.741.386-1.905 2.543-.71 5.188-.15 7.779-.266.386-.017.024-.474.59-.534 2.079-.224 5.649-.997 7.536-.121 1.528.699-.25 1.486.891 1.726.551.114.994-1.512 1.119-1.573 1.219-.612 2.14.013 3.268-.298.231-.064-.053-.683.145-.731.674-.169 1.414.056 2.058-.05.289-.049.195-.533.465-.518.644.032 1.243.19 1.907.596.06.038-.275.676.203.659.776-.028 1.764.345 2.608-.192.253-.163.175-1.278.806-.553.131.152.087 1.502.655.293.096-.201 1.079-1.851 1.698-.887.164.254.61 1.322.915 1.125.041-.031-.179-.617.081-.696.918-.269 1.894-.279 2.824-.539.248-.071-.174-.663.197-.748q.286-.065.594-.102c.92-.11 1.948-.052 2.784.045.378.046.158.579.189.633.502.877.669-.367.808-.451.88-.495 1.62.031 2.442-.181.227-.057.023-.63.064-.686.439-.544.16.533.468.628.853.269 1.81.155 2.657.022.312-.05-.087-.705.193-.742 1.639-.23 3.412-.282 5.042-.011.308.052.151.588.222.703.494.808 1.074-.374 1.215-.492.646-.538.937-.092 1.525-.215 2.896-.611 6.494-.511 9.269-.469 3.6.054 6.397.419 9.82.139.216-.017-.032-.704.153-.728 2.413-.273 4.817-.095 7.229-.383.2-.024-.112-.673.207-.732m-194.042 24.326c-.297-.39-.898.204-.527.689.3.389.89-.202.527-.689m5.834-1.044c.848.665.515-2.5-.187-1.749-.04.047.138 1.71.187 1.749m39.537-1.605c-.348.759-.852.899-1.289.042.428.001.858-.039 1.289-.042m-32.655-1.337c-.555-.694-.682 1.033-.45 1.304.763.892 1.007-.609.45-1.304m59.004-3.106c.137-.73-.651-.706-.41.013.013.029.402.017.41-.013m-.968-2.637c.548.559.387-1.679-.081-1.092-.022.031.053 1.065.081 1.092m25.755-.325c-.078-.604-.451-.395-.269.152.011.033.293.035.269-.152m17.192-.059c.363-1.203-1.474-1.155-.96.026.029.06.936.035.96-.026m124.967-9.24c.21-.712-.576-.77-.409-.029.007.029.4.058.409.029M275.828 236.345c1.221-.204 2.332 2.273 1.177 2.225-.218-.004.243-.918-.072-1.087-.282-.157-.435.195-.546.485-.061.146-.115.277-.179.324-.033.024-.069.027-.099-.004a.12.12 0 0 1-.032-.079c.002-.048-.006-.073.092-.249.087-.165-.201-.026-.311-.173-.123-.123-.143-.353-.151-.569-.003-.439.095-.873.122-.876zM416.5 218.731c.457-.095 1.029-.05 1.478.168.219.105-.086.667.134.762a2.84 2.84 0 0 0 1.614.185c.228-.041-.099-.725.195-.727 2.024-.024 4.014-.085 6.018.861.138.065.213 1.443.518 1.19.036-.38.051-.829.075-1.236 2.94-.114 5.819.495 8.741.725.123.009-.051-.729.188-.715 1.382.085 2.739-.039 4.105.767.136.079-.012 1.353.412 1.185.075-.031.704-.165.88-.433.024-.042-.052-.644.15-.649a9.4 9.4 0 0 1 3.507.632c.182.072-.057.695.073.752.92.397 1.974-.019 2.835.617.575.428.281 1.511.529 2.613.035.156.406.204.384.835-.054 1.585-.347 3.305-.384 4.996-.008.364.515.006.163.864-.026.058-.405.325-.513.616-.076.202-.005.85-.149 1.105-.143.255-.247-.291-.477.005-.229.3-.185 1.033-.608 1.093-.982.131-2.236-.16-3.181-.507-.296-.108-.119-.495-.322-.588-.397-.18-.789-.009-1.18-.218-.129-.071.076-.689-.06-.75-.748-.325-1.485-.21-2.251-.39-3.781-.889-7.518-1.324-11.365-1.766-1.276-.145-2.796-.771-4.121-.562-.156.025-.081.58-.112.625-.482.683-.294-.427-.587-.585-1.168-.62-2.492-.704-3.642-.514-.486.082-.023 1.19-.499.564-.032-.045.102-.627-.03-.692-.299-.147-.881-.052-1.115-.102-.447-.1-.521-.095-.949-.108-.588-.023-1.279-.324-1.907-.198-.135.029.037.633-.178.733-.214.1-.788.044-.971-.099-.188-.144-.104-.616-.137-.725-.269-.916-.932.344-1.018.378-1.538.526-2.85-.195-4.296-.186-1.093.008-2.274.256-3.305.235-1.245-.026-2.291-.337-3.508-.259-.128.008.035.712-.121.723-1.637.114-3.279.076-4.945-.355-.164-.044.028-.67-.137-.752-1.013-.482-2.674-1.656-3.174 1.068-.685-.083-1.531-.161-2.154-.683-.406-.336-.05-1.027-.523-.72-.107.07.058.656-.104.714-.685.243-1.451.081-2.115.415-.135.07-.076.598-.111.696-.296.787-.903-.467-1.029-.555a2.6 2.6 0 0 0-.486-.265c-.697-.289-1.264-.081-1.968-.061-.198.006.07.706-.12.737-.992.149-1.996.138-2.99-.128-.22-.061-.052-.678-.159-.738-.471-.258-.506.893-.952.669-.094-.046-.07-.569-.09-.625-.308-.88-.467.396-.533.431-.83.428-1.455-.866-2.261-.633-.096.029.161.674-.113.716a15.4 15.4 0 0 1-5.646-.195c-.288-.063-.117-.568-.138-.629-.349-.932-.46.353-.549.407-.708.39-1.463-.634-1.858.914-3.128-.33-6.136.728-9.298-.414-.04-.012-.015-.643-.094-.667-.961-.286-.713.675-1.247 1.911-.135.31-.714-1.094-.763-1.196-.181-.378-.089-1.322-.146-1.394-.466-.559-.175 2.519-.746 2.562-.018-.005.015-.575-.036-.63-.162-.166-.294.069-.454-.115-.366-.428-.596-1.918-1.042-1.009-.057.118.17 1.861-.346 1.816-.207-.02-1.104.076-1.365-.018-.26-.095-.13-.671-.15-.694-.734-.695-.501-1.023-.924-2.1-.423-1.073-.131 1.541-.248 1.844-.117.302-.662-.276-.8-.48-.139-.205-.013-.574-.132-.687-.782-.735-.218 1.324-.424 1.759-.485 1.028-1.07-.882-1.598-1.033-.143-.041.004.393-.116.444-.477.196-.819-.388-1.333.212-.085.097-.444 1.301-.802.466-.051-.121.028-.613-.189-.706-.324-.138-.895-.2-1.216-.012-.238.14.108.915-.223.692-.147-.099.073-.587-.201-.735-.273-.149-.933-.076-1.184-.039-.248.037-.064.628-.08.673-.104.243-.563.574-.605.576-2.142.247-4.209-.611-6.269-.1-.161.039 0 .669-.024.682-.537.312-.237-1.42-.678-1.955.165 1.29-.087 1.075-.472 1.25-.185.085-.04.576-.052.631-.219.785-.499-.182-.567-.379-.25-.723-.379.167-.548-.316-.169-.48.062-1.232-.315-1.192-.067.473.315 1.661.045 1.881-1.023.834-3.132.057-4.017.035-.884-.023-1.157.087-1.678-.036-.94-.223-.526.647-1.063 1.108-.538.461-.453-1.774-.577-2.242s-.169.029-.292-.222c-.123-.252.065-.595-.179-.673-.245-.077-.813.825-.852 1.329-.081 1.069.304 2.148-.348 1.815-.038-.021.025-.611-.116-.658-1.142-.349-2.26-.277-3.391-.573-.156-.043-.08-.701-.171-.733-.948-.33-.524.73-.91 1.986-.035-1.621-.401-2.582-1.084-2.529-.413.031-.28.729-.504 1.25-.067.157-.406-.3-.429.036-.075 1.098.311 2.283-.442 1.867-.033-.02.011-.621-.099-.648-.718-.17-.68.968-1.431 1.176-.586.163-1.688-.43-2.368-.479-.157-1.812-.758-1.337-.896-.065-.441-.009-.902.106-1.333-.027-.148-.046-.105-.576-.128-.633-.367-.862-.443.371-.533.428-.986.561-1.876-.282-2.778.714-.032.035.034 1.299-.315.406-.022-.063.241-.666-.218-.665-.456-.001-1.386-.59-1.967.056-.14.156-.426 1.214-.812.448-.051-.104-.042-.47-.121-.665-.255-.62-.23.661-.572-.395-.338-1.057-.901-1.817-1.46-1.009-.018.024-.068 1.046-.267 1.05-.312.005-.811-.156-1.143-.116-.161.02.006.635-.021.65-1.022.458-1.888-.017-3.037-.142h-.017c-.229.027-.723.896-1.203.292-.543-.677-.473-3.799-1.414-2.935-.39.348-.408 4.299-1.406 2.385-1.414.694-2.854-.16-4.236.754-.061.042-.116 1.15-.268 1.158-.222.006-.425-.482-.596-.492-.716-.056-1.261.462-1.938.49-.25.01-.24-.525-.534-.512-.3.014-.414.733-.86.458-.333-.21-.848-1.572-1.283-1.675.186 1.39-.082 1.401-.527 1.841-.085.087.09.551.054.618-.149.276-.379-.098-.508.198-.032.071.038.545.017.631-.164.738-.84-.249-.943-.422-.419-.655-.471-.018-.764-.255-.288-.238.022-.642-.289-.766-.623-.257-1.399-.053-1.988.025-.236.034.031.637 0 .657-.477.245-1.094-.337-1.129.963-.945-3.173-.228.364-1.056-.148-.063-.049-.431-1.557-.263-1.821.178-.267.583.152.829-.255.059-.097.197-1.603.246-1.701.327-.757.773 1.524.821 1.647.503 1.312.713-.315.834-.446.515-.59 1.083-.35 1.516-.778.293-.279.101-1.788.354-1.782.886.019 1.481 2.078 2.028.133.11-.415-.308-2.034.501-.832.047.077.702 1.192.841.406.019-.1-.053-.58-.016-.627.253-.303.506.051.809-.179.294-.229.625-.555 1.022-.446.239.066.653.921.783 1.126.378.591.552-.488.846.25.295.743.088 1.961.653 2.389-.155-1.251-.29-2.539-.434-3.799 1.054-.101 2.158.159 3.24-.042.135-.027-.09-.68.045-.725.569-.185 1.161.224 1.772-.051.447-.212.88-.993 1.371-1.239.518 1.387 1.16.81 1.732.869.197.02.235.404.388.511.579.393.175-.835.29-1.056l.122-.014.001-.001c.5-.912.847 1.952 1.552 1.808.037-.007.347-1.585.403-1.687.333-.661.121.525.379.614.472.16.827.493 1.326-.01.146-.149.436-1.142.806-.434.049.093.079.6.113.627.628.436.486-1.155.767-1.727.28-.572.925.472 1.051.779.35.791-.168.37-.181.452-.082.973.282.771.57.823.196 1.555.584 1.422.303.049-.032-.149-.239.017-.303-.049.097-1.553.517-1.792 1.15-.412.296.648.156 1.45.83 1.095.296-.16.071-1.22.317-1.54.559-.729 1.501.189 2.134-.031.229-.08-.056-.645.099-.72.411-.201.833.204 1.247-.064.038-.025-.117-.631.018-.652 1.033-.171 1.926.142 3.011.05.517-.044 1.394-.468 1.939-.45.954.027 2.145.819 2.926.528.506-.187.338-.792.52-1.231.347-.852 1.232.535 1.354.752.004.007-.426.193-.161.487.197.646.157-.484.161-.487.079.139.979.199 1.148.065.09-.073-.016-.652.033-.679 1.126-.628 2.316-.884 3.534-.717.022.015.048.666.099.681.718.229 1.094-.609 1.629-1.134.539-.525.998-.405 1.437.686.419-.179 1.084.262 1.469.532.385.269.326-1.002.356-1.033.906-.888 1.535-.209 2.566-.183.493.014 1.428-.251 1.943-.434.405-.147.68.13 1.047-.093.049-.029-.049-.585-.036-.614.371-.713.282.688.39.927.393.872.628 1.334 1.138.866.117-.111.318-2.129.538-2.264.287-.172.233.55.531.352.026-.017-.016-.456.179-.453.904.01 1.895.188 2.824.068.127-.015-.092-.7.09-.733.857-.152 1.799-.202 2.666.058.214.066.124.566.18.708.345.856.634-.447.697-.48 1.486-.735 2.756.329 4.279-.341.082-.039.635-1.459 1.018-.307.026.077.407 1.257.601.416.011-.055-.215-.658.104-.619.32.039.797-.412 1.281.236.154.204.567 1.377.904.392.023-.076.495-2.274.83-.802.055.242.133 1.823.562.979.082-.164-.113-.503.116-.741.352-.367.883.019 1.295-.718.072-.133.338-1.225.672-.433.053.125.009.657.159.706.713.232 1.415-.172 2.143.143.258.11.192.971.467 1.181.276.21.812.394 1.058-.015.245-.408-.147-1.745.253-1.882 1.739-.595 3.556.083 5.328.084.264 0 .014-.472.402-.507 1.426-.13 3.867-.74 5.164.218 1.042.767-.17 1.473.61 1.763.377.139.68-1.464.765-1.519.837-.557 1.467.108 2.238-.151.158-.054-.036-.685.1-.724.463-.138.97.12 1.412.043.198-.037.135-.523.32-.495.442.06.847.244 1.303.679.041.041-.19.662.139.667.531.006 1.209.424 1.787-.074.171-.15.121-1.268.551-.517.09.157.055 1.505.45.322.067-.197.749-1.799 1.17-.809.111.261.414 1.347.62 1.164.028-.029-.118-.624.057-.691.628-.227 1.302-.194 1.941-.412.171-.06-.115-.668.14-.737.207-.056.431-.085.661-.094.562-.022 1.159.071 1.656.188.26.062.104.585.125.64.338.897.463-.336.559-.415.596-.454 1.11.104 1.675-.071.156-.047.022-.629.052-.683.307-.523.104.54.314.648.587.307 1.232.236 1.82.141.215-.036-.051-.708.142-.733 1.134-.156 2.343-.129 3.462.214.211.066.095.595.142.713.318.829.739-.326.838-.437.453-.509.645-.051 1.051-.148 1.992-.481 4.47-.22 6.367-.053 2.465.214 4.38.701 6.731.574.149-.007.001-.704.129-.719 1.661-.165 3.309.119 4.971-.061.138-.014-.052-.677.17-.721m-132.805 15.515c-.23-.4-.606.16-.329.658.22.402.611-.16.329-.658m3.979-.773c.608.7.243-2.46-.206-1.747-.025.043.171 1.706.206 1.747m27.075.196c-.225.741-.564.857-.879-.016.292.02.583 0 .879.016m-22.458-2.807c-.408-.715-.424.996-.255 1.276.558.921.664-.561.255-1.276m40.419-.427c.083-.722-.456-.733-.281-.004.01.028.275.034.281.004m-.701-2.673c.383.582.24-1.657-.071-1.091-.015.036.051 1.054.071 1.091m17.621.841c-.059-.605-.313-.414-.183.14.008.033.202.048.183-.14m11.75.719c.24-1.184-1.014-1.219-.655-.019.018.062.639.078.655.019m85.349-3.635c.188-.702-.343-.794-.277-.048.003.03.268.077.277.048M305.171 337.323c.889-.217 1.934 2.242 1.215 2.158-.138-.009-.011-.882-.24-1.054-.181-.125-.232.074-.25.299-.036-.049-.189-.013-.318-.086-.157-.083-.254-.284-.313-.485-.114-.409-.122-.829-.093-.836zm.716 1.556c0 .134 0 .256-.011.288-.004.015-.013.01-.019-.034-.004-.048-.012-.089.032-.293zm.009-.153q.013.014.008.043l-.015.071q.002-.057.007-.114m104.84-15.848c.921.104 1.841-.002 2.696.82.086.081-.102 1.349.192 1.187.052-.03.482-.154.618-.418.019-.041.011-.643.145-.646a4.27 4.27 0 0 1 2.289.678c.116.074-.089.691-.007.75.581.408 1.311.008 1.833.652.348.434.072 1.51.153 2.61.011.156.252.209.19.836-.156 1.578-.48 3.288-.632 4.971-.033.363.34.013.042.863-.021.057-.292.318-.386.607-.065.2-.067.846-.181 1.098s-.142-.292-.316-.001c-.174.296-.201 1.027-.484 1.08-.658.118-1.461-.187-2.055-.546-.186-.111-.041-.493-.168-.588-.248-.185-.517-.02-.758-.233-.079-.073.1-.686.015-.748-.467-.333-.958-.228-1.447-.417-2.413-.933-4.827-1.411-7.309-1.896-.822-.16-1.783-.803-2.661-.609-.102.024-.078.576-.1.622-.339.677-.17-.429-.354-.59-.737-.633-1.601-.731-2.354-.555-.321.077-.057 1.189-.346.558-.02-.044.088-.625.004-.692-.192-.15-.573-.062-.722-.115-.29-.105-.339-.101-.619-.119-.388-.03-.821-.337-1.24-.218-.089.027.008.632-.135.73-.146.097-.508.035-.628-.11s-.054-.617-.073-.726c-.155-.92-.621.335-.677.365-1.01.509-1.851-.226-2.802-.234-.707-.005-1.484.23-2.159.198-.821-.041-1.499-.363-2.294-.298-.082.008.022.712-.078.721-1.075.095-2.149.039-3.234-.411-.109-.046.014-.669-.096-.753-.676-.494-1.769-1.686-2.071 1.031-.459-.09-.996-.179-1.421-.708-.273-.34-.048-1.026-.357-.724-.069.067.049.654-.057.711-.454.236-.941.065-1.379.392-.088.068-.039.597-.06.694-.138.597-.416.005-.58-.349a1.5 1.5 0 0 0-.107-.218c-.628-.664-1.055-.368-1.62-.354-.131.003.061.706-.062.735-.633.137-1.313.114-1.965-.163-.144-.065-.052-.677-.123-.739-.313-.263-.308.886-.609.656-.063-.047-.062-.568-.076-.625-.228-.883-.299.394-.341.425-.54.418-.975-.882-1.505-.659-.063.028.126.673-.053.713-1.202.263-2.492.175-3.727-.26-.192-.067-.096-.571-.112-.63-.263-.935-.292.347-.349.4-.457.381-.983-.651-1.191.889-2.074-.366-4.02.654-6.153-.524-.027-.014-.037-.643-.091-.667-.647-.297-.443.666-.743 1.893-.076.305-.516-1.1-.554-1.204-.135-.378-.115-1.319-.156-1.391-.333-.565-.008 2.51-.383 2.545-.012-.011-.014-.573-.051-.628-.114-.168-.191.066-.305-.12-.261-.431-.478-1.92-.733-1.018-.032.117.195 1.857-.148 1.805-.137-.021-.725.064-.902-.034-.176-.097-.117-.667-.13-.693-.518-.701-.378-1.027-.707-2.107-.329-1.074-.017 1.536-.08 1.837-.064.3-.45-.282-.552-.488-.101-.206-.035-.573-.118-.687-.552-.742-.083 1.319-.199 1.75-.272 1.018-.748-.892-1.104-1.05-.097-.042.02.39-.056.441-.307.189-.561-.396-.872.195-.051.096-.231 1.292-.508.455-.039-.121-.011-.612-.159-.706-.22-.142-.601-.211-.806-.027-.151.136.117.914-.113.688-.103-.101.019-.585-.169-.736s-.621-.087-.784-.054c-.163.034-.012.627-.021.671-.057.241-.342.565-.37.567-1.406.219-2.816-.661-4.153-.176-.106.037.035.667.02.679-.342.307-.233-1.418-.553-1.956.177 1.287-.001 1.07-.246 1.24-.118.083.005.576-.001.628-.103.78-.339-.187-.394-.384-.203-.725-.242.162-.379-.323-.137-.48-.025-1.227-.272-1.191-.019.47.298 1.658.13 1.874-.639.82-2.067.019-2.659-.014-.585-.033-.759.073-1.11-.057-.641-.232-.317.639-.645 1.092-.329.453-.399-1.773-.507-2.24s-.11.026-.206-.227c-.096-.252.009-.59-.156-.67-.166-.08-.49.81-.488 1.312.005 1.064.325 2.143-.132 1.804-.026-.02-.017-.609-.114-.657-.773-.362-1.509-.304-2.278-.613-.105-.043-.094-.699-.156-.731-.645-.342-.302.72-.483 1.966-.12-1.614-.41-2.577-.871-2.531-.275.026-.144.722-.261 1.238-.036.154-.285-.303-.28.031.015 1.092.341 2.277-.18 1.853-.023-.021-.03-.619-.104-.646-.478-.18-.406.956-.882 1.153-.376.154-1.136-.45-1.599-.506-.214-1.806-.58-1.341-.592-.075-.292-.016-.585.093-.889-.044-.103-.047-.106-.577-.125-.632-.297-.861-.269.362-.325.419-.606.545-1.272-.302-1.794.677-.018.038.106 1.291-.18.399-.018-.063.115-.659-.187-.664-.295-.008-.968-.602-1.301.032-.083.153-.194 1.201-.509.435-.042-.105-.059-.468-.126-.663-.213-.619-.116.656-.408-.4-.293-1.055-.713-1.819-1.027-1.022-.008.027.022 1.038-.113 1.042-.218.002-.548-.166-.765-.13-.104.017.047.632.03.646-.547.376-1.081.083-1.687-.1l.011-.002a4 4 0 0 0-.349-.065c-.149-.02-.398.894-.778.273-.418-.679-.654-3.771-1.215-2.925-.232.342.145 4.249-.725 2.346-.852.665-1.926-.193-2.747.692-.037.04.039 1.134-.07 1.143-.157.005-.336-.481-.449-.494-.466-.067-.807.444-1.238.46-.163.007-.209-.523-.415-.513-.204.011-.199.719-.521.441-.245-.211-.74-1.562-1.033-1.671.27 1.375.088 1.384-.166 1.814-.048.083.118.547.101.611-.068.271-.258-.102-.311.188-.013.07.085.539.078.623-.052.731-.583-.256-.674-.428-.353-.652-.328-.022-.542-.261s-.058-.634-.277-.76c-.463-.258-.945-.069-1.337.002-.161.032.092.62.076.646-.276.232-.77-.346-.634.933-1.039-3.131-.116.358-.723-.16-.049-.041-.514-1.529-.426-1.79.077-.256.428.153.531-.241.027-.097-.058-1.576-.04-1.671.138-.745.721 1.507.766 1.628.486 1.301.453-.306.512-.431.292-.578.692-.333.94-.751.163-.272-.138-1.764.049-1.756.592.03 1.226 2.068 1.383.154.034-.408-.404-2.018.257-.817.043.078.581 1.187.613.409.003-.099-.092-.574-.073-.62.137-.296.341.058.518-.166.183-.225.378-.545.649-.43.164.068.527.92.64 1.123.322.586.322-.477.59.258.267.739.251 1.942.664 2.374-.224-1.241-.439-2.518-.657-3.767.714-.091 1.481.18 2.172-.004.087-.024-.126-.674-.035-.717.391-.182.796.235 1.183-.03.306-.21.503-.974.809-1.212.458 1.383.869.814 1.242.882.132.023.191.404.301.512.418.398.04-.83.099-1.044.094-.341.229-.159.384.196l.169-.026c.231.603.503 1.691.787 1.607.024-.014.118-1.572.148-1.673.185-.656.117.524.301.614.339.163.583.501.881.006.085-.147.208-1.129.512-.423.039.093.092.599.118.626.449.441.244-1.144.393-1.71.148-.565.636.482.748.788.292.791-.094.368-.093.449.01.967.238.77.442.825.235 1.549.481 1.422.205.051-.03-.148-.156.015-.205-.051-.031-1.546.225-1.778.734-.396.237.648.195 1.445.617 1.101.193-.156-.026-1.214.122-1.531.327-.718.996.209 1.413-.004.152-.077-.077-.643.024-.716.264-.195.564.213.821-.048.023-.025-.117-.63-.03-.649.671-.157 1.298.164 2.005.087.346-.038.905-.45 1.265-.425.626.039 1.482.84 1.975.561.324-.18.176-.785.272-1.221.189-.844.855.549.948.766.003.007-.269.187-.077.483.168.645.074-.48.077-.483.061.14.659.21.763.079.056-.071-.048-.649-.018-.676.729-.613 1.48-.851 2.313-.672.016.013.07.664.105.679.488.236.69-.594 1.015-1.11.325-.515.649-.392.996.701.268-.173.732.275 1.002.548.268.273.161-.989.178-1.025.564-.875 1.01-.191 1.696-.152.327.02.941-.233 1.27-.409.26-.141.457.137.689-.08.031-.029-.063-.587-.056-.612.209-.706.223.688.307.928.308.874.491 1.337.803.877.072-.105.101-2.117.24-2.251.181-.168.183.552.371.357.016-.021-.033-.454.095-.449.603.022 1.271.209 1.881.101.083-.015-.096-.697.023-.729.562-.142 1.188-.18 1.776.09.145.069.109.566.153.708.271.857.4-.439.44-.471.955-.715 1.847.36 2.828-.29.053-.038.355-1.447.663-.293.021.08.328 1.256.419.421.005-.053-.174-.659.041-.616.214.043.511-.401.862.25.111.205.438 1.381.619.402.011-.068.226-2.265.515-.791.047.243.169 1.821.417.984.047-.163-.099-.504.044-.739.218-.361.588.03.83-.699.042-.129.171-1.22.428-.425.04.125.034.656.136.706.483.24.933-.155 1.432.168.176.114.167.971.359 1.184s.556.402.701-.003c.146-.404-.169-1.743.091-1.875 1.136-.574 2.368.123 3.549.145.174.002-.008-.471.246-.501.946-.113 2.547-.695 3.447.276.717.778-.061 1.469.464 1.768.252.142.401-1.453.456-1.508.539-.546.988.125 1.485-.125.103-.053-.045-.684.043-.722.303-.133.652.131.945.059.131-.034.074-.521.199-.492.299.065.569.254.884.694.028.041-.108.658.111.667.356.013.82.438 1.193-.054.111-.147.048-1.265.35-.509.065.157.074 1.504.307.326.039-.197.456-1.788.762-.795.081.263.31 1.35.444 1.17.018-.029-.094-.624.021-.69.406-.219.859-.18 1.283-.391.114-.057-.091-.669.079-.735.261-.101.563-.106.859-.06.242.036.48.103.691.18.176.065.08.585.095.641.244.902.305-.334.369-.409.394-.448.733.116 1.115-.052.104-.045.005-.629.024-.682.199-.52.079.541.222.651.403.313.821.25 1.216.161.145-.033-.042-.709.088-.731.767-.144 1.561-.103 2.324.252.142.069.068.595.101.714.222.832.486-.318.551-.428.303-.504.435-.043.708-.136 1.323-.459 3.004-.171 4.266.017 1.647.241 2.936.751 4.509.652.1-.006.013-.705.1-.719 1.114-.146 2.221.159 3.345-.001.092-.013-.015-.677.134-.719.308-.089.698-.037.994.187.145.109-.079.666.066.763.335.228.717.292 1.079.204.154-.039-.042-.725.157-.723 1.363.001 2.711-.035 4.014.935.09.069.074 1.444.291 1.196.042-.38.074-.827.111-1.233 1.985-.075 3.884.571 5.827.839.082.012.013-.726.171-.709M310.282 335.33c-.196-.398-.382.149-.144.646.188.398.383-.15.144-.646m2.6-.719c.471.702-.086-2.429-.311-1.73-.013.039.284 1.69.311 1.73m18.013.521c-.102.734-.318.846-.58-.027.194.024.385.007.58.027m-15.172-3.049c-.337-.713-.186.979-.047 1.259.455.922.385-.544.047-1.259m26.887.048c.015-.718-.341-.736-.186-.008.008.029.185.038.186.008m-.609-2.672c.285.585.069-1.648-.107-1.089-.008.03.092 1.052.107 1.089m11.721 1.051c-.068-.604-.227-.416-.115.138.007.033.136.05.115-.138m7.803.859c.109-1.179-.72-1.229-.433-.027.016.063.425.086.433.027m56.3-2.617c.178-.696-.166-.795-.179-.05 0 .03.172.079.179.05M110.54 441.783c3.287-.2 5.472 2.287 1.911 2.28-.638.001 1.314-.954.472-1.12-1.493-.3-2.543 1.434-3.719.742-.592-.071 1.163-1.918 1.342-1.906zm410.854-19.996c1.306-.102 2.94-.067 4.247.144.644.102-.221.67.429.76 1.511.213 3.118.261 4.646.158.652-.046-.334-.724.52-.73 5.814-.058 11.525-.153 17.381.758.403.063.749 1.439 1.604 1.181.067-.381.067-.829.098-1.237 8.443-.164 16.815.395 25.281.573.356.007-.25-.729.439-.718 4.003.06 7.893-.089 11.972.694.406.077.18 1.354 1.379 1.178.215-.033 2.012-.177 2.483-.448.064-.041-.256-.643.326-.652a77 77 0 0 1 10.27.57c.543.069-.046.696.341.751 2.739.382 5.733-.053 8.346.567 1.749.418 1.081 1.508 1.996 2.607.131.155 1.217.197 1.262.828.119 1.588-.436 3.315-.248 5.008.04.364 1.503-.004.626.862-.062.058-1.121.332-1.386.625-.185.204.13.851-.243 1.109-.374.257-.771-.287-1.387.013-.617.304-.361 1.038-1.583 1.104-2.842.149-6.555-.12-9.379-.451-.883-.103-.429-.494-1.038-.583-1.193-.173-2.31.005-3.491-.198-.389-.069.106-.691-.302-.749-2.24-.313-4.38-.184-6.651-.351-11.219-.825-22.242-1.197-33.601-1.574-3.752-.124-8.305-.725-12.164-.493-.453.027-.188.579-.273.626-1.355.691-.907-.422-1.783-.574-3.475-.6-7.358-.662-10.739-.453-1.42.09.003 1.19-1.428.572-.1-.042.262-.629-.128-.692-.885-.141-2.578-.037-3.274-.084-1.335-.092-1.54-.086-2.796-.092-1.714-.013-3.779-.302-5.605-.165-.393.031.128.631-.498.735-.627.103-2.296.057-2.863-.083-.562-.141-.323-.614-.423-.722-.809-.912-2.722.362-2.97.394-4.525.552-8.389-.148-12.608-.115-3.248.026-6.642.293-9.71.29-3.628-.007-6.725-.299-10.268-.201-.376.01.073.712-.386.725-4.837.141-9.632.13-14.496-.273-.49-.041.131-.672-.359-.751-2.916-.466-7.702-1.612-9.368 1.121-1.985-.071-4.479-.135-6.254-.647-1.154-.33-.051-1.028-1.459-.713-.318.071.108.655-.369.716-2.003.255-4.282.107-6.235.453-.402.071-.282.599-.394.697-.947.794-2.588-.452-2.945-.538-.948-.224-1.81-.33-2.638-.373-1.497-.079-2.881.062-4.504.087-.58.008.121.706-.437.74-2.924.166-5.868.172-8.725-.078-.634-.057-.067-.679-.371-.737-1.339-.251-1.62.904-2.884.686-.267-.045-.13-.568-.18-.624-.782-.878-1.415.406-1.611.44-2.471.443-4.131-.843-6.517-.596-.286.031.376.673-.429.72-5.382.315-11.088.282-16.45-.101-.829-.059-.252-.57-.306-.629-.874-.929-1.39.362-1.659.417-2.121.403-4.157-.612-5.567.947-9.048-.279-18.022.835-27.035-.258-.114-.012.07-.646-.157-.668-2.747-.271-2.193.689-3.969 1.938-.447.313-1.882-1.086-2.008-1.188-.46-.375-.023-1.324-.176-1.395-1.26-.555-.964 2.53-2.636 2.582-.051-.007.149-.578.008-.631-.441-.164-.867.074-1.3-.108-.99-.423-1.385-1.914-2.851-.994-.185.119.157 1.863-1.34 1.826-.597-.016-3.233.097-3.975.007-.738-.091-.256-.667-.305-.694-2.012-.684-1.268-1.018-2.299-2.093-1.031-1.07-.672 1.549-1.069 1.855-.397.305-1.875-.265-2.24-.468-.364-.203.07-.576-.252-.687-2.137-.725-.885 1.334-1.568 1.773-1.609 1.04-2.949-.868-4.457-1.01-.408-.039-.062.394-.422.447-1.428.204-2.305-.376-3.921.234-.264.1-1.545 1.314-2.426.482-.124-.12.202-.616-.411-.705-.918-.133-2.565-.186-3.539.009-.719.143.136.916-.782.698-.408-.098.326-.591-.439-.735-.764-.145-2.702-.06-3.438-.019-.734.041-.311.634-.369.677-.352.246-1.753.585-1.877.589-6.281.283-12.118-.543-18.229.006-.477.042-.136.671-.209.684-1.63.324-.397-1.422-1.561-1.952.21 1.293-.471 1.082-1.631 1.265-.558.089-.236.58-.285.634-.804.792-1.415-.174-1.571-.371-.575-.723-1.143.175-1.533-.308-.389-.48.443-1.24-.667-1.192-.295.476.571 1.661-.264 1.888-3.128.854-9.148.112-11.682.103-2.573-.008-3.394.107-4.886-.008-2.692-.208-1.675.659-3.322 1.131-1.671.474-.932-1.774-1.191-2.242-.255-.467-.496.031-.8-.219-.304-.252.321-.599-.374-.673-.696-.073-2.551.843-2.776 1.351-.476 1.074.409 2.152-1.42 1.828-.104-.021.211-.614-.189-.658-3.195-.334-6.543-.239-9.713-.52-.444-.039-.073-.703-.332-.733-2.69-.316-1.693.743-3.107 2.012.268-1.629-.579-2.588-2.583-2.523-1.203.038-.965.736-1.729 1.263-.232.158-1.116-.294-1.259.044-.475 1.105.379 2.29-1.723 1.884-.092-.019.176-.624-.141-.648-2.045-.16-2.243.985-4.419 1.205-1.747.173-4.847-.402-6.789-.441-.018-1.819-1.874-1.332-2.584-.05-1.286-.002-2.659.122-3.887-.004-.421-.043-.167-.578-.221-.635-.847-.86-1.34.38-1.624.439-3.023.582-5.399-.252-8.255.765-.101.036-.217 1.305-1.018.414-.052-.062.869-.674-.476-.665-1.356.008-3.836-.571-5.723.089-.449.159-1.55 1.229-2.488.465-.125-.104-.007-.471-.189-.666-.588-.619-.845.669-1.544-.389-.688-1.058-2.168-1.813-4.002-.99-.058.025-.461 1.054-1.044 1.061-.926.011-2.265-.145-3.27-.097-.475.023-.145.638-.227.652-3.145.481-5.445.015-8.813-.088-.228-.008-.609.115-1.055.241-.793.221-1.784.451-2.562.065-1.352-.675-.181-3.825-3.121-2.94-1.213.357-2.622 4.348-4.873 2.432-4.287.723-8.233-.111-12.491.834-.192.042-.744 1.165-1.191 1.174-.664.011-1.048-.479-1.516-.488-2.11-.041-3.776.486-5.802.529-.738.016-.513-.525-1.38-.507-.844.018-1.423.745-2.636.476-.927-.205-1.82-1.577-3.079-1.672.035 1.402-.813 1.42-2.194 1.87-.268.087.052.557-.073.624-.544.283-1.075-.091-1.569.212-.121.072-.099.551-.195.637-.799.752-2.3-.239-2.559-.411-.992-.654-1.331-.011-2.097-.245-.752-.236.323-.653-.542-.771-1.748-.248-3.94-.035-5.744.058-.687.038-.178.646-.276.667-1.458.255-2.964-.327-3.682.998-1.199-3.216-.855.376-2.976-.133-.163-.041-.488-1.578.126-1.851.66-.277 1.584.146 2.459-.271.183-.097 1.28-1.631 1.456-1.731 1.175-.769 1.539 1.536 1.609 1.661.888 1.324 2.164-.331 2.582-.466 1.671-.603 3.192-.368 4.638-.81.99-.289.926-1.812 1.685-1.811 2.566.004 3.486 2.079 5.735.105.479-.421-.134-2.054 1.768-.85.137.075 1.521 1.197 2.243.397.091-.101.062-.585.187-.632.833-.311 1.487.04 2.382-.195.898-.235 2.005-.572 3.114-.467.673.062 1.496.922 1.822 1.126.893.591 1.783-.504 2.378.238.591.745-.4 1.978 1.037 2.404-.016-1.262.033-2.561.048-3.831 3.103-.121 6.188.125 9.348-.095.379-.028-.045-.685.362-.732 1.699-.196 3.372.201 5.121-.081 1.375-.223 2.896-1.019 4.402-1.276.943 1.397 3.077.798 4.707.849.569.017.552.403.964.509l.169.038.034-.002c1.261.271.597-.889.973-1.098 1.7-.928 1.966 1.95 4.067 1.792.123-.008 1.394-1.6 1.567-1.703 1.131-.671.212.528.943.611 1.339.154 2.29.483 3.878-.033.469-.152 1.491-1.154 2.412-.449.12.094.076.603.171.629 1.722.427 1.709-1.171 2.674-1.751.986-.581 2.506.462 2.824.767.828.79-.595.376-.633.459-.464.979.61.771 1.45.818.182 1.561 1.351 1.42.871.044-.055-.15-.701.021-.871-.044.671-1.565 1.954-1.813 3.459-.435.697.646.124 1.454 2.106 1.088.906-.165.511-1.229 1.308-1.555 1.811-.742 4.332.166 6.192-.065.688-.085-.007-.648.462-.726 1.248-.209 2.38.19 3.651-.086.115-.026-.192-.632.206-.656 2.967-.186 5.575.11 8.707.001 1.485-.051 4.159-.495 5.738-.486 2.717.013 6.033.788 8.368.482 1.503-.196 1.141-.8 1.768-1.245 1.203-.862 3.461.518 3.769.733-.028.013-1.272.205-.579.492.423.64.562-.467.579-.492.195.14 2.822.182 3.316.046.274-.075.098-.654.241-.682a45.5 45.5 0 0 1 10.409-.779c.062.009-.007.666.138.682 2.039.217 3.322-.631 4.988-1.167 1.646-.535 2.978-.423 4.009.666 1.258-.187 3.097.245 4.159.509 1.049.265 1.149-1.015 1.239-1.043 2.823-.907 4.511-.237 7.496-.228 1.406.007 4.197-.275 5.726-.467 1.206-.155 1.956.119 3.057-.111.149-.03-.021-.592.023-.616 1.215-.722.669.686.932.925.959.869 1.549 1.33 3.127.851.363-.11 1.365-2.143 2.032-2.283.868-.178.563.549 1.471.344.078-.016.048-.458.611-.457 2.603-.004 5.458.157 8.178.021.371-.017-.128-.701.408-.737 2.502-.167 5.257-.233 7.72.014.605.063.245.566.379.708.836.854 1.927-.463 2.115-.493 4.457-.763 7.931.284 12.478-.414.248-.04 2.119-1.474 3.011-.324.062.079.944 1.253 1.664.408.045-.053-.5-.657.42-.624s2.386-.426 3.671.216c.406.202 1.389 1.374 2.551.379.078-.072 1.85-2.292 2.554-.819.114.244.052 1.827 1.45.972.267-.165-.237-.503.472-.745 1.088-.373 2.555.005 3.882-.74.232-.132 1.199-1.237 2.029-.446.13.123-.093.659.334.705 2.029.222 4.132-.195 6.19.109.728.106.384.972 1.146 1.178.76.206 2.297.38 3.077-.034.781-.414-.125-1.748 1.06-1.892 5.136-.625 10.28.025 15.429-.003.767-.004.119-.473 1.246-.514 4.144-.153 11.316-.805 14.929.135 2.92.752-.71 1.479 1.513 1.757 1.072.132 2.181-1.477 2.437-1.535 2.495-.572 4.242.084 6.512-.188.466-.057-.008-.685.388-.727 1.357-.145 2.787.105 4.075.02.577-.039.459-.526.992-.501 1.285.053 2.434.231 3.693.659.114.04-.637.668.311.667 1.539-.002 3.426.406 5.188-.103.523-.153.519-1.273 1.667-.526.24.156-.029 1.507 1.257.315.217-.198 2.38-1.815 3.473-.83.289.26 1.032 1.344 1.667 1.157.085-.031-.272-.623.252-.694 1.849-.237 3.778-.215 5.648-.443.498-.062-.259-.669.485-.741a20 20 0 0 1 .691-.055c1.953-.123 4.203-.025 5.992.112.74.059.242.583.295.639.885.895 1.36-.345 1.658-.423 1.812-.466 3.198.086 4.848-.098.455-.049.121-.63.21-.684.93-.529.251.538.846.643 1.644.299 3.572.217 5.254.112.621-.039-.089-.707.468-.735 3.255-.174 6.781-.167 9.961.16.612.062.236.592.365.71.897.824 2.166-.338 2.459-.451 1.334-.516 1.859-.06 3.032-.163 5.801-.514 12.879-.292 18.371-.156 7.115.174 12.603.632 19.4.466.429-.009-.007-.705.362-.722 4.798-.192 9.524.066 14.318-.142.397-.015-.175-.676.461-.724m-387.599 17.756c-.452-.405-1.815.173-1.191.673.512.4 1.782-.172 1.191-.673m11.74-.847c1.527.697 1.593-2.492.031-1.763-.09.044-.119 1.722-.031 1.763m78.453-.251c-.797.747-1.841.871-2.549-.002.843.016 1.724-.011 2.549.002m-64.226-2.464c-.945-.715-1.58 1.013-1.181 1.293 1.314.922 2.13-.577 1.181-1.293m117.176-1.09c.395-.726-1.171-.728-.816.001.024.028.791.029.816-.001m-1.467-2.672c.988.577 1.052-1.67.024-1.097-.049.032-.075 1.068-.024 1.097m51.042.548c-.057-.606-.831-.409-.56.144.018.033.578.044.56-.144m34.071.526c.905-1.192-2.742-1.207-1.906-.008.048.061 1.846.067 1.906.008m249.051-5.07c.427-.705-1.134-.788-.813-.043.013.03.794.072.813.043"/></svg>