<svg xmlns="http://www.w3.org/2000/svg" width="724" height="724" fill="none" viewBox="0 0 724 724"><path fill="#9f9f9f" d="M291.065 155.635q-4.063 0-6.76-1.873t-4.063-5.459q-1.332-3.618-1.333-8.728v-24.343q0-3.84.635-6.919t2.063-5.269a9.45 9.45 0 0 1 3.809-3.364q2.38-1.174 5.871-1.174 3.173 0 5.396 1.047 2.253 1.016 3.65 2.952 1.428 1.936 2.063 4.697.666 2.73.666 6.157v7.681h-8.22v-7.141q0-4.126-.698-6.062-.699-1.968-2.793-1.968-2.317 0-3.111 2.127-.762 2.094-.761 5.871v26.089q0 2.92.317 4.793.35 1.84 1.142 2.729.794.857 2.222.857 2.158 0 2.92-2.031t.762-6.443v-7.998h8.347v7.903q0 5.3-1.238 8.855-1.238 3.522-3.935 5.268-2.667 1.746-6.951 1.746M322.137 155.635q-4.349 0-7.11-1.841-2.729-1.84-4.03-5.459t-1.302-8.95v-25.55q0-4.824 1.27-8.252t4.031-5.268q2.76-1.84 7.236-1.84 3.364 0 5.681 1.047t3.745 3.046q1.428 1.968 2.063 4.825.667 2.824.667 6.442v25.55q0 5.332-1.27 8.95-1.238 3.618-3.935 5.459-2.699 1.84-7.046 1.841m0-7.364q1.587 0 2.38-.952.793-.951 1.047-2.888.286-1.968.286-4.951v-26.025q0-3.65-.698-5.618-.666-2-2.92-2-2.317 0-3.142 1.936-.825 1.905-.825 5.65v26.057q0 3.047.254 5.015.285 1.935 1.11 2.856.857.92 2.508.92M345.052 155v-48.496h-6.538v-7.363h21.296v7.363h-6.284V155zM367.522 155v-48.496h-6.538v-7.363h21.297v7.363h-6.284V155zM398.816 155.635q-4.347 0-7.109-1.841-2.73-1.84-4.031-5.459t-1.301-8.95v-25.55q0-4.824 1.27-8.252 1.269-3.428 4.03-5.268t7.237-1.84q3.363 0 5.681 1.047t3.745 3.046q1.428 1.968 2.063 4.825.666 2.824.666 6.442v25.55q0 5.332-1.269 8.95-1.238 3.618-3.936 5.459t-7.046 1.841m0-7.364q1.587 0 2.381-.952.793-.951 1.047-2.888.286-1.968.286-4.951v-26.025q0-3.65-.698-5.618-.667-2-2.92-2-2.317 0-3.142 1.936-.826 1.905-.826 5.65v26.057q0 3.047.254 5.015.286 1.935 1.111 2.856.857.92 2.507.92M418.812 155V99.14h6.665l11.838 33.516-.603-15.234V99.141h7.649V155h-6.03l-12.156-34.69.476 14.663V155zM317.027 255.571q-5.046 0-8.125-3.967-3.08-3.999-3.079-12.949v-24.28q0-3.745.698-6.697.73-2.952 2.222-4.983 1.524-2.063 3.936-3.11 2.412-1.079 5.808-1.079 3.681 0 5.998 1.111 2.317 1.078 3.555 3.174 1.269 2.063 1.746 5.078.476 3.015.476 6.823v3.968h-7.935v-5.84q0-3.777-.793-5.364-.762-1.587-2.92-1.587-2.38 0-3.301 1.873-.92 1.84-.92 6.57v24.216q0 5.268.761 7.554.794 2.253 3.269 2.253 2.412 0 3.396-2.317 1.016-2.349 1.016-7.808v-7.522h-4.285V224.5h11.712V255h-3.809l-1.301-5.491q-.699 2.888-2.984 4.475-2.253 1.587-5.141 1.587M350.003 255.635q-4.349 0-7.109-1.841-2.73-1.84-4.031-5.459t-1.301-8.95v-25.55q0-4.824 1.269-8.252 1.27-3.427 4.031-5.268 2.762-1.84 7.236-1.841 3.365 0 5.681 1.047 2.317 1.048 3.745 3.047 1.429 1.968 2.063 4.825.667 2.824.667 6.442v25.55q0 5.332-1.27 8.95-1.238 3.618-3.935 5.459t-7.046 1.841m0-7.364q1.587 0 2.38-.952.793-.951 1.048-2.888.285-1.968.285-4.951v-26.025q0-3.65-.698-5.618-.667-2-2.92-2-2.316 0-3.142 1.936-.825 1.905-.825 5.65v26.057q0 3.047.254 5.015.285 1.935 1.111 2.856.857.92 2.507.92M369.998 255v-55.859h8.506v48.623h10.759V255zM393.865 255v-55.859h12.537q4.253 0 6.824 1.713 2.57 1.683 3.713 4.888 1.174 3.206 1.174 7.744l.032 25.201q0 5.49-1.206 9.14-1.174 3.618-3.809 5.396-2.634 1.777-7.014 1.777zm8.506-6.602h2.793q1.492 0 2.476-.603 1.016-.602 1.491-2.126.508-1.555.508-4.38l-.032-27.581q0-4.284-1.047-6.157-1.047-1.872-3.682-1.872h-2.507zM341.497 355.635q-4.348 0-7.109-1.841-2.73-1.84-4.031-5.459t-1.301-8.95v-25.55q0-4.824 1.269-8.252 1.27-3.428 4.031-5.268 2.762-1.84 7.236-1.841 3.365 0 5.681 1.047 2.317 1.048 3.746 3.047 1.428 1.968 2.063 4.825.666 2.824.666 6.442v25.55q0 5.332-1.269 8.95-1.239 3.618-3.936 5.459t-7.046 1.841m0-7.364q1.587 0 2.38-.952.794-.951 1.048-2.888.285-1.968.285-4.951v-26.025q0-3.65-.698-5.618-.666-2-2.92-2-2.317 0-3.142 1.936-.825 1.905-.825 5.65v26.057q0 3.047.254 5.015.285 1.935 1.111 2.856.857.92 2.507.92M361.683 355v-55.859h8.505V355zM378.758 355v-55.859h8.506v48.623h10.759V355zM154.749 455v-55.859h8.506v22.597h7.617v-22.597h8.506V455h-8.506v-25.962h-7.617V455zM199.69 455.635q-4.348 0-7.077-1.619-2.73-1.65-3.999-4.951-1.27-3.332-1.27-8.411v-41.513h8.506v41.355q0 2.348.191 4.126.222 1.776 1.015 2.761.794.984 2.603.984t2.602-.952q.825-.984 1.016-2.762.19-1.777.19-4.157v-41.355h8.506v41.513q0 5.079-1.269 8.411-1.238 3.3-3.968 4.951-2.697 1.619-7.046 1.619M219.939 455v-55.859h10.569l7.935 40.815 7.458-40.815h10.633V455h-7.586v-20.82l.318-19.107-7.522 39.673h-6.761l-7.839-39.673.317 19.107V455zM261.644 455l7.966-55.859h11.235L289.319 455h-7.934l-1.333-9.966h-9.014L269.832 455zm10.219-16.79h7.3l-3.745-28.056h-.127zM294.397 455v-55.859h6.665l11.839 33.515-.603-15.234v-18.281h7.649V455h-6.03l-12.156-34.69.476 14.663V455zM336.736 455l7.967-55.859h11.235L364.412 455h-7.934l-1.333-9.966h-9.014L344.925 455zm10.22-16.79h7.3l-3.745-28.056h-.127zM370.823 455v-48.496h-6.538v-7.363h21.297v7.363h-6.285V455zM393.294 455v-48.496h-6.538v-7.363h21.296v7.363h-6.284V455zM412.845 455v-55.859h18.725v7.331h-10.219v16.25h9.711v7.173h-9.711v17.773h10.6V455zM438.235 455v-55.859h6.665l11.839 33.515-.603-15.234v-18.281h7.649V455h-6.031l-12.155-34.69.476 14.663V455zM475.115 455v-48.496h-6.538v-7.363h21.297v7.363h-6.285V455zM494.856 455v-55.859h8.506V455zM523.675 455.635q-4.349 0-7.11-1.841-2.729-1.84-4.03-5.459t-1.302-8.95v-25.55q0-4.824 1.27-8.252t4.031-5.268 7.236-1.841q3.365 0 5.681 1.047 2.317 1.048 3.745 3.047 1.428 1.968 2.063 4.825.667 2.824.667 6.442v25.55q0 5.332-1.27 8.95-1.238 3.618-3.935 5.459t-7.046 1.841m0-7.364q1.587 0 2.38-.952.793-.951 1.048-2.888.285-1.968.285-4.951v-26.025q0-3.65-.698-5.618-.666-2-2.92-2-2.317 0-3.142 1.936-.825 1.905-.825 5.65v26.057q0 3.047.254 5.015.285 1.935 1.11 2.856.858.92 2.508.92M543.67 455v-55.859h6.665l11.838 33.515-.603-15.234v-18.281h7.649V455h-6.03l-12.156-34.69.476 14.663V455z"/><path fill="#202020" d="M84.258 555v-55.859h18.726v7.331h-10.22v16.25h9.712v7.173h-9.712v17.773h10.601V555zM109.649 555v-55.859h10.569l7.934 40.815 7.459-40.815h10.632V555h-7.585v-20.82l.317-19.107-7.522 39.673h-6.76l-7.839-39.673.317 19.107V555zM166.397 555.635q-4.349 0-7.109-1.841-2.73-1.84-4.031-5.459t-1.301-8.95v-25.55q0-4.824 1.269-8.252 1.27-3.428 4.031-5.268 2.762-1.84 7.236-1.841 3.365 0 5.681 1.047 2.317 1.048 3.745 3.047 1.429 1.968 2.063 4.825.667 2.824.667 6.442v25.55q0 5.332-1.27 8.95-1.238 3.618-3.935 5.459t-7.046 1.841m0-7.364q1.587 0 2.38-.952.793-.951 1.048-2.888.285-1.968.285-4.951v-26.025q0-3.65-.698-5.618-.667-2-2.92-2-2.317 0-3.142 1.936-.825 1.905-.825 5.65v26.057q0 3.047.254 5.015.286 1.935 1.111 2.856.857.92 2.507.92M189.312 555v-48.496h-6.538v-7.363h21.296v7.363h-6.284V555zM209.053 555v-55.859h8.506V555zM237.872 555.635q-4.349 0-7.11-1.841-2.729-1.84-4.031-5.459-1.3-3.619-1.301-8.95v-25.55q0-4.824 1.27-8.252t4.03-5.268 7.237-1.841q3.364 0 5.681 1.047 2.317 1.048 3.745 3.047 1.428 1.968 2.063 4.825.666 2.824.667 6.442v25.55q0 5.332-1.27 8.95-1.238 3.618-3.936 5.459t-7.045 1.841m0-7.364q1.587 0 2.38-.952.793-.951 1.047-2.888.286-1.968.286-4.951v-26.025q0-3.65-.698-5.618-.667-2-2.92-2-2.317 0-3.142 1.936-.825 1.905-.825 5.65v26.057q0 3.047.253 5.015.286 1.935 1.111 2.856.857.92 2.508.92M257.867 555v-55.859h6.665l11.838 33.515-.603-15.234v-18.281h7.649V555h-6.03l-12.156-34.69.476 14.663V555zM288.526 555l7.966-55.859h11.236L316.202 555h-7.935l-1.333-9.966h-9.014L296.714 555zm10.22-16.79h7.299l-3.745-28.056h-.127zM321.28 555v-55.859h8.506v48.623h10.759V555zM353.526 555l7.966-55.859h11.236L381.202 555h-7.935l-1.333-9.966h-9.014L361.714 555zm10.22-16.79h7.299l-3.745-28.056h-.127zM387.613 555v-48.496h-6.538v-7.363h21.296v7.363h-6.284V555zM410.083 555v-48.496h-6.538v-7.363h21.297v7.363h-6.284V555zM424.747 555l7.966-55.859h11.235L452.422 555h-7.934l-1.333-9.966h-9.014L432.935 555zm10.219-16.79h7.3l-3.745-28.056h-.127zM468.958 555.635q-4.063 0-6.76-1.873t-4.063-5.459q-1.332-3.618-1.333-8.728v-24.343q0-3.84.635-6.919t2.063-5.269a9.45 9.45 0 0 1 3.809-3.364q2.38-1.174 5.871-1.174 3.174 0 5.396 1.047 2.253 1.016 3.65 2.952 1.428 1.936 2.063 4.697.666 2.73.666 6.157v7.681h-8.22v-7.141q0-4.126-.698-6.062-.699-1.968-2.793-1.968-2.317 0-3.111 2.127-.762 2.094-.761 5.871v26.089q0 2.92.317 4.793.35 1.84 1.143 2.729.793.857 2.221.857 2.158 0 2.92-2.031t.762-6.443v-7.998h8.347v7.903q0 5.3-1.238 8.855-1.238 3.522-3.935 5.268-2.667 1.746-6.951 1.746M488.287 555v-55.859h8.505v22.597h7.618v-22.597h8.506V555h-8.506v-25.962h-7.618V555zM521.294 555v-55.859h10.569l7.935 40.815 7.458-40.815h10.633V555h-7.586v-20.82l.318-19.107-7.522 39.673h-6.761l-7.839-39.673.317 19.107V555zM566.299 555v-55.859h18.726v7.331h-10.22v16.25h9.712v7.173h-9.712v17.773h10.601V555zM591.69 555v-55.859h6.665l11.838 33.515-.603-15.234v-18.281h7.649V555h-6.03l-12.156-34.69.476 14.663V555zM628.57 555v-48.496h-6.538v-7.363h21.296v7.363h-6.284V555z"/><path fill="#9f9f9f" d="M195.63 620v-30.078h3.589l6.375 18.047-.325-8.203v-9.844h4.119V620h-3.247l-6.546-18.679.257 7.895V620zM220.24 620.342q-2.341 0-3.828-.991-1.47-.991-2.171-2.94t-.7-4.819v-13.758q0-2.596.683-4.443.683-1.845 2.171-2.837 1.487-.991 3.896-.991 1.811 0 3.059.564a4.9 4.9 0 0 1 2.017 1.641q.769 1.06 1.111 2.597.358 1.522.358 3.469v13.758q0 2.87-.683 4.819-.667 1.948-2.119 2.94-1.453.99-3.794.991m0-3.965q.854 0 1.281-.513t.564-1.555q.154-1.06.154-2.666v-14.014q0-1.965-.376-3.025-.359-1.076-1.572-1.076-1.248 0-1.692 1.042-.444 1.026-.444 3.042v14.031q0 1.641.137 2.7.153 1.043.598 1.538.46.496 1.35.496M231.297 620v-4.204h3.845V620zM244.61 620l4.289-30.078h6.05L259.512 620h-4.272l-.718-5.366h-4.854l-.649 5.366zm5.503-9.041h3.93l-2.016-15.107h-.069zM262.349 620v-30.078h4.58V620zM277.935 620v-30.078h4.58V620zM292.615 620.342q-1.88 0-3.144-.581a4.8 4.8 0 0 1-1.983-1.726q-.717-1.146-1.025-2.769-.308-1.64-.308-3.725v-2.684h4.341v3.025q0 2.427.41 3.487.41 1.059 1.624 1.059.82 0 1.23-.376.428-.393.564-1.23.154-.855.154-2.222 0-1.692-.718-3.093-.7-1.401-2.136-2.905l-2.222-2.29a17 17 0 0 1-1.674-2.034 9.8 9.8 0 0 1-1.18-2.393q-.427-1.333-.427-2.973 0-2.376.581-4.016.582-1.64 1.965-2.479 1.385-.854 3.794-.854 1.812 0 2.974.564a4.1 4.1 0 0 1 1.829 1.623q.666 1.06.94 2.598.273 1.521.273 3.486v1.863h-4.221v-2.153q0-1.367-.154-2.273-.137-.906-.53-1.35-.392-.462-1.145-.462-.717 0-1.162.325-.444.308-.649.974-.188.65-.188 1.692 0 .94.239 1.624.238.683.735 1.316.495.632 1.23 1.418l2.478 2.683q1.777 1.915 2.769 3.982.991 2.069.991 4.614 0 2.701-.581 4.546-.581 1.829-1.948 2.769t-3.726.94M308.389 620v-30.078h3.589l6.375 18.047-.325-8.203v-9.844h4.118V620h-3.247l-6.545-18.679.256 7.895V620zM332.999 620.342q-2.341 0-3.829-.991-1.469-.991-2.17-2.94t-.701-4.819v-13.758q0-2.596.684-4.443.684-1.845 2.17-2.837 1.487-.991 3.897-.991 1.81 0 3.059.564a4.9 4.9 0 0 1 2.016 1.641q.77 1.06 1.111 2.597.36 1.522.359 3.469v13.758q0 2.87-.683 4.819-.667 1.948-2.12 2.94-1.453.99-3.793.991m0-3.965q.853 0 1.281-.513t.564-1.555q.154-1.06.154-2.666v-14.014q0-1.965-.376-3.025-.358-1.076-1.572-1.076-1.248 0-1.692 1.042-.444 1.026-.444 3.042v14.031q0 1.641.136 2.7.154 1.043.598 1.538.462.496 1.351.496M345.337 620v-26.113h-3.52v-3.965h11.467v3.965H349.9V620zM365.23 620v-12.014l-5.042-18.064h4.375l2.974 11.245h.068l2.649-11.245h4.358l-4.802 18.064V620zM383.482 620.342q-2.341 0-3.828-.991-1.47-.991-2.171-2.94t-.7-4.819v-13.758q0-2.596.683-4.443.684-1.845 2.171-2.837 1.487-.991 3.896-.991 1.812 0 3.059.564a4.9 4.9 0 0 1 2.017 1.641q.77 1.06 1.111 2.597.359 1.522.359 3.469v13.758q0 2.87-.684 4.819-.667 1.948-2.119 2.94-1.453.99-3.794.991m0-3.965q.855 0 1.282-.513t.564-1.555q.153-1.06.153-2.666v-14.014q0-1.965-.376-3.025-.358-1.076-1.572-1.076-1.247 0-1.692 1.042-.444 1.026-.444 3.042v14.031q0 1.641.137 2.7.154 1.043.598 1.538.46.496 1.35.496M400.674 620.342q-2.341 0-3.811-.872-1.47-.888-2.153-2.666-.684-1.794-.684-4.529v-22.353h4.58v22.268q0 1.265.103 2.222.12.957.547 1.486.428.53 1.401.53.975 0 1.402-.512.444-.53.546-1.487t.103-2.239v-22.268h4.58v22.353q0 2.735-.684 4.529-.666 1.778-2.136 2.666-1.452.872-3.794.872M411.578 620v-30.078h7.57q2.359 0 3.521.923 1.162.922 1.521 2.7.376 1.777.376 4.341 0 2.649-.547 4.17-.53 1.503-2.187 2.016a2.44 2.44 0 0 1 1.315.65q.53.495.855 1.469.324.957.461 2.478.154 1.505.154 3.692v2.82l.034 2.119q.018 1.06.052 1.811.034.753.085.889h-4.58q-.051-.085-.085-.872-.018-.803-.052-2.033l-.034-2.649v-5.23q0-1.35-.205-2.033-.188-.701-.718-.975-.512-.273-1.487-.324l-1.469-.086V620zm4.597-17.756h1.828q.838 0 1.265-.376.445-.376.598-1.385.171-1.008.171-2.905v-.188q0-1.589-.154-2.444-.153-.853-.649-1.179-.478-.324-1.504-.325h-1.555zM434.82 620v-30.078h10.322v3.982H439.4v7.998h5.332v3.999H439.4V620zM448.355 620v-30.078h7.571q2.358 0 3.52.923 1.162.922 1.521 2.7.376 1.777.376 4.341 0 2.649-.547 4.17-.53 1.503-2.187 2.016.786.137 1.316.65.53.495.854 1.469.325.957.462 2.478.154 1.505.154 3.692v2.82l.034 2.119q.017 1.06.051 1.811.034.753.085.889h-4.58q-.05-.085-.085-.872-.017-.803-.051-2.033-.017-1.231-.035-2.649v-5.23q0-1.35-.205-2.033-.187-.701-.717-.975-.513-.273-1.487-.324l-1.47-.086V620zm4.597-17.756h1.829q.838 0 1.264-.376.445-.376.599-1.385.17-1.008.17-2.905v-.188q0-1.589-.153-2.444-.154-.853-.65-1.179-.478-.324-1.504-.325h-1.555zM465.411 620v-30.078h4.58V620zM474.605 620v-30.078h10.083v3.948h-5.503v8.75h5.23v3.862h-5.23v9.57h5.708V620zM488.277 620v-30.078h3.589l6.374 18.047-.324-8.203v-9.844h4.118V620h-3.247l-6.545-18.679.256 7.895V620zM506.563 620v-30.078h6.75q2.29 0 3.675.923 1.384.906 1.999 2.632.633 1.725.633 4.169l.017 13.57q0 2.956-.65 4.922-.632 1.948-2.05 2.905-1.419.957-3.777.957zm4.58-3.555h1.504q.803 0 1.333-.324.547-.326.803-1.145.274-.838.274-2.359l-.017-14.851q0-2.307-.564-3.315-.564-1.01-1.983-1.009h-1.35zM524.08 620v-4.204h3.845V620zM486.211 127.424c-1.427.195-3.294-.013-4.715-.298-.444-.088-.22-.486-.527-.565-.6-.154-1.159.042-1.754-.141-.196-.063.047-.693-.159-.744-1.128-.276-2.2-.113-3.342-.243-5.637-.64-11.171-.83-16.87-1.019-1.885-.062-4.177-.587-6.109-.291-.226.035-.078.584-.12.631-.661.713-.467-.408-.907-.545-1.76-.543-3.71-.54-5.396-.275-.709.114.039 1.189-.698.596-.051-.04.112-.633-.086-.689-.449-.127-1.295.005-1.646-.03-.667-.07-.774-.061-1.404-.046-.862.016-1.902-.239-2.816-.071-.196.037.088.629-.223.743-.31.114-1.151.095-1.438-.035-.284-.131-.184-.608-.238-.715-.441-.898-1.353.407-1.476.444-2.244.627-4.209-.008-6.328.095-1.62.081-3.325.405-4.855.453-1.825.055-3.385-.186-5.163-.028-.189.017.073.71-.157.731-2.414.222-4.819.291-7.288-.029-.243-.033.026-.673-.219-.743-1.491-.416-3.959-1.481-4.638 1.277-1.002-.038-2.261-.06-3.177-.542-.601-.309-.089-1.024-.778-.685-.156.075.095.652-.142.72-.995.289-2.137.179-3.101.557-.198.078-.104.604-.154.703-.426.808-1.331-.408-1.516-.488a4.2 4.2 0 0 0-1.093-.301c-.861-.116-1.608.079-2.512.137-.292.018.108.703-.171.746-1.463.216-2.931.27-4.389.07-.323-.047-.079-.676-.236-.729-.694-.227-.746.929-1.399.733-.138-.04-.105-.565-.134-.619-.454-.863-.684.43-.78.466-1.211.484-2.142-.771-3.318-.484-.141.035.237.664-.164.725a33 33 0 0 1-8.278.178c-.422-.044-.169-.562-.2-.621-.508-.911-.673.384-.804.444-1.037.438-2.142-.539-2.729 1.039-4.577-.124-9 1.137-13.62.202-.059-.01-.015-.645-.131-.663-1.404-.223-1.05.725-1.846 1.999-.2.32-1.032-1.05-1.103-1.149-.262-.367-.117-1.319-.199-1.387-.678-.531-.285 2.537-1.122 2.617-.027-.002.03-.579-.046-.629-.235-.156-.43.09-.663-.085-.532-.405-.849-1.884-1.514-.942-.083.122.228 1.854-.528 1.843-.302-.006-1.619.151-2 .074-.38-.078-.181-.665-.209-.687-1.068-.647-.72-.992-1.325-2.045-.606-1.049-.214 1.554-.389 1.866-.175.311-.965-.232-1.165-.428s-.011-.575-.182-.68c-1.135-.686-.338 1.344-.647 1.793-.725 1.063-1.554-.815-2.325-.931-.208-.031.001.394-.176.453-.701.228-1.191-.335-1.954.301-.125.104-.67 1.335-1.182.522-.072-.118.052-.618-.265-.696-.473-.118-1.306-.142-1.78.069-.35.155.144.91-.336.708-.214-.09.116-.593-.282-.724s-1.365-.014-1.732.039c-.367.054-.105.638-.13.681-.157.251-.834.614-.896.619-3.139.389-6.147-.334-9.175.317-.237.05-.012.671-.047.685-.793.351-.32-1.409-.951-1.917.216 1.284-.15 1.085-.717 1.287-.273.098-.069.583-.089.636-.337.803-.727-.149-.822-.342-.351-.711-.56.193-.797-.281-.237-.471.117-1.242-.438-1.175-.108.478.429 1.645.028 1.884-1.504.905-4.592.268-5.875.303-1.295.036-1.698.165-2.459.076-1.373-.161-.78.683-1.576 1.182-.799.5-.623-1.75-.794-2.212-.169-.461-.247.04-.423-.205-.174-.245.11-.601-.246-.662-.357-.061-1.21.882-1.278 1.391-.146 1.078.394 2.136-.555 1.845-.054-.017.053-.615-.153-.653-1.648-.276-3.309-.126-4.941-.35-.227-.032-.099-.698-.232-.724-1.381-.269-.786.768-1.384 2.055-.01-1.626-.521-2.567-1.523-2.468-.602.059-.421.75-.764 1.288-.102.162-.587-.273-.629.066-.14 1.108.395 2.273-.698 1.905-.048-.018.032-.625-.129-.644-1.045-.123-1.033 1.018-2.12 1.276-.862.202-2.473-.318-3.453-.323-.174-1.811-1.072-1.293-1.31-.005-.647.02-1.326.166-1.954.061-.216-.035-.137-.574-.169-.628-.5-.842-.651.402-.784.465-1.469.631-2.728-.159-4.087.903-.047.038.011 1.303-.473.429-.032-.06.374-.684-.301-.653s-1.994-.502-2.876.187c-.21.166-.664 1.25-1.206.505-.073-.102-.048-.469-.157-.66-.354-.606-.361.68-.812-.361-.464-1.039-1.264-1.766-2.112-.915-.027.025-.133 1.056-.425 1.073-.459.026-1.168-.104-1.662-.041-.236.031-.013.638-.053.654-1.527.531-2.749.108-4.443.062-.078-.003-.186.056-.312.135-.392.245-.966.677-1.482.235-.753-.647-.501-3.795-1.891-2.865-.59.377-.849 4.363-2.193 2.499-2.096.794-4.163.031-6.218 1.044-.092.045-.243 1.17-.466 1.186-.336.023-.569-.46-.828-.457-1.058-.006-1.858.549-2.864.625-.369.028-.318-.513-.751-.48-.416.031-.645.766-1.279.519-.483-.188-1.115-1.532-1.754-1.605.181 1.39-.233 1.422-.887 1.893-.134.093.093.552.033.621-.239.29-.549-.073-.761.236-.052.074.016.548-.022.636-.304.758-1.196-.196-1.342-.363-.576-.633-.671.012-1.091-.207-.406-.221.082-.651-.367-.754-.897-.218-2.012.036-2.896.157-.34.05-.006.643-.052.665-.712.279-1.551-.269-1.731 1.053-1.056-3.159-.374.386-1.523-.079-.087-.039-.468-1.552-.197-1.833.293-.284.823.117 1.221-.312.078-.098.428-1.637.504-1.739.514-.785.985 1.495 1.039 1.616.631 1.293 1.053-.367 1.248-.508.78-.628 1.582-.423 2.253-.886.458-.302.26-1.813.638-1.824 1.293-.041 2.009 2.001 2.924.002.191-.426-.31-2.035.79-.874.072.073.922 1.159 1.187.354.034-.101-.038-.581.02-.631.387-.323.742.017 1.188-.235.426-.249.945-.602 1.515-.518.355.049.871.889 1.057 1.086.516.571.84-.531 1.224.194.385.73.01 1.973.804 2.367-.151-1.252-.273-2.542-.408-3.803 1.546-.173 3.133.017 4.717-.257.187-.035-.099-.679.101-.733.838-.225 1.706.144 2.58-.17.668-.244 1.345-1.06 2.077-1.342.65 1.368 1.643.739 2.472.761.289.007.321.392.54.489.14.061.242.076.314.059l.066-.008c.338-.077.026-.954.173-1.139.766-.952 1.173 1.906 2.214 1.713.054-.009.565-1.617.636-1.721.506-.688.157.521.532.592.688.129 1.197.44 1.947-.1.226-.16.654-1.174 1.18-.488.07.09.095.599.146.623.905.396.749-1.195 1.18-1.788.437-.595 1.319.415 1.502.714.49.772-.264.384-.276.466-.142.983.379.757.805.791.237 1.549.812 1.39.442.028-.041-.149-.35.033-.442-.028.192-1.569.815-1.838 1.699-.492.41.631.197 1.445 1.169 1.046.44-.18.143-1.232.514-1.57.838-.769 2.207.09 3.117-.172.338-.095-.063-.645.166-.73.609-.229 1.215.149 1.829-.148.055-.028-.155-.626.044-.656 1.494-.238 2.812.014 4.395-.149.743-.077 2.049-.563 2.845-.581 1.382-.036 3.111.68 4.261.336.748-.222.508-.818.785-1.271.529-.879 1.789.456 1.962.665.005.007-.628.222-.247.5.272.636.24-.496.247-.5.112.135 1.431.134 1.679-.011.131-.079-.009-.653.061-.683 1.653-.705 3.413-1.043 5.177-.955.032.009.055.665.13.677 1.045.182 1.615-.685 2.41-1.247.789-.562 1.465-.473 2.08.594.618-.208 1.581.191 2.138.436.559.245.493-1.03.538-1.06 1.344-.952 2.249-.313 3.757-.355.712-.017 2.092-.346 2.846-.564.595-.174.992.085 1.533-.162.073-.033-.061-.591-.041-.615.551-.739.395.672.548.906.557.849.893 1.297 1.647.794.174-.116.507-2.159.831-2.309.422-.192.33.537.77.318.038-.018-.015-.457.27-.467 1.315-.048 2.764.063 4.124-.118.186-.023-.123-.697.144-.741 1.25-.21 2.631-.322 3.893-.118.311.052.17.559.25.698.491.837.934-.495 1.026-.528 2.183-.836 4.021.148 6.256-.625.121-.045.948-1.506 1.491-.375.037.075.577 1.234.872.377.018-.053-.306-.645.161-.627s1.169-.466 1.868.151c.221.195.81 1.346 1.316.334.033-.07.749-2.316 1.222-.859.077.239.172 1.82.809.944.121-.17-.16-.497.178-.751.519-.391 1.289-.038 1.899-.804.106-.136.507-1.253.987-.479.075.121.005.658.223.697 1.041.186 2.069-.265 3.13.002.376.094.27.962.67 1.154.399.193 1.186.34 1.547-.085.362-.426-.198-1.741.388-1.904 2.542-.711 5.187-.151 7.778-.267.386-.017.024-.474.59-.534 2.079-.224 5.649-.997 7.536-.121 1.528.699-.25 1.487.891 1.726.551.114.994-1.512 1.118-1.573 1.22-.612 2.141.013 3.269-.298.232-.065-.053-.684.145-.732.674-.168 1.414.057 2.058-.049.289-.049.195-.533.465-.517a3.83 3.83 0 0 1 1.907.594c.061.037-.275.676.203.66.776-.029 1.763.345 2.607-.192.254-.161.176-1.278.806-.553.132.151.088 1.503.656.293.096-.202 1.08-1.851 1.699-.887.164.254.609 1.322.914 1.125.041-.031-.179-.617.081-.696.918-.269 1.894-.28 2.824-.539.248-.071-.175-.663.197-.748q.286-.065.594-.102c.92-.11 1.948-.052 2.783.046.379.045.159.578.19.632.503.878.669-.369.808-.451.881-.496 1.621.031 2.442-.181.227-.057.023-.631.065-.686.438-.544.159.533.467.627.853.27 1.809.156 2.657.023.312-.05-.087-.705.193-.742 1.64-.23 3.412-.282 5.042-.011.308.052.151.588.221.703.495.808 1.075-.374 1.216-.492.646-.538.937-.092 1.524-.215 2.897-.611 6.495-.511 9.27-.468 3.599.053 6.397.417 9.82.138.216-.017-.033-.705.153-.728 2.413-.273 4.817-.096 7.229-.383.2-.023-.113-.673.208-.732.656-.124 1.488-.116 2.152.073.328.091-.09.673.242.752a5.9 5.9 0 0 0 2.355.08c.328-.057-.189-.718.238-.739 2.941-.155 5.825-.345 8.807.468.205.056.412 1.427.838 1.155.025-.382.015-.831.021-1.239 4.263-.305 8.502.115 12.777.154.18.001-.138-.725.211-.725 2.021-.006 3.984-.219 6.049.496.206.07.106 1.352.708 1.156.107-.036 1.013-.21 1.247-.489.032-.042-.136-.639.157-.657a19.7 19.7 0 0 1 5.18.401c.274.06-.017.697.178.745 1.383.337 2.886-.147 4.205.431.883.389.557 1.49 1.026 2.573.066.153.613.177.642.808.072 1.585-.193 3.321-.084 5.01.023.364.756-.028.322.852-.031.059-.562.351-.692.649-.091.206.073.847-.113 1.111s-.39-.273-.698.037c-.307.314-.172 1.043-.786 1.13m-168.273.365c.548.559.387-1.68-.081-1.091-.022.031.053 1.064.081 1.091m-58.486 7.047c.763.892 1.007-.61.45-1.304-.555-.694-.682 1.033-.45 1.304m-6.432 1.637c.848.667.516-2.499-.187-1.749-.04.043.138 1.711.187 1.749m232.424-18.337c.006.03.4.059.409.029.209-.712-.577-.77-.409-.029m-238.785 20.071c.3.389.89-.202.527-.689-.298-.39-.898.204-.527.689m96.764-10.591c.011.033.295.035.271-.152-.079-.604-.452-.395-.271.152m-107.772 12.542c1.7-.271 3.115 2.158 1.367 2.202-.315.011.498-.959.05-1.109-.4-.138-.658.23-.881.539-.127.158-.24.3-.363.359a.28.28 0 0 1-.203.022c-.028-.012-.068-.027-.089-.057-.015-.039-.064-.043.053-.199.136-.176-.216-.039-.26-.228-.07-.156-.044-.394.007-.624.1-.461.273-.902.321-.91zm82.845-9.718c.013.028.404.016.411-.014.136-.731-.652-.706-.411.014m41.429-3.009c.027.06.936.035.959-.025.364-1.204-1.474-1.156-.959.025m-67.368 7.438c-.348.759-.852.899-1.288.043.427 0 .858-.04 1.288-.043m153.811 100.073c-.982.131-2.236-.159-3.182-.507-.295-.108-.117-.495-.32-.587-.398-.181-.79-.01-1.181-.219-.129-.071.076-.689-.061-.75-.747-.325-1.484-.21-2.25-.39-3.781-.889-7.518-1.324-11.365-1.766-1.275-.145-2.796-.771-4.122-.562-.155.025-.08.58-.111.625-.482.683-.293-.428-.587-.585-1.169-.62-2.492-.704-3.642-.514-.486.083-.023 1.19-.498.564-.034-.042.101-.627-.031-.692-.299-.146-.881-.052-1.114-.102-.447-.1-.522-.096-.95-.109-.588-.023-1.278-.323-1.907-.197-.134.029.037.633-.178.733-.213.1-.788.044-.971-.099-.189-.144-.105-.616-.137-.724-.27-.918-.934.346-1.018.377-1.539.526-2.851-.195-4.296-.187-1.093.008-2.274.256-3.304.236-1.246-.027-2.292-.337-3.509-.258-.128.007.036.712-.121.723-1.638.113-3.279.075-4.945-.356-.165-.044.028-.671-.138-.752-1.012-.482-2.673-1.656-3.172 1.068-.686-.083-1.531-.161-2.155-.683-.406-.336-.049-1.027-.523-.72-.107.069.058.655-.104.713-.685.244-1.45.082-2.115.416-.135.07-.075.599-.11.696-.297.788-.905-.467-1.03-.555a2.6 2.6 0 0 0-.486-.265c-.697-.289-1.263-.081-1.967-.061-.199.005.069.706-.121.737-.991.149-1.996.138-2.989-.128-.221-.061-.053-.678-.16-.738-.471-.258-.506.893-.952.668-.094-.046-.07-.568-.09-.624-.308-.882-.468.399-.534.431-.829.428-1.454-.866-2.26-.633-.097.029.161.674-.113.716a15.4 15.4 0 0 1-5.646-.195c-.288-.063-.117-.569-.138-.629-.349-.932-.459.353-.549.407-.707.39-1.463-.634-1.858.913-3.129-.329-6.136.729-9.298-.413-.04-.013-.015-.644-.094-.668-.961-.285-.713.676-1.247 1.912-.135.31-.713-1.094-.763-1.197-.181-.377-.089-1.321-.146-1.393-.466-.56-.175 2.519-.746 2.561-.018-.004.016-.577-.036-.63-.162-.166-.294.07-.454-.115-.367-.427-.595-1.917-1.042-1.007-.056.117.171 1.859-.346 1.814-.206-.019-1.104.077-1.365-.017-.261-.095-.129-.671-.149-.694-.735-.695-.501-1.023-.924-2.1-.424-1.074-.132 1.541-.249 1.844-.117.302-.662-.275-.801-.48-.138-.204-.013-.574-.131-.687-.782-.736-.218 1.325-.424 1.759-.485 1.028-1.07-.882-1.598-1.033-.143-.041.004.393-.116.444-.477.196-.819-.388-1.333.211-.085.098-.444 1.302-.802.467-.051-.12.028-.614-.189-.706-.324-.138-.894-.2-1.216-.012-.238.139.109.915-.223.692-.147-.1.073-.587-.201-.736-.273-.148-.933-.075-1.183-.039-.25.037-.064.631-.081.674-.104.243-.562.573-.605.576-2.142.246-4.209-.611-6.269-.1-.162.04.001.669-.023.681-.538.314-.238-1.419-.679-1.954.165 1.29-.087 1.075-.472 1.25-.185.086-.039.578-.052.631-.219.786-.499-.181-.567-.378-.249-.725-.379.167-.548-.317-.169-.48.062-1.233-.316-1.192-.067.473.317 1.66.046 1.881-1.023.834-3.131.058-4.016.035s-1.158.087-1.679-.036c-.94-.223-.526.646-1.063 1.108-.538.462-.453-1.773-.578-2.241-.122-.468-.168.029-.291-.224-.124-.252.065-.594-.18-.671-.244-.077-.812.824-.851 1.329-.082 1.068.304 2.147-.348 1.814-.038-.02.026-.612-.116-.658-1.142-.35-2.26-.277-3.391-.574-.155-.041-.079-.7-.171-.732-.948-.33-.523.73-.909 1.986-.036-1.621-.401-2.582-1.085-2.529-.413.031-.281.729-.504 1.249-.067.157-.406-.299-.429.037-.075 1.098.311 2.284-.442 1.867-.033-.02.011-.621-.1-.647-.718-.171-.679.967-1.43 1.175-.586.163-1.688-.43-2.368-.479-.157-1.812-.758-1.337-.897-.064-.44-.01-.901.105-1.332-.028-.148-.045-.104-.578-.128-.633-.367-.862-.443.371-.533.428-.986.561-1.876-.282-2.778.714-.032.036.034 1.299-.314.406-.023-.062.241-.665-.219-.665-.456 0-1.385-.59-1.967.056-.14.156-.426 1.215-.812.447-.051-.104-.042-.469-.121-.664-.255-.62-.23.661-.572-.395-.338-1.057-.901-1.818-1.46-1.009-.018.024-.067 1.046-.266 1.05-.313.005-.812-.156-1.144-.116-.161.02.006.635-.021.649-1.023.458-1.888-.016-3.038-.141h-.016c-.229.027-.723.896-1.203.292-.543-.678-.473-3.799-1.413-2.935-.391.348-.408 4.299-1.406 2.384-1.415.695-2.855-.159-4.236.755-.061.041-.117 1.151-.269 1.157-.222.007-.424-.481-.595-.491-.717-.056-1.262.462-1.939.49-.25.01-.239-.525-.534-.512-.299.013-.414.732-.86.458-.333-.21-.848-1.572-1.283-1.675.186 1.39-.082 1.4-.526 1.841-.087.085.09.552.052.618-.149.276-.378-.098-.507.199-.032.071.038.545.017.629-.165.738-.84-.247-.943-.421-.419-.656-.471-.017-.764-.255-.288-.238.022-.642-.289-.765-.624-.258-1.399-.054-1.988.024-.236.034.031.637 0 .656-.477.245-1.094-.336-1.128.964-.945-3.173-.229.364-1.057-.148-.061-.042-.431-1.556-.263-1.821.178-.267.583.152.83-.255.058-.096.196-1.602.245-1.7.328-.759.774 1.525.821 1.647.503 1.312.714-.317.835-.447.514-.59 1.082-.349 1.515-.777.293-.279.1-1.791.354-1.783.886.019 1.481 2.078 2.028.133.111-.414-.309-2.035.501-.831.048.076.702 1.191.841.405.019-.1-.052-.58-.015-.626.252-.304.505.051.808-.18.295-.229.626-.556 1.023-.446.239.066.652.921.782 1.126.378.591.552-.489.846.25.295.742.088 1.961.653 2.389-.155-1.251-.29-2.539-.434-3.8 1.053-.101 2.158.16 3.24-.041.135-.026-.09-.68.045-.725.569-.185 1.161.224 1.772-.051.448-.212.88-.993 1.37-1.239.519 1.387 1.162.809 1.733.868.198.021.235.405.388.512.579.393.175-.835.291-1.056l.121-.014.001-.001c.5-.913.847 1.952 1.552 1.808.037-.007.347-1.585.403-1.687.333-.662.12.526.379.614.473.16.827.493 1.327-.01.145-.149.436-1.142.805-.434.05.093.079.601.113.627.628.436.486-1.156.767-1.728.28-.571.925.473 1.051.78.351.791-.168.37-.181.452-.082.973.281.771.57.824.196 1.555.585 1.422.303.048-.032-.15-.239.017-.303-.048.097-1.554.517-1.794 1.15-.413.297.647.155 1.45.829 1.095.297-.159.072-1.221.318-1.541.559-.728 1.502.191 2.135-.03.229-.08-.057-.645.098-.72.412-.201.833.204 1.247-.064.038-.025-.118-.631.017-.652 1.033-.171 1.926.142 3.012.051.517-.044 1.394-.469 1.939-.451.954.027 2.146.819 2.927.528.505-.187.337-.792.519-1.232.347-.851 1.232.537 1.354.753.004.007-.425.193-.16.487.197.646.156-.484.16-.487.08.14.981.199 1.149.065.09-.073-.017-.652.032-.679 1.126-.628 2.316-.884 3.533-.717.022.01.049.666.1.681.718.229 1.094-.609 1.629-1.134.54-.525.998-.405 1.437.686.419-.179 1.084.262 1.469.532.385.269.326-1.005.356-1.033.906-.888 1.535-.21 2.566-.184.493.015 1.429-.25 1.943-.433.405-.147.68.13 1.047-.093.05-.03-.05-.591-.036-.614.372-.713.281.688.39.927.392.872.628 1.335 1.137.867.118-.108.319-2.13.539-2.265.287-.173.233.55.531.352.026-.017-.016-.457.179-.453.904.01 1.895.188 2.824.068.127-.015-.092-.7.09-.733.857-.152 1.799-.202 2.667.058.213.067.122.566.179.708.345.857.635-.451.698-.48 1.485-.735 2.756.329 4.278-.341.083-.039.635-1.459 1.018-.307.026.077.407 1.257.601.416.012-.053-.216-.658.105-.619.319.039.796-.412 1.28.235.154.204.567 1.379.905.393.021-.069.493-2.277.829-.802.055.242.133 1.823.562.978.082-.163-.114-.503.116-.741.352-.366.883.02 1.295-.717.071-.13.338-1.226.672-.433.053.124.009.657.159.706.713.233 1.415-.172 2.144.143.258.111.191.972.466 1.182.276.209.812.392 1.058-.016.245-.408-.147-1.745.254-1.882 1.739-.595 3.555.083 5.326.084.265 0 .015-.472.403-.507 1.426-.129 3.867-.74 5.164.218 1.042.767-.171 1.473.61 1.764.377.138.68-1.465.765-1.52.837-.557 1.467.108 2.238-.151.159-.054-.036-.685.1-.724.462-.138.97.12 1.412.043.198-.036.134-.523.32-.496.442.061.847.245 1.303.68.042.04-.19.662.138.667.532.007 1.21.424 1.788-.074.171-.15.121-1.268.552-.516.09.157.054 1.504.449.321.066-.196.749-1.799 1.169-.809.112.261.415 1.347.621 1.164.028-.029-.118-.624.057-.691.628-.227 1.301-.194 1.941-.412.171-.06-.116-.669.14-.738q.314-.082.661-.094c.563-.021 1.159.072 1.656.189.26.062.104.584.125.64.338.899.463-.339.559-.415.597-.455 1.11.104 1.675-.071.157-.047.022-.629.051-.683.308-.523.105.54.315.648.587.307 1.233.237 1.82.141.216-.036-.051-.708.142-.732 1.134-.157 2.342-.13 3.462.214.211.066.095.594.141.712.318.829.74-.326.838-.437.454-.509.646-.051 1.052-.147 1.992-.482 4.47-.221 6.367-.055 2.465.214 4.38.703 6.731.576.149-.008 0-.705.129-.72 1.66-.166 3.309.119 4.971-.061.139-.014-.052-.677.171-.721.456-.095 1.028-.05 1.477.168.22.106-.086.668.134.763a2.85 2.85 0 0 0 1.615.184c.227-.042-.1-.725.194-.727 2.024-.024 4.014-.085 6.018.861.139.065.213 1.443.518 1.19.036-.38.051-.829.076-1.236 2.939-.114 5.819.495 8.74.724.124.01-.051-.729.188-.714 1.382.085 2.739-.04 4.105.766.136.079-.012 1.354.412 1.185.075-.031.704-.164.881-.432.024-.04-.053-.644.149-.649a9.3 9.3 0 0 1 3.507.632c.182.072-.057.695.073.752.92.397 1.975-.019 2.835.617.575.427.281 1.511.53 2.613.035.156.405.204.383.835-.054 1.585-.348 3.305-.384 4.996-.008.364.516.005.163.864-.024.057-.404.325-.513.617-.075.201-.006.848-.149 1.104-.144.255-.247-.291-.477.005-.229.3-.185 1.034-.608 1.093m-114.359-7.18c.383.582.24-1.657-.071-1.092-.015.03.052 1.064.071 1.092m-39.973 4.375c.558.923.664-.559.255-1.275-.408-.715-.425.995-.255 1.275m-4.362 1.335c.609.702.243-2.459-.205-1.746-.026.04.17 1.706.205 1.746m158.778-7.833c.003.03.268.077.277.048.188-.702-.343-.794-.277-.048m-163.086 9.266c.22.401.612-.161.33-.66-.231-.4-.607.161-.33.66m66.081-6.162c.008.033.201.048.183-.14-.059-.606-.313-.414-.183.14m-73.618 7.603c1.22-.205 2.331 2.272 1.176 2.224-.219-.004.244-.919-.072-1.088-.282-.156-.434.196-.545.485-.062.146-.116.278-.181.325-.033.024-.068.027-.098-.004a.12.12 0 0 1-.032-.079c.003-.048-.007-.073.091-.249.088-.165-.2-.026-.31-.173-.123-.123-.144-.354-.151-.569-.003-.44.095-.873.123-.876zm56.601-5.916c.009.029.276.035.28.005.083-.722-.456-.733-.28-.005m28.295-1.126c.018.062.639.078.655.018.241-1.184-1.014-1.22-.655-.018m-45.976 4.365c-.225.741-.564.857-.879-.016.292.02.583-.001.879.016m102.139 104.296c-.658.118-1.461-.187-2.055-.545-.187-.112-.041-.495-.168-.59-.247-.184-.517-.019-.758-.232-.08-.073.1-.686.015-.748-.467-.333-.958-.228-1.447-.417-2.413-.932-4.827-1.411-7.309-1.896-.821-.16-1.782-.803-2.66-.609-.103.023-.079.578-.101.623-.339.677-.17-.431-.354-.591-.738-.633-1.601-.732-2.354-.555-.321.077-.057 1.189-.346.558-.02-.043.088-.625.004-.692-.192-.15-.573-.062-.722-.115-.29-.105-.339-.101-.619-.119-.387-.03-.821-.338-1.24-.219-.089.028.008.633-.136.731s-.508.035-.628-.11c-.119-.146-.053-.617-.072-.726-.156-.92-.621.336-.677.366-1.009.509-1.851-.227-2.803-.235-.707-.005-1.483.23-2.158.198-.821-.041-1.498-.363-2.293-.298-.083.006.022.713-.079.722-1.075.094-2.149.038-3.234-.412-.109-.046.014-.67-.096-.753-.676-.494-1.77-1.686-2.072 1.031-.458-.09-.995-.179-1.42-.708-.273-.34-.048-1.026-.357-.725-.069.068.049.656-.057.712-.454.236-.941.065-1.379.391-.088.068-.038.598-.06.694-.137.598-.417.006-.58-.348-.05-.11-.088-.197-.108-.218-.628-.664-1.054-.368-1.619-.354-.131.003.061.706-.062.735-.633.137-1.312.115-1.964-.163-.145-.064-.053-.678-.124-.739-.313-.263-.308.886-.608.656-.064-.047-.062-.568-.077-.624-.228-.885-.298.393-.341.424-.54.418-.975-.883-1.505-.659-.063.028.127.675-.053.714-1.202.262-2.492.174-3.727-.261-.192-.067-.096-.57-.112-.63-.264-.935-.292.347-.349.399-.457.382-.984-.651-1.191.89-2.074-.366-4.02.654-6.153-.523-.027-.014-.037-.644-.091-.668-.647-.297-.443.666-.743 1.892-.075.308-.516-1.1-.554-1.203-.135-.379-.116-1.319-.156-1.391-.333-.565-.007 2.51-.382 2.545-.013-.004-.015-.575-.052-.628-.114-.168-.191.066-.305-.12-.261-.432-.478-1.92-.733-1.018-.032.117.195 1.857-.148 1.806-.137-.022-.725.063-.902-.034-.176-.098-.116-.671-.13-.694-.518-.702-.377-1.026-.707-2.106-.329-1.076-.017 1.535-.08 1.836-.064.3-.45-.282-.551-.488s-.036-.573-.119-.687c-.552-.743-.083 1.319-.199 1.75-.272 1.019-.748-.894-1.105-1.051-.096-.042.022.393-.055.442-.307.19-.561-.397-.872.195-.052.096-.231 1.292-.508.455-.039-.12-.011-.611-.159-.706-.22-.142-.601-.21-.806-.026-.15.136.117.913-.113.686-.102-.101.019-.584-.169-.735s-.621-.087-.784-.054c-.163.034-.011.629-.02.671-.057.241-.343.565-.371.567-1.406.22-2.816-.661-4.154-.176-.105.037.036.666.02.678-.341.307-.232-1.417-.552-1.956.177 1.288-.001 1.071-.246 1.241-.118.083.005.576-.001.628-.103.78-.339-.187-.394-.384-.203-.725-.242.162-.379-.323-.137-.48-.025-1.228-.272-1.191-.019.47.298 1.658.13 1.875-.639.819-2.067.018-2.659-.014-.585-.034-.759.072-1.11-.057-.641-.233-.317.638-.645 1.091-.329.453-.399-1.773-.508-2.24-.107-.468-.109.026-.205-.226-.095-.253.01-.592-.156-.672s-.49.812-.487 1.314c.005 1.063.324 2.142-.133 1.803-.026-.02-.016-.609-.114-.657-.773-.362-1.509-.304-2.278-.613-.105-.043-.094-.698-.156-.731-.645-.341-.302.72-.483 1.966-.121-1.615-.41-2.577-.872-2.532-.275.027-.143.723-.26 1.239-.035.155-.286-.303-.28.031.015 1.092.341 2.278-.18 1.853-.023-.02-.03-.619-.105-.646-.478-.179-.404.956-.88 1.153-.376.155-1.136-.45-1.599-.506-.215-1.806-.582-1.341-.594-.075-.291-.016-.584.092-.888-.044-.103-.047-.106-.577-.125-.632-.297-.862-.269.364-.325.419-.605.546-1.272-.302-1.794.677-.018.035.107 1.293-.18.399-.019-.061.116-.658-.186-.664-.295-.007-.969-.603-1.302.031-.084.154-.194 1.203-.509.436-.042-.105-.059-.468-.125-.663-.213-.62-.117.656-.409-.4-.293-1.056-.714-1.82-1.027-1.023-.008.024.023 1.041-.114 1.043-.218.002-.547-.166-.764-.13-.104.018.047.631.031.645-.548.377-1.082.084-1.688-.099l.01-.001a3 3 0 0 0-.348-.066c-.149-.02-.399.894-.778.273-.418-.679-.654-3.772-1.215-2.925-.232.34.146 4.25-.724 2.346-.852.665-1.927-.193-2.748.692-.037.04.039 1.137-.07 1.143-.157.005-.335-.481-.449-.493-.466-.068-.807.443-1.238.458-.164.007-.209-.522-.415-.511-.204.01-.199.718-.521.44-.245-.212-.74-1.562-1.033-1.671.27 1.376.088 1.383-.166 1.814-.048.083.118.547.101.611-.068.271-.258-.102-.311.188-.013.07.085.539.078.623-.052.732-.583-.256-.674-.428-.353-.653-.327-.021-.542-.261s-.058-.633-.277-.76c-.463-.258-.945-.069-1.338.001-.161.032.096.628.076.647-.276.232-.769-.346-.633.933-1.039-3.131-.116.358-.722-.16-.05-.042-.515-1.529-.427-1.79.076-.257.428.153.531-.241.027-.093-.058-1.576-.041-1.671.138-.745.722 1.507.767 1.628.486 1.301.453-.306.511-.431.293-.578.693-.332.941-.75.163-.271-.138-1.765.049-1.758.592.031 1.226 2.07 1.383.155.034-.408-.404-2.019.257-.817.041.076.581 1.188.613.409.004-.098-.092-.574-.072-.62.136-.296.34.058.517-.166.183-.225.378-.545.65-.43.164.068.526.919.639 1.123.322.587.321-.478.59.257.267.739.251 1.942.664 2.374-.224-1.241-.439-2.517-.657-3.767.714-.091 1.481.181 2.173-.003.087-.024-.127-.674-.036-.717.391-.182.796.236 1.183-.03.306-.209.503-.974.809-1.212.458 1.384.869.813 1.242.881.132.023.191.404.302.512.417.399.039-.829.097-1.043.095-.342.23-.159.385.196l.169-.027c.231.604.502 1.691.787 1.607.023-.006.118-1.572.148-1.673.185-.655.117.525.301.615.339.163.583.501.881.006.085-.146.208-1.13.512-.423.04.093.092.599.118.626.449.44.245-1.144.393-1.71.148-.565.637.483.749.789.291.791-.095.367-.094.448.01.967.238.77.441.825.236 1.55.482 1.422.206.052-.03-.15-.156.014-.206-.052-.03-1.546.226-1.778.735-.396.237.648.195 1.445.618 1.1.193-.155-.027-1.214.122-1.53.326-.719.995.209 1.413-.004.151-.077-.078-.643.023-.716.264-.195.564.213.821-.048.024-.025-.117-.63-.029-.649.67-.157 1.297.164 2.004.087.346-.038.905-.45 1.265-.425.627.039 1.482.84 1.976.561.323-.18.175-.785.271-1.221.189-.845.855.549.948.766.003.007-.27.186-.077.483.168.646.074-.48.077-.483.061.14.66.21.763.079.056-.072-.048-.649-.018-.676.729-.614 1.479-.851 2.313-.672.015.01.07.663.105.679.488.237.689-.593 1.015-1.109s.648-.393.996.7c.268-.173.732.275 1.002.548s.161-.998.179-1.025c.564-.876 1.009-.191 1.696-.152.326.02.94-.233 1.269-.409.261-.142.458.137.689-.08.032-.029-.064-.59-.056-.613.209-.706.223.689.308.929.307.874.49 1.337.802.877.072-.105.101-2.118.24-2.251.181-.168.183.552.371.357.016-.016-.034-.455.095-.449.603.021 1.271.21 1.881.102.084-.013-.097-.7.023-.73.562-.142 1.188-.18 1.776.09.145.068.109.565.154.707.271.859.399-.442.44-.47.954-.716 1.846.361 2.828-.29.053-.038.354-1.447.662-.293.021.076.328 1.258.418.421.006-.052-.173-.658.041-.616.215.043.511-.402.863.25.111.205.438 1.382.619.402.011-.068.226-2.265.515-.79.047.242.169 1.82.416.982.047-.162-.097-.503.045-.738.218-.361.587.03.83-.7.042-.129.172-1.219.429-.424.04.125.033.656.135.706.483.24.933-.155 1.431.168.177.113.168.971.36 1.184s.556.402.701-.003c.146-.404-.169-1.743.091-1.875 1.136-.574 2.367.124 3.548.145.175.003-.008-.471.247-.501.946-.113 2.547-.695 3.447.277.717.778-.061 1.468.464 1.767.252.143.401-1.454.456-1.508.539-.547.987.124 1.485-.126.103-.052-.045-.684.043-.721.303-.133.652.13.945.058.131-.033.074-.521.199-.491.299.065.57.254.884.694.029.04-.109.659.111.668.356.012.82.436 1.193-.055.111-.148.048-1.265.351-.509.064.158.073 1.504.305.326.039-.195.457-1.789.763-.795.081.261.31 1.35.444 1.169.018-.028-.094-.624.022-.689.405-.22.858-.18 1.283-.391.113-.057-.092-.669.078-.735.261-.101.563-.106.859-.061.242.036.479.104.691.181.176.065.08.585.096.64.243.903.305-.333.368-.408.395-.448.734.117 1.115-.052.105-.045.005-.629.025-.682.199-.52.078.54.221.651.404.313.821.25 1.217.161.144-.034-.044-.709.086-.731.768-.144 1.563-.103 2.325.252.143.068.068.595.1.714.223.832.487-.318.552-.428.302-.504.435-.043.708-.136 1.323-.459 3.004-.171 4.266.017 1.647.242 2.936.752 4.509.652.101-.005.013-.705.1-.718 1.114-.146 2.221.158 3.345-.002.092-.012-.015-.678.134-.719.309-.089.697-.037.994.187.145.108-.08.666.066.763.335.228.717.293 1.079.204.155-.039-.042-.725.157-.723 1.363 0 2.71-.035 4.013.936.091.066.075 1.443.292 1.195.042-.38.074-.827.111-1.233 1.986-.075 3.884.571 5.827.84.082.011.012-.728.172-.71.92.104 1.84-.002 2.696.821.085.08-.103 1.348.191 1.186.052-.03.481-.154.618-.418.019-.04.011-.643.146-.646a4.27 4.27 0 0 1 2.288.678c.116.074-.089.691-.007.75.581.408 1.311.008 1.833.652.348.434.072 1.509.153 2.61.011.156.252.209.19.836-.156 1.578-.48 3.288-.632 4.971-.033.363.341.013.043.863-.021.057-.293.318-.386.607-.065.2-.068.846-.182 1.098-.115.252-.142-.293-.316-.001-.174.296-.2 1.027-.484 1.08m-74.887-8.506c.285.585.069-1.648-.106-1.089-.009.03.092 1.061.106 1.089m-26.325 3.884c.455.921.385-.545.047-1.26-.337-.714-.186.98-.047 1.26m-2.793 1.268c.471.703-.086-2.43-.312-1.73-.013.039.284 1.689.312 1.73m104.763-5.909c0 .03.172.079.179.051.178-.697-.166-.796-.179-.051m-107.509 7.273c.189.4.384-.149.144-.645-.195-.399-.381.149-.144.645m43.47-5.327c.007.033.136.05.115-.138-.068-.604-.227-.416-.115.138m-48.436 6.675c.889-.218 1.934 2.242 1.215 2.157-.139-.009-.011-.881-.239-1.053-.224-.153-.252.181-.26.453.001.134 0 .255-.011.287-.004.015-.013.01-.019-.034-.005-.053-.013-.097.047-.364.024-.115-.17-.04-.326-.129-.158-.083-.254-.284-.312-.485-.115-.409-.123-.829-.095-.836zm37.253-5.2c.008.029.185.038.186.008.015-.718-.341-.736-.186-.008m18.668-.781c.015.062.425.086.433.027.109-1.179-.72-1.23-.433-.027m-30.197 3.79c-.103.735-.318.847-.58-.027.194.024.384.007.58.027m279.297 102.36c-2.841.149-6.554-.12-9.378-.451-.883-.103-.429-.494-1.038-.583-1.193-.173-2.31.005-3.49-.198-.391-.069.106-.691-.303-.749-2.241-.313-4.38-.185-6.651-.352-11.219-.824-22.242-1.196-33.601-1.573-3.752-.124-8.305-.725-12.165-.493-.453.028-.186.582-.272.627-1.355.691-.907-.423-1.784-.575-3.475-.6-7.357-.662-10.738-.453-1.42.09.003 1.19-1.428.572-.1-.042.262-.629-.128-.691-.886-.142-2.578-.038-3.274-.085-1.336-.092-1.54-.086-2.796-.092-1.714-.013-3.779-.302-5.605-.165-.393.031.128.631-.498.735s-2.295.057-2.863-.083c-.562-.14-.323-.614-.422-.722-.809-.913-2.722.362-2.971.394-4.525.552-8.389-.148-12.608-.115-3.248.026-6.642.293-9.71.29-3.628-.007-6.725-.299-10.268-.201-.376.01.073.712-.386.726-4.837.14-9.632.129-14.496-.274-.49-.041.131-.672-.359-.75-2.916-.467-7.702-1.614-9.368 1.121-1.986-.072-4.479-.136-6.254-.649-1.154-.329-.051-1.026-1.459-.711-.318.07.109.655-.369.715-2.003.255-4.282.107-6.235.452-.403.072-.282.601-.395.699-.947.793-2.588-.454-2.944-.539-.949-.224-1.81-.33-2.638-.373-1.497-.079-2.881.062-4.504.087-.581.008.121.706-.437.74-2.924.166-5.868.172-8.725-.078-.635-.058-.067-.679-.371-.737-1.339-.251-1.62.904-2.884.686-.268-.045-.13-.568-.18-.624-.782-.878-1.415.408-1.611.44-2.471.443-4.131-.843-6.518-.596-.286.031.377.673-.428.719-5.382.316-11.088.283-16.45-.101-.829-.058-.252-.568-.306-.628-.874-.929-1.39.361-1.658.417-2.122.403-4.158-.612-5.568.947-9.048-.279-18.023.834-27.036-.258-.114-.013.071-.647-.157-.669-2.746-.27-2.192.69-3.968 1.939-.448.313-1.881-1.086-2.008-1.188-.46-.376-.023-1.324-.176-1.395-1.26-.554-.964 2.53-2.636 2.582-.052-.004.15-.579.008-.631-.441-.165-.867.075-1.3-.108-.99-.423-1.385-1.914-2.851-.994-.185.119.158 1.863-1.339 1.827-.598-.016-3.233.096-3.976.005-.741-.09-.252-.671-.305-.693-2.012-.685-1.268-1.018-2.299-2.093-1.031-1.07-.672 1.549-1.069 1.855-.398.305-1.875-.265-2.24-.468s.07-.576-.252-.687c-2.137-.725-.885 1.334-1.568 1.773-1.609 1.04-2.949-.868-4.457-1.011-.408-.038-.062.395-.422.448-1.428.205-2.305-.376-3.921.235-.264.099-1.545 1.314-2.426.482-.125-.12.203-.617-.412-.706-.917-.133-2.564-.186-3.538.009-.719.144.136.916-.782.698-.408-.098.326-.591-.439-.735-.763-.145-2.702-.06-3.437-.019s-.313.634-.371.677c-.352.246-1.752.586-1.876.589-6.281.283-12.118-.543-18.228.006-.479.042-.137.671-.21.684-1.63.324-.397-1.422-1.561-1.952.21 1.293-.471 1.081-1.632 1.264-.558.089-.235.581-.284.635-.805.792-1.416-.174-1.572-.371-.575-.723-1.141.175-1.531-.309-.39-.479.442-1.239-.668-1.191-.295.476.571 1.662-.264 1.888-3.128.854-9.149.112-11.683.103-2.573-.008-3.393.107-4.886-.007-2.692-.208-1.674.658-3.321 1.13-1.671.473-.931-1.774-1.191-2.242-.255-.468-.496.032-.801-.219-.303-.252.322-.599-.373-.672-.697-.073-2.55.843-2.775 1.35-.477 1.075.408 2.152-1.421 1.829-.105-.02.212-.615-.189-.66-3.196-.333-6.543-.238-9.713-.519-.445-.039-.073-.702-.332-.733-2.69-.316-1.693.743-3.106 2.012.268-1.629-.579-2.589-2.583-2.524-1.205.039-.965.737-1.73 1.264-.232.159-1.116-.294-1.259.044-.475 1.105.38 2.29-1.723 1.884-.092-.019.176-.624-.141-.649-2.046-.159-2.243.986-4.419 1.206-1.746.173-4.847-.402-6.789-.441-.018-1.82-1.874-1.332-2.585-.05-1.285-.002-2.658.122-3.885-.004-.422-.043-.167-.58-.222-.635-.847-.861-1.34.38-1.624.438-3.023.583-5.398-.25-8.255.766-.101.037-.218 1.306-1.018.414-.052-.062.869-.673-.476-.665-1.356.009-3.836-.572-5.723.089-.449.159-1.55 1.23-2.488.465-.125-.104-.007-.471-.189-.666-.589-.62-.844.669-1.543-.389-.689-1.058-2.168-1.812-4.002-.989-.059.024-.461 1.053-1.045 1.061-.926.011-2.265-.146-3.269-.099-.476.023-.146.639-.228.654-3.145.48-5.445.014-8.814-.09-.228-.008-.608.116-1.054.242-.793.222-1.784.451-2.563.064-1.351-.674-.18-3.823-3.119-2.939-1.214.356-2.623 4.348-4.874 2.432-4.286.724-8.233-.111-12.491.834-.193.042-.744 1.165-1.191 1.174-.664.011-1.048-.48-1.516-.488-2.11-.041-3.776.486-5.802.529-.739.016-.513-.526-1.38-.507-.843.017-1.422.745-2.636.476-.927-.204-1.82-1.578-3.08-1.673.036 1.403-.812 1.421-2.193 1.871-.269.087.053.558-.074.624-.544.283-1.074-.091-1.569.212-.12.072-.098.551-.194.637-.798.753-2.299-.238-2.559-.411-.992-.654-1.331-.01-2.098-.246-.751-.235.324-.651-.541-.77-1.747-.247-3.939-.035-5.744.058-.687.038-.178.646-.276.666-1.458.256-2.964-.325-3.681.999-1.2-3.217-.856.377-2.977-.133-.163-.041-.488-1.578.125-1.852.661-.276 1.585.147 2.46-.269.182-.097 1.28-1.632 1.456-1.732 1.175-.77 1.539 1.538 1.61 1.661.887 1.324 2.163-.331 2.58-.466 1.672-.603 3.193-.368 4.638-.81.991-.29.927-1.812 1.685-1.81 2.567.003 3.487 2.079 5.737.104.478-.421-.135-2.054 1.767-.85.138.075 1.521 1.197 2.243.398.091-.101.061-.586.187-.633.833-.311 1.487.04 2.382-.195.898-.235 2.005-.572 3.114-.467.673.061 1.496.922 1.822 1.127.893.59 1.783-.505 2.378.236.592.746-.4 1.979 1.037 2.405-.016-1.262.033-2.561.049-3.831 3.102-.122 6.187.124 9.347-.095.379-.028-.045-.685.362-.732 1.699-.196 3.372.201 5.122-.081 1.374-.222 2.895-1.018 4.401-1.276.943 1.397 3.076.799 4.707.849.57.017.551.404.964.509q.09.022.169.037l.034-.001c1.261.271.596-.889.974-1.098 1.699-.928 1.965 1.95 4.067 1.792.122-.008 1.392-1.6 1.565-1.703 1.132-.671.213.527.944.611 1.339.153 2.289.482 3.878-.033.469-.153 1.491-1.154 2.411-.449.121.093.077.603.172.629 1.722.428 1.709-1.171 2.674-1.751.986-.581 2.506.462 2.824.768.828.789-.595.375-.633.457-.464.98.61.772 1.449.819.183 1.561 1.352 1.42.872.043-.055-.15-.701.022-.872-.043.672-1.565 1.955-1.813 3.46-.435.697.646.124 1.454 2.106 1.089.906-.166.511-1.23 1.307-1.555 1.812-.743 4.333.165 6.193-.066.688-.084-.007-.648.463-.726 1.247-.209 2.379.19 3.65-.086.115-.026-.192-.632.206-.656 2.967-.186 5.575.11 8.707.001 1.485-.051 4.159-.494 5.738-.485 2.717.012 6.033.787 8.368.482 1.503-.196 1.141-.801 1.768-1.246 1.203-.862 3.462.518 3.769.733.009.007-1.283.201-.579.492.427.646.565-.489.579-.492.195.139 2.822.183 3.316.046.274-.075.098-.654.241-.682a45.5 45.5 0 0 1 10.409-.78c.062.01-.007.668.139.683 2.038.217 3.321-.631 4.987-1.167 1.646-.535 2.978-.423 4.01.665 1.258-.186 3.096.246 4.158.51 1.049.265 1.149-1.015 1.239-1.043 2.823-.908 4.511-.237 7.496-.227 1.406.007 4.197-.276 5.726-.468 1.206-.154 1.956.119 3.058-.111.149-.03-.022-.592.023-.616 1.215-.722.667.686.932.925.959.869 1.548 1.33 3.125.851.364-.109 1.366-2.144 2.033-2.283.868-.178.563.549 1.471.344.078-.017.048-.458.611-.457 2.604-.004 5.458.157 8.178.021.371-.017-.128-.701.408-.737 2.502-.167 5.256-.233 7.72.015.606.063.244.566.38.707.835.855 1.926-.463 2.114-.494 4.457-.762 7.931.285 12.478-.413.248-.04 2.119-1.474 3.011-.324.061.077.944 1.254 1.665.407.045-.053-.502-.656.419-.622s2.386-.427 3.671.215c.406.202 1.389 1.374 2.551.379.075-.07 1.849-2.293 2.554-.819.114.243.051 1.828 1.45.973.267-.166-.237-.504.472-.746 1.088-.373 2.555.005 3.882-.74.232-.132 1.198-1.236 2.029-.446.13.124-.093.659.333.705 2.03.222 4.133-.195 6.191.109.728.107.383.971 1.146 1.178.759.206 2.297.38 3.077-.033.781-.414-.125-1.749 1.059-1.893 5.137-.625 10.281.026 15.43-.003.767-.004.118-.473 1.246-.514 4.144-.153 11.315-.805 14.928.135 2.921.752-.709 1.479 1.514 1.757 1.072.133 2.182-1.479 2.437-1.535 2.495-.572 4.242.085 6.512-.188.466-.057-.009-.686.389-.727 1.356-.146 2.786.105 4.074.021.578-.04.459-.527.991-.502 1.285.053 2.434.231 3.694.66.115.039-.638.666.31.666 1.54-.002 3.427.406 5.189-.103.523-.153.519-1.273 1.667-.526.24.156-.03 1.506 1.256.315.217-.198 2.38-1.815 3.473-.829.29.259 1.032 1.343 1.668 1.156.086-.03-.273-.623.252-.694 1.849-.237 3.778-.215 5.648-.443.499-.062-.259-.669.485-.741q.337-.033.691-.056c1.953-.122 4.203-.024 5.992.114.741.058.24.584.295.639.886.894 1.36-.347 1.658-.424 1.813-.466 3.198.086 4.848-.098.455-.049.121-.63.21-.684.931-.529.251.538.847.643 1.643.299 3.571.217 5.253.112.621-.039-.089-.707.468-.735 3.256-.174 6.781-.167 9.961.16.612.062.236.592.365.71.897.824 2.165-.337 2.459-.451 1.334-.516 1.859-.06 3.031-.163 5.801-.514 12.88-.292 18.372-.156 7.116.174 12.603.632 19.4.467.429-.01-.007-.705.363-.723 4.798-.192 9.523.066 14.318-.142.396-.016-.176-.676.46-.724 1.306-.102 2.939-.067 4.246.144.646.102-.22.669.43.76 1.511.213 3.118.262 4.646.158.652-.046-.334-.724.52-.73 5.814-.058 11.525-.153 17.382.759.403.062.748 1.439 1.604 1.181.066-.381.066-.83.097-1.238 8.443-.164 16.815.395 25.281.573.356.007-.251-.729.439-.718 4.003.06 7.893-.089 11.973.694.405.077.179 1.354 1.378 1.178.212-.032 2.013-.177 2.483-.448.064-.041-.256-.643.326-.652 3.379-.04 6.909.151 10.271.57.542.069-.047.696.34.751 2.739.382 5.733-.054 8.346.567 1.749.418 1.081 1.508 1.996 2.607.129.155 1.216.197 1.262.828.119 1.588-.436 3.314-.248 5.007.04.365 1.503-.003.626.862-.061.058-1.122.333-1.387.627-.184.203.131.849-.242 1.107-.374.258-.771-.286-1.388.014-.617.304-.36 1.038-1.583 1.104m-334.721-5.274c.988.578 1.052-1.669.025-1.095-.05.03-.076 1.067-.025 1.095m-116.89 5.056c1.314.922 2.13-.577 1.18-1.293-.944-.715-1.579 1.014-1.18 1.293m-13.046 1.422c1.527.697 1.593-2.492.031-1.763-.09.042-.12 1.722-.031 1.763m463.287-10.515c.012.03.793.071.812.042.428-.705-1.133-.788-.812-.042m-476.218 12.034c.512.401 1.782-.171 1.191-.672-.453-.405-1.815.173-1.191.672m193.35-7.304c.016.033.577.045.559-.143-.057-.607-.831-.411-.559.143m-215.414 8.872c3.287-.2 5.472 2.287 1.911 2.28-.638.001 1.315-.954.472-1.12-1.494-.3-2.543 1.434-3.719.742-.593-.07 1.163-1.918 1.341-1.906zm165.582-6.892c.02.029.798.03.816 0 .396-.726-1.171-.728-.816 0m82.556-1.606c.045.062 1.849.067 1.906.007.905-1.192-2.742-1.206-1.906-.007m-134.69 5.16c-.797.747-1.842.871-2.549-.002.843.016 1.724-.011 2.549.002"/></svg>